NotoSansDevanagari-CondensedLight.ufo
<glyph name="plus.deva" format="2">
  <advance width="411"/>
  <unicode hex="002B"/>
  <outline>
    <contour>
      <point x="193" y="309" type="line"/>
      <point x="193" y="120" type="line"/>
      <point x="219" y="120" type="line"/>
      <point x="219" y="309" type="line"/>
      <point x="373" y="309" type="line"/>
      <point x="373" y="335" type="line"/>
      <point x="219" y="335" type="line"/>
      <point x="219" y="524" type="line"/>
      <point x="193" y="524" type="line"/>
      <point x="193" y="335" type="line"/>
      <point x="38" y="335" type="line"/>
      <point x="38" y="309" type="line"/>
    </contour>
  </outline>
</glyph>
<glyph name="comma.deva" format="2">
  <advance width="208"/>
  <unicode hex="002C"/>
  <outline>
    <contour>
      <point x="44" y="-129" type="curve"/>
      <point x="66" y="-129" type="line"/>
      <point x="94" y="-60"/>
      <point x="116" y="30"/>
      <point x="131" y="104" type="curve"/>
      <point x="128" y="116" type="line"/>
      <point x="100" y="116" type="line"/>
      <point x="89" y="40"/>
      <point x="73" y="-32"/>
    </contour>
  </outline>
</glyph>
<glyph name="hyphen.deva" format="2">
  <advance width="264"/>
  <unicode hex="002D"/>
  <outline>
    <contour>
      <point x="41" y="310" type="line"/>
      <point x="41" y="284" type="line"/>
      <point x="222" y="284" type="line"/>
      <point x="222" y="310" type="line"/>
    </contour>
  </outline>
</glyph>
<glyph name="slash.deva" format="2">
  <advance width="334"/>
  <unicode hex="002F"/>
  <outline>
    <contour>
      <point x="266" y="833" type="line"/>
      <point x="41" y="-166" type="line"/>
      <point x="68" y="-166" type="line"/>
      <point x="293" y="833" type="line"/>
    </contour>
  </outline>
</glyph>
<glyph name="greater.deva" format="2">
  <advance width="411"/>
  <unicode hex="003E"/>
  <outline>
    <contour>
      <point x="38" y="156" type="line"/>
      <point x="38" y="127" type="line"/>
      <point x="376" y="309" type="line"/>
      <point x="376" y="335" type="line"/>
      <point x="38" y="517" type="line"/>
      <point x="38" y="488" type="line"/>
      <point x="348" y="322" type="line"/>
    </contour>
  </outline>
</glyph>
<glyph name="bracketright.deva" format="2">
  <advance width="278"/>
  <unicode hex="005D"/>
  <outline>
    <contour>
      <point x="55" y="-139" type="line"/>
      <point x="55" y="-165" type="line"/>
      <point x="184" y="-165" type="line"/>
      <point x="184" y="832" type="line"/>
      <point x="55" y="832" type="line"/>
      <point x="55" y="806" type="line"/>
      <point x="158" y="806" type="line"/>
      <point x="158" y="-139" type="line"/>
    </contour>
  </outline>
</glyph>
<glyph name="bar.deva" format="2">
  <advance width="403"/>
  <unicode hex="007C"/>
  <outline>
    <contour>
      <point x="189" y="832" type="line"/>
      <point x="189" y="-166" type="line"/>
      <point x="215" y="-166" type="line"/>
      <point x="215" y="832" type="line"/>
    </contour>
  </outline>
</glyph>
<glyph name="binducandradeva" format="2">
  <unicode hex="0900"/>
  <outline>
    <contour>
      <point x="-232" y="730" type="curve"/>
      <point x="-206" y="724" type="line"/>
      <point x="-190" y="822"/>
      <point x="-163" y="870"/>
      <point x="-102" y="870" type="curve" smooth="yes"/>
      <point x="-42" y="870"/>
      <point x="-8" y="816"/>
      <point x="11" y="724" type="curve"/>
      <point x="37" y="731" type="line"/>
      <point x="14" y="836"/>
      <point x="-32" y="896"/>
      <point x="-103" y="896" type="curve" smooth="yes"/>
      <point x="-175" y="896"/>
      <point x="-217" y="836"/>
    </contour>
    <contour>
      <point x="-73" y="744" type="curve" smooth="yes"/>
      <point x="-73" y="770"/>
      <point x="-86" y="781"/>
      <point x="-100" y="781" type="curve" smooth="yes"/>
      <point x="-117" y="781"/>
      <point x="-128" y="771"/>
      <point x="-128" y="744" type="curve" smooth="yes"/>
      <point x="-128" y="720"/>
      <point x="-118" y="707"/>
      <point x="-101" y="707" type="curve" smooth="yes"/>
      <point x="-85" y="707"/>
      <point x="-73" y="719"/>
    </contour>
  </outline>
</glyph>
<glyph name="candrabindudeva" format="2">
  <unicode hex="0901"/>
  <outline>
    <contour>
      <point x="-122" y="848" type="curve" smooth="yes"/>
      <point x="-122" y="822"/>
      <point x="-109" y="811"/>
      <point x="-95" y="811" type="curve" smooth="yes"/>
      <point x="-78" y="811"/>
      <point x="-67" y="821"/>
      <point x="-67" y="848" type="curve" smooth="yes"/>
      <point x="-67" y="872"/>
      <point x="-77" y="885"/>
      <point x="-94" y="885" type="curve" smooth="yes"/>
      <point x="-110" y="885"/>
      <point x="-122" y="873"/>
    </contour>
    <contour>
      <point x="37" y="862" type="curve"/>
      <point x="11" y="868" type="line"/>
      <point x="-5" y="770"/>
      <point x="-32" y="722"/>
      <point x="-93" y="722" type="curve" smooth="yes"/>
      <point x="-153" y="722"/>
      <point x="-187" y="776"/>
      <point x="-206" y="868" type="curve"/>
      <point x="-232" y="861" type="line"/>
      <point x="-209" y="756"/>
      <point x="-163" y="696"/>
      <point x="-92" y="696" type="curve" smooth="yes"/>
      <point x="-20" y="696"/>
      <point x="22" y="756"/>
    </contour>
  </outline>
</glyph>
<glyph name="anusvaradeva" format="2">
  <unicode hex="0902"/>
  <outline>
    <contour>
      <point x="-119" y="770" type="curve" smooth="yes"/>
      <point x="-119" y="744"/>
      <point x="-105" y="733"/>
      <point x="-91" y="733" type="curve" smooth="yes"/>
      <point x="-74" y="733"/>
      <point x="-62" y="743"/>
      <point x="-62" y="770" type="curve" smooth="yes"/>
      <point x="-62" y="794"/>
      <point x="-73" y="807"/>
      <point x="-90" y="807" type="curve" smooth="yes"/>
      <point x="-106" y="807"/>
      <point x="-119" y="795"/>
    </contour>
  </outline>
</glyph>
<glyph name="visargadeva" format="2">
  <advance width="190"/>
  <unicode hex="0903"/>
  <outline>
    <contour>
      <point x="63" y="118" type="curve" smooth="yes"/>
      <point x="63" y="90"/>
      <point x="78" y="78"/>
      <point x="94" y="78" type="curve" smooth="yes"/>
      <point x="113" y="78"/>
      <point x="126" y="89"/>
      <point x="126" y="118" type="curve" smooth="yes"/>
      <point x="126" y="144"/>
      <point x="114" y="158"/>
      <point x="95" y="158" type="curve" smooth="yes"/>
      <point x="77" y="158"/>
      <point x="63" y="145"/>
    </contour>
    <contour>
      <point x="63" y="434" type="curve" smooth="yes"/>
      <point x="63" y="406"/>
      <point x="78" y="394"/>
      <point x="94" y="394" type="curve" smooth="yes"/>
      <point x="113" y="394"/>
      <point x="126" y="405"/>
      <point x="126" y="434" type="curve" smooth="yes"/>
      <point x="126" y="460"/>
      <point x="114" y="474"/>
      <point x="95" y="474" type="curve" smooth="yes"/>
      <point x="77" y="474"/>
      <point x="63" y="461"/>
    </contour>
  </outline>
</glyph>
<glyph name="aadeva" format="2">
  <advance width="677"/>
  <unicode hex="0906"/>
  <outline>
    <contour>
      <point x="432" y="596" type="line"/>
      <point x="521" y="596" type="line"/>
      <point x="521" y="622" type="line"/>
      <point x="348" y="622" type="line"/>
      <point x="348" y="596" type="line"/>
      <point x="406" y="596" type="line"/>
      <point x="406" y="0" type="line"/>
      <point x="432" y="0" type="line"/>
    </contour>
    <contour>
      <point x="190" y="632" type="curve" smooth="yes"/>
      <point x="151" y="632"/>
      <point x="117" y="622"/>
      <point x="80" y="604" type="curve"/>
      <point x="90" y="579" type="line"/>
      <point x="124" y="597"/>
      <point x="156" y="606"/>
      <point x="188" y="606" type="curve" smooth="yes"/>
      <point x="250" y="606"/>
      <point x="279" y="568"/>
      <point x="279" y="504" type="curve" smooth="yes"/>
      <point x="279" y="440"/>
      <point x="245" y="398"/>
      <point x="163" y="388" type="curve"/>
      <point x="165" y="363" type="line"/>
      <point x="254" y="374"/>
      <point x="306" y="421"/>
      <point x="306" y="503" type="curve" smooth="yes"/>
      <point x="306" y="584"/>
      <point x="260" y="632"/>
    </contour>
    <contour>
      <point x="308" y="203" type="curve" smooth="yes"/>
      <point x="308" y="250"/>
      <point x="295" y="296"/>
      <point x="267" y="334" type="curve"/>
      <point x="266" y="342" type="line"/>
      <point x="257" y="356"/>
      <point x="243" y="372"/>
      <point x="231" y="384" type="curve"/>
      <point x="218" y="390" type="line"/>
      <point x="199" y="380" type="line"/>
      <point x="243" y="338"/>
      <point x="281" y="279"/>
      <point x="281" y="205" type="curve" smooth="yes"/>
      <point x="281" y="145"/>
      <point x="254" y="121"/>
      <point x="211" y="121" type="curve" smooth="yes"/>
      <point x="137" y="121"/>
      <point x="93" y="185"/>
      <point x="47" y="357" type="curve"/>
      <point x="21" y="350" type="line"/>
      <point x="74" y="157"/>
      <point x="125" y="95"/>
      <point x="214" y="95" type="curve" smooth="yes"/>
      <point x="262" y="95"/>
      <point x="308" y="126"/>
    </contour>
    <contour>
      <point x="331" y="343" type="curve" smooth="yes"/>
      <point x="304" y="343"/>
      <point x="268" y="345"/>
      <point x="239" y="354" type="curve"/>
      <point x="239" y="349" type="line"/>
      <point x="258" y="329" type="line"/>
      <point x="277" y="319"/>
      <point x="307" y="317"/>
      <point x="336" y="317" type="curve" smooth="yes"/>
      <point x="362" y="317"/>
      <point x="394" y="319"/>
      <point x="419" y="328" type="curve"/>
      <point x="419" y="355" type="line"/>
      <point x="392" y="345"/>
      <point x="362" y="343"/>
    </contour>
    <contour>
      <point x="600" y="596" type="line"/>
      <point x="689" y="596" type="line"/>
      <point x="689" y="622" type="line"/>
      <point x="503" y="622" type="line"/>
      <point x="503" y="596" type="line"/>
      <point x="574" y="596" type="line"/>
      <point x="574" y="0" type="line"/>
      <point x="600" y="0" type="line"/>
    </contour>
  </outline>
</glyph>
<glyph name="udeva" format="2">
  <advance width="377"/>
  <unicode hex="0909"/>
  <outline>
    <contour>
      <point x="0" y="622" type="line"/>
      <point x="0" y="596" type="line"/>
      <point x="389" y="596" type="line"/>
      <point x="389" y="622" type="line"/>
    </contour>
    <contour>
      <point x="232" y="616" type="curve"/>
      <point x="214" y="603" type="line"/>
      <point x="267" y="570"/>
      <point x="289" y="525"/>
      <point x="289" y="480" type="curve" smooth="yes"/>
      <point x="289" y="405"/>
      <point x="247" y="363"/>
      <point x="160" y="354" type="curve"/>
      <point x="163" y="328" type="line"/>
      <point x="267" y="340"/>
      <point x="316" y="396"/>
      <point x="316" y="478" type="curve" smooth="yes"/>
      <point x="316" y="540"/>
      <point x="281" y="591"/>
    </contour>
    <contour>
      <point x="218" y="354" type="curve"/>
      <point x="194" y="342" type="line"/>
      <point x="254" y="278"/>
      <point x="301" y="211"/>
      <point x="301" y="121" type="curve" smooth="yes"/>
      <point x="301" y="48"/>
      <point x="263" y="26"/>
      <point x="224" y="26" type="curve" smooth="yes"/>
      <point x="146" y="26"/>
      <point x="99" y="110"/>
      <point x="47" y="310" type="curve"/>
      <point x="21" y="303" type="line"/>
      <point x="81" y="76"/>
      <point x="135" y="0"/>
      <point x="223" y="0" type="curve" smooth="yes"/>
      <point x="289" y="0"/>
      <point x="328" y="45"/>
      <point x="328" y="120" type="curve" smooth="yes"/>
      <point x="328" y="218"/>
      <point x="275" y="291"/>
    </contour>
  </outline>
</glyph>
<glyph name="rvocalicdeva" format="2">
  <advance width="589"/>
  <unicode hex="090B"/>
  <outline>
    <contour>
      <point x="302" y="596" type="line"/>
      <point x="601" y="596" type="line"/>
      <point x="601" y="622" type="line"/>
      <point x="0" y="622" type="line"/>
      <point x="0" y="596" type="line"/>
      <point x="276" y="596" type="line"/>
      <point x="276" y="0" type="line"/>
      <point x="302" y="0" type="line"/>
    </contour>
    <contour>
      <point x="21" y="425" type="curve"/>
      <point x="33" y="402" type="line"/>
      <point x="66" y="420"/>
      <point x="91" y="429"/>
      <point x="119" y="429" type="curve" smooth="yes"/>
      <point x="171" y="429"/>
      <point x="192" y="410"/>
      <point x="269" y="284" type="curve"/>
      <point x="284" y="282" type="line"/>
      <point x="289" y="296" type="line"/>
      <point x="209" y="431"/>
      <point x="181" y="455"/>
      <point x="119" y="455" type="curve" smooth="yes"/>
      <point x="90" y="455"/>
      <point x="59" y="445"/>
    </contour>
    <contour>
      <point x="86" y="107" type="line"/>
      <point x="283" y="288" type="line"/>
      <point x="273" y="311" type="line"/>
      <point x="67" y="127" type="line"/>
    </contour>
    <contour>
      <point x="288" y="325" type="curve"/>
      <point x="296" y="299" type="line"/>
      <point x="335" y="299"/>
      <point x="386" y="307"/>
      <point x="424" y="322" type="curve"/>
      <point x="435" y="294"/>
      <point x="456" y="246"/>
      <point x="470" y="222" type="curve"/>
      <point x="483" y="220" type="line"/>
      <point x="489" y="240" type="line"/>
      <point x="474" y="268"/>
      <point x="459" y="297"/>
      <point x="447" y="330" type="curve"/>
      <point x="471" y="338"/>
      <point x="486" y="352"/>
      <point x="486" y="379" type="curve" smooth="yes"/>
      <point x="486" y="405"/>
      <point x="471" y="428"/>
      <point x="446" y="428" type="curve" smooth="yes"/>
      <point x="422" y="428"/>
      <point x="409" y="409"/>
      <point x="409" y="387" type="curve" smooth="yes"/>
      <point x="409" y="370"/>
      <point x="412" y="354"/>
      <point x="420" y="337" type="curve"/>
      <point x="427" y="352" type="line"/>
      <point x="390" y="336"/>
      <point x="338" y="325"/>
    </contour>
    <contour>
      <point x="588" y="13" type="curve"/>
      <point x="577" y="37" type="line"/>
      <point x="545" y="18"/>
      <point x="522" y="12"/>
      <point x="492" y="12" type="curve" smooth="yes"/>
      <point x="446" y="12"/>
      <point x="402" y="36"/>
      <point x="402" y="111" type="curve" smooth="yes"/>
      <point x="402" y="170"/>
      <point x="439" y="204"/>
      <point x="483" y="220" type="curve"/>
      <point x="470" y="242" type="line"/>
      <point x="417" y="221"/>
      <point x="376" y="180"/>
      <point x="376" y="111" type="curve" smooth="yes"/>
      <point x="376" y="30"/>
      <point x="425" y="-14"/>
      <point x="494" y="-14" type="curve" smooth="yes"/>
      <point x="525" y="-14"/>
      <point x="557" y="-6"/>
    </contour>
  </outline>
</glyph>
<glyph name="lvocalicdeva" format="2">
  <advance width="478"/>
  <unicode hex="090C"/>
  <outline>
    <contour>
      <point x="490" y="596" type="line"/>
      <point x="490" y="622" type="line"/>
      <point x="0" y="622" type="line"/>
      <point x="0" y="596" type="line"/>
      <point x="333" y="596" type="line"/>
      <point x="333" y="420" type="line"/>
      <point x="359" y="408" type="line"/>
      <point x="359" y="596" type="line"/>
    </contour>
    <contour>
      <point x="148" y="428" type="curve" smooth="yes"/>
      <point x="101" y="428"/>
      <point x="44" y="396"/>
      <point x="44" y="303" type="curve" smooth="yes"/>
      <point x="44" y="207"/>
      <point x="99" y="119"/>
      <point x="200" y="-6" type="curve"/>
      <point x="221" y="8" type="line"/>
      <point x="128" y="123"/>
      <point x="71" y="211"/>
      <point x="71" y="300" type="curve" smooth="yes"/>
      <point x="71" y="357"/>
      <point x="94" y="402"/>
      <point x="147" y="402" type="curve" smooth="yes"/>
      <point x="185" y="402"/>
      <point x="216" y="381"/>
      <point x="250" y="341" type="curve"/>
      <point x="262" y="365" type="line"/>
      <point x="231" y="401"/>
      <point x="196" y="428"/>
    </contour>
    <contour>
      <point x="275" y="31" type="curve" smooth="yes"/>
      <point x="275" y="-51"/>
      <point x="324" y="-95"/>
      <point x="393" y="-95" type="curve" smooth="yes"/>
      <point x="424" y="-95"/>
      <point x="456" y="-87"/>
      <point x="487" y="-68" type="curve"/>
      <point x="476" y="-44" type="line"/>
      <point x="445" y="-63"/>
      <point x="421" y="-69"/>
      <point x="391" y="-69" type="curve" smooth="yes"/>
      <point x="345" y="-69"/>
      <point x="301" y="-45"/>
      <point x="301" y="30" type="curve" smooth="yes"/>
      <point x="301" y="91"/>
      <point x="340" y="129"/>
      <point x="402" y="145" type="curve"/>
      <point x="398" y="170" type="line"/>
      <point x="322" y="152"/>
      <point x="275" y="102"/>
    </contour>
    <contour>
      <point x="341" y="429" type="curve" smooth="yes"/>
      <point x="270" y="429"/>
      <point x="222" y="373"/>
      <point x="197" y="235" type="curve"/>
      <point x="223" y="229" type="line"/>
      <point x="250" y="369"/>
      <point x="289" y="403"/>
      <point x="340" y="403" type="curve" smooth="yes"/>
      <point x="380" y="403"/>
      <point x="406" y="372"/>
      <point x="406" y="303" type="curve" smooth="yes"/>
      <point x="406" y="244"/>
      <point x="390" y="188"/>
      <point x="376" y="153" type="curve"/>
      <point x="402" y="145" type="line"/>
      <point x="414" y="179"/>
      <point x="432" y="236"/>
      <point x="432" y="305" type="curve" smooth="yes"/>
      <point x="432" y="391"/>
      <point x="390" y="429"/>
    </contour>
  </outline>
</glyph>
<glyph name="edeva" format="2">
  <advance width="383"/>
  <unicode hex="090F"/>
  <outline>
    <contour>
      <point x="395" y="596" type="line"/>
      <point x="395" y="622" type="line"/>
      <point x="0" y="622" type="line"/>
      <point x="0" y="596" type="line"/>
      <point x="70" y="596" type="line"/>
      <point x="70" y="302" type="line" smooth="yes"/>
      <point x="70" y="242"/>
      <point x="73" y="223"/>
      <point x="85" y="196" type="curve" smooth="yes"/>
      <point x="95" y="173"/>
      <point x="115" y="151"/>
      <point x="146" y="125" type="curve" smooth="yes"/>
      <point x="232" y="54" type="line" smooth="yes"/>
      <point x="282" y="13"/>
      <point x="294" y="-10"/>
      <point x="294" y="-52" type="curve" smooth="yes"/>
      <point x="294" y="-92"/>
      <point x="276" y="-124"/>
      <point x="253" y="-155" type="curve"/>
      <point x="276" y="-169" type="line"/>
      <point x="302" y="-131"/>
      <point x="321" y="-96"/>
      <point x="321" y="-52" type="curve" smooth="yes"/>
      <point x="321" y="1"/>
      <point x="302" y="30"/>
      <point x="248" y="75" type="curve" smooth="yes"/>
      <point x="164" y="143" type="line" smooth="yes"/>
      <point x="107" y="189"/>
      <point x="96" y="209"/>
      <point x="96" y="298" type="curve" smooth="yes"/>
      <point x="96" y="596" type="line"/>
      <point x="286" y="596" type="line"/>
      <point x="286" y="351" type="line" smooth="yes"/>
      <point x="286" y="298"/>
      <point x="282" y="278"/>
      <point x="267" y="259" type="curve" smooth="yes"/>
      <point x="255" y="242"/>
      <point x="234" y="231"/>
      <point x="214" y="225" type="curve"/>
      <point x="223" y="200" type="line"/>
      <point x="254" y="210"/>
      <point x="280" y="226"/>
      <point x="294" y="252" type="curve" smooth="yes"/>
      <point x="309" y="279"/>
      <point x="312" y="297"/>
      <point x="312" y="353" type="curve" smooth="yes"/>
      <point x="312" y="596" type="line"/>
    </contour>
  </outline>
</glyph>
<glyph name="kadeva" format="2">
  <advance width="513"/>
  <unicode hex="0915"/>
  <outline>
    <contour>
      <point x="525" y="596" type="line"/>
      <point x="525" y="622" type="line"/>
      <point x="0" y="622" type="line"/>
      <point x="0" y="596" type="line"/>
      <point x="263" y="596" type="line"/>
      <point x="263" y="262" type="line"/>
      <point x="279" y="307" type="line"/>
      <point x="242" y="217"/>
      <point x="201" y="185"/>
      <point x="156" y="185" type="curve" smooth="yes"/>
      <point x="105" y="185"/>
      <point x="71" y="218"/>
      <point x="71" y="316" type="curve" smooth="yes"/>
      <point x="71" y="403"/>
      <point x="110" y="449"/>
      <point x="175" y="449" type="curve" smooth="yes"/>
      <point x="195" y="449"/>
      <point x="211" y="447"/>
      <point x="227" y="443" type="curve"/>
      <point x="232" y="468" type="line"/>
      <point x="216" y="472"/>
      <point x="198" y="475"/>
      <point x="175" y="475" type="curve" smooth="yes"/>
      <point x="96" y="475"/>
      <point x="44" y="417"/>
      <point x="44" y="316" type="curve" smooth="yes"/>
      <point x="44" y="204"/>
      <point x="93" y="159"/>
      <point x="154" y="159" type="curve" smooth="yes"/>
      <point x="211" y="159"/>
      <point x="245" y="194"/>
      <point x="276" y="252" type="curve"/>
      <point x="263" y="254" type="line"/>
      <point x="263" y="0" type="line"/>
      <point x="289" y="0" type="line"/>
      <point x="289" y="297" type="line"/>
      <point x="288" y="267" type="line"/>
      <point x="322" y="343"/>
      <point x="352" y="371"/>
      <point x="384" y="371" type="curve" smooth="yes"/>
      <point x="424" y="371"/>
      <point x="444" y="334"/>
      <point x="444" y="262" type="curve" smooth="yes"/>
      <point x="444" y="187"/>
      <point x="421" y="123"/>
      <point x="394" y="66" type="curve"/>
      <point x="419" y="54" type="line"/>
      <point x="447" y="116"/>
      <point x="470" y="184"/>
      <point x="470" y="265" type="curve" smooth="yes"/>
      <point x="470" y="358"/>
      <point x="432" y="397"/>
      <point x="386" y="397" type="curve" smooth="yes"/>
      <point x="343" y="397"/>
      <point x="311" y="365"/>
      <point x="282" y="303" type="curve"/>
      <point x="289" y="299" type="line"/>
      <point x="289" y="596" type="line"/>
    </contour>
  </outline>
</glyph>
<glyph name="khadeva" format="2">
  <advance width="554"/>
  <unicode hex="0916"/>
  <outline>
    <contour>
      <point x="165" y="596" type="line"/>
      <point x="374" y="596" type="line"/>
      <point x="374" y="622" type="line"/>
      <point x="0" y="622" type="line"/>
      <point x="0" y="596" type="line"/>
      <point x="153" y="596" type="line"/>
      <point x="143" y="607" type="line"/>
      <point x="158" y="573"/>
      <point x="169" y="514"/>
      <point x="169" y="468" type="curve" smooth="yes"/>
      <point x="169" y="390"/>
      <point x="147" y="335"/>
      <point x="101" y="310" type="curve"/>
      <point x="143" y="314" type="line"/>
      <point x="120" y="360"/>
      <point x="101" y="377"/>
      <point x="78" y="377" type="curve" smooth="yes"/>
      <point x="58" y="377"/>
      <point x="42" y="363"/>
      <point x="42" y="339" type="curve" smooth="yes"/>
      <point x="42" y="317"/>
      <point x="48" y="296"/>
      <point x="66" y="261" type="curve" smooth="yes"/>
      <point x="145" y="102"/>
      <point x="225" y="18"/>
      <point x="334" y="18" type="curve" smooth="yes"/>
      <point x="386" y="18"/>
      <point x="425" y="31"/>
      <point x="471" y="69" type="curve"/>
      <point x="465" y="95" type="line"/>
      <point x="416" y="55"/>
      <point x="385" y="44"/>
      <point x="332" y="44" type="curve" smooth="yes"/>
      <point x="229" y="44"/>
      <point x="153" y="136"/>
      <point x="83" y="285" type="curve"/>
      <point x="87" y="269" type="line"/>
      <point x="158" y="304"/>
      <point x="195" y="365"/>
      <point x="195" y="467" type="curve" smooth="yes"/>
      <point x="195" y="516"/>
      <point x="184" y="577"/>
      <point x="172" y="607" type="curve"/>
    </contour>
    <contour>
      <point x="477" y="596" type="line"/>
      <point x="566" y="596" type="line"/>
      <point x="566" y="622" type="line"/>
      <point x="343" y="622" type="line"/>
      <point x="343" y="596" type="line"/>
      <point x="451" y="596" type="line"/>
      <point x="451" y="0" type="line"/>
      <point x="477" y="0" type="line"/>
    </contour>
    <contour>
      <point x="466" y="232" type="curve"/>
      <point x="467" y="273" type="line"/>
      <point x="444" y="236"/>
      <point x="414" y="211"/>
      <point x="365" y="211" type="curve" smooth="yes"/>
      <point x="318" y="211"/>
      <point x="280" y="240"/>
      <point x="280" y="332" type="curve" smooth="yes"/>
      <point x="280" y="413"/>
      <point x="315" y="458"/>
      <point x="374" y="458" type="curve" smooth="yes"/>
      <point x="391" y="458"/>
      <point x="404" y="456"/>
      <point x="418" y="452" type="curve"/>
      <point x="421" y="478" type="line"/>
      <point x="407" y="482"/>
      <point x="391" y="484"/>
      <point x="376" y="484" type="curve" smooth="yes"/>
      <point x="306" y="484"/>
      <point x="253" y="434"/>
      <point x="253" y="332" type="curve" smooth="yes"/>
      <point x="253" y="232"/>
      <point x="299" y="185"/>
      <point x="364" y="185" type="curve" smooth="yes"/>
      <point x="409" y="185"/>
      <point x="439" y="203"/>
    </contour>
  </outline>
</glyph>
<glyph name="ghadeva" format="2">
  <advance width="403"/>
  <unicode hex="0918"/>
  <outline>
    <contour>
      <point x="415" y="596" type="line"/>
      <point x="415" y="622" type="line"/>
      <point x="0" y="622" type="line"/>
      <point x="0" y="596" type="line"/>
      <point x="300" y="596" type="line"/>
      <point x="300" y="242" type="line"/>
      <point x="308" y="263" type="line"/>
      <point x="273" y="208"/>
      <point x="239" y="185"/>
      <point x="190" y="185" type="curve" smooth="yes"/>
      <point x="138" y="185"/>
      <point x="101" y="213"/>
      <point x="101" y="295" type="curve" smooth="yes"/>
      <point x="101" y="373"/>
      <point x="144" y="406"/>
      <point x="195" y="406" type="curve" smooth="yes"/>
      <point x="205" y="406"/>
      <point x="213" y="405"/>
      <point x="220" y="404" type="curve"/>
      <point x="223" y="430" type="line"/>
      <point x="216" y="431"/>
      <point x="207" y="432"/>
      <point x="194" y="432" type="curve" smooth="yes"/>
      <point x="164" y="432"/>
      <point x="144" y="423"/>
      <point x="130" y="414" type="curve"/>
      <point x="125" y="411" type="line"/>
      <point x="89" y="383"/>
      <point x="74" y="341"/>
      <point x="74" y="294" type="curve" smooth="yes"/>
      <point x="74" y="204"/>
      <point x="119" y="159"/>
      <point x="189" y="159" type="curve" smooth="yes"/>
      <point x="253" y="159"/>
      <point x="291" y="193"/>
      <point x="313" y="228" type="curve"/>
      <point x="300" y="231" type="line"/>
      <point x="300" y="0" type="line"/>
      <point x="326" y="0" type="line"/>
      <point x="326" y="596" type="line"/>
    </contour>
    <contour>
      <point x="141" y="399" type="curve"/>
      <point x="156" y="419" type="line"/>
      <point x="95" y="440"/>
      <point x="68" y="467"/>
      <point x="68" y="517" type="curve" smooth="yes"/>
      <point x="68" y="555"/>
      <point x="83" y="586"/>
      <point x="105" y="608" type="curve"/>
      <point x="79" y="616" type="line"/>
      <point x="55" y="588"/>
      <point x="42" y="556"/>
      <point x="42" y="520" type="curve" smooth="yes"/>
      <point x="42" y="452"/>
      <point x="81" y="419"/>
    </contour>
  </outline>
</glyph>
<glyph name="ngadeva" format="2">
  <advance width="438"/>
  <unicode hex="0919"/>
  <outline>
    <contour>
      <point x="248" y="251" type="curve" smooth="yes"/>
      <point x="303" y="251"/>
      <point x="344" y="218"/>
      <point x="344" y="142" type="curve" smooth="yes"/>
      <point x="344" y="69"/>
      <point x="308" y="26"/>
      <point x="233" y="26" type="curve" smooth="yes"/>
      <point x="151" y="26"/>
      <point x="89" y="82"/>
      <point x="41" y="163" type="curve"/>
      <point x="18" y="149" type="line"/>
      <point x="72" y="62"/>
      <point x="139" y="0"/>
      <point x="234" y="0" type="curve" smooth="yes"/>
      <point x="328" y="0"/>
      <point x="371" y="59"/>
      <point x="371" y="142" type="curve" smooth="yes"/>
      <point x="371" y="224"/>
      <point x="325" y="277"/>
      <point x="247" y="277" type="curve" smooth="yes"/>
      <point x="223" y="277"/>
      <point x="200" y="272"/>
      <point x="180" y="264" type="curve"/>
      <point x="158" y="287"/>
      <point x="129" y="321"/>
      <point x="129" y="367" type="curve" smooth="yes"/>
      <point x="129" y="390"/>
      <point x="134" y="406"/>
      <point x="145" y="418" type="curve" smooth="yes"/>
      <point x="159" y="432"/>
      <point x="177" y="438"/>
      <point x="217" y="438" type="curve" smooth="yes"/>
      <point x="329" y="438" type="line"/>
      <point x="329" y="596" type="line"/>
      <point x="450" y="596" type="line"/>
      <point x="450" y="622" type="line"/>
      <point x="0" y="622" type="line"/>
      <point x="0" y="596" type="line"/>
      <point x="303" y="596" type="line"/>
      <point x="303" y="464" type="line"/>
      <point x="223" y="464" type="line" smooth="yes"/>
      <point x="167" y="464"/>
      <point x="143" y="454"/>
      <point x="125" y="435" type="curve" smooth="yes"/>
      <point x="109" y="418"/>
      <point x="102" y="395"/>
      <point x="102" y="369" type="curve" smooth="yes"/>
      <point x="102" y="313"/>
      <point x="140" y="264"/>
      <point x="173" y="235" type="curve"/>
      <point x="198" y="246"/>
      <point x="221" y="251"/>
    </contour>
    <contour>
      <point x="350" y="360" type="curve" smooth="yes"/>
      <point x="350" y="334"/>
      <point x="364" y="323"/>
      <point x="378" y="323" type="curve" smooth="yes"/>
      <point x="395" y="323"/>
      <point x="407" y="333"/>
      <point x="407" y="360" type="curve" smooth="yes"/>
      <point x="407" y="384"/>
      <point x="396" y="397"/>
      <point x="379" y="397" type="curve" smooth="yes"/>
      <point x="363" y="397"/>
      <point x="350" y="385"/>
    </contour>
  </outline>
</glyph>
<glyph name="jhadeva" format="2">
  <advance width="518"/>
  <unicode hex="091D"/>
  <outline>
    <contour>
      <point x="441" y="596" type="line"/>
      <point x="530" y="596" type="line"/>
      <point x="530" y="622" type="line"/>
      <point x="338" y="622" type="line"/>
      <point x="338" y="596" type="line"/>
      <point x="415" y="596" type="line"/>
      <point x="415" y="0" type="line"/>
      <point x="441" y="0" type="line"/>
    </contour>
    <contour>
      <point x="192" y="251" type="curve" smooth="yes"/>
      <point x="250" y="251"/>
      <point x="288" y="215"/>
      <point x="288" y="142" type="curve" smooth="yes"/>
      <point x="288" y="63"/>
      <point x="246" y="24"/>
      <point x="172" y="24" type="curve" smooth="yes"/>
      <point x="146" y="24"/>
      <point x="123" y="28"/>
      <point x="94" y="38" type="curve"/>
      <point x="107" y="23" type="line"/>
      <point x="155" y="-20"/>
      <point x="210" y="-63"/>
      <point x="272" y="-107" type="curve"/>
      <point x="287" y="-85" type="line"/>
      <point x="237" y="-54"/>
      <point x="189" y="-19"/>
      <point x="151" y="12" type="curve"/>
      <point x="125" y="52"/>
      <point x="97" y="75"/>
      <point x="72" y="75" type="curve" smooth="yes"/>
      <point x="57" y="75"/>
      <point x="45" y="67"/>
      <point x="45" y="50" type="curve" smooth="yes"/>
      <point x="45" y="15"/>
      <point x="92" y="5"/>
      <point x="138" y="2" type="curve" smooth="yes"/>
      <point x="154" y="1"/>
      <point x="165" y="0"/>
      <point x="174" y="0" type="curve" smooth="yes"/>
      <point x="260" y="0"/>
      <point x="315" y="46"/>
      <point x="315" y="142" type="curve" smooth="yes"/>
      <point x="315" y="221"/>
      <point x="270" y="277"/>
      <point x="191" y="277" type="curve" smooth="yes"/>
      <point x="167" y="277"/>
      <point x="144" y="272"/>
      <point x="124" y="264" type="curve"/>
      <point x="103" y="286"/>
      <point x="73" y="321"/>
      <point x="73" y="367" type="curve" smooth="yes"/>
      <point x="73" y="390"/>
      <point x="78" y="406"/>
      <point x="89" y="418" type="curve" smooth="yes"/>
      <point x="103" y="432"/>
      <point x="121" y="438"/>
      <point x="161" y="438" type="curve" smooth="yes"/>
      <point x="275" y="438" type="line"/>
      <point x="275" y="596" type="line"/>
      <point x="368" y="596" type="line"/>
      <point x="368" y="622" type="line"/>
      <point x="0" y="622" type="line"/>
      <point x="0" y="596" type="line"/>
      <point x="249" y="596" type="line"/>
      <point x="249" y="464" type="line"/>
      <point x="167" y="464" type="line" smooth="yes"/>
      <point x="111" y="464"/>
      <point x="87" y="454"/>
      <point x="69" y="435" type="curve" smooth="yes"/>
      <point x="53" y="418"/>
      <point x="46" y="395"/>
      <point x="46" y="369" type="curve" smooth="yes"/>
      <point x="46" y="313"/>
      <point x="84" y="264"/>
      <point x="117" y="235" type="curve"/>
      <point x="142" y="246"/>
      <point x="165" y="251"/>
    </contour>
    <contour>
      <point x="340" y="256" type="curve" smooth="yes"/>
      <point x="297" y="256"/>
      <point x="268" y="259"/>
      <point x="237" y="269" type="curve"/>
      <point x="233" y="262" type="line"/>
      <point x="237" y="255" type="line"/>
      <point x="273" y="235"/>
      <point x="312" y="230"/>
      <point x="342" y="230" type="curve" smooth="yes"/>
      <point x="374" y="230"/>
      <point x="399" y="235"/>
      <point x="428" y="247" type="curve"/>
      <point x="428" y="273" type="line"/>
      <point x="396" y="260"/>
      <point x="375" y="256"/>
    </contour>
  </outline>
</glyph>
<glyph name="ttadeva" format="2">
  <advance width="359"/>
  <unicode hex="091F"/>
  <outline>
    <contour>
      <point x="371" y="596" type="line"/>
      <point x="371" y="622" type="line"/>
      <point x="0" y="622" type="line"/>
      <point x="0" y="596" type="line"/>
      <point x="219" y="596" type="line"/>
      <point x="219" y="415" type="line"/>
      <point x="238" y="422" type="line"/>
      <point x="234" y="422" type="line"/>
      <point x="124" y="422"/>
      <point x="44" y="349"/>
      <point x="44" y="215" type="curve" smooth="yes"/>
      <point x="44" y="73"/>
      <point x="111" y="0"/>
      <point x="209" y="0" type="curve" smooth="yes"/>
      <point x="259" y="0"/>
      <point x="302" y="12"/>
      <point x="340" y="36" type="curve"/>
      <point x="329" y="61" type="line"/>
      <point x="290" y="37"/>
      <point x="258" y="26"/>
      <point x="210" y="26" type="curve" smooth="yes"/>
      <point x="126" y="26"/>
      <point x="71" y="86"/>
      <point x="71" y="216" type="curve" smooth="yes"/>
      <point x="71" y="271"/>
      <point x="88" y="319"/>
      <point x="118" y="351" type="curve" smooth="yes"/>
      <point x="145" y="380"/>
      <point x="181" y="396"/>
      <point x="236" y="396" type="curve" smooth="yes"/>
      <point x="245" y="396" type="line"/>
      <point x="245" y="596" type="line"/>
    </contour>
  </outline>
</glyph>
<glyph name="tthadeva" format="2">
  <advance width="415"/>
  <unicode hex="0920"/>
  <outline>
    <contour>
      <point x="427" y="596" type="line"/>
      <point x="427" y="622" type="line"/>
      <point x="0" y="622" type="line"/>
      <point x="0" y="596" type="line"/>
      <point x="219" y="596" type="line"/>
      <point x="219" y="419" type="line"/>
      <point x="227" y="421" type="line"/>
      <point x="224" y="421" type="line" smooth="yes"/>
      <point x="127" y="421"/>
      <point x="44" y="349"/>
      <point x="44" y="216" type="curve" smooth="yes"/>
      <point x="44" y="81"/>
      <point x="108" y="0"/>
      <point x="208" y="0" type="curve" smooth="yes"/>
      <point x="301" y="0"/>
      <point x="370" y="61"/>
      <point x="370" y="197" type="curve" smooth="yes"/>
      <point x="370" y="293"/>
      <point x="332" y="375"/>
      <point x="245" y="420" type="curve"/>
      <point x="245" y="596" type="line"/>
    </contour>
    <contour>
      <point x="207" y="26" type="curve" smooth="yes"/>
      <point x="124" y="26"/>
      <point x="71" y="93"/>
      <point x="71" y="214" type="curve" smooth="yes"/>
      <point x="71" y="274"/>
      <point x="89" y="319"/>
      <point x="118" y="351" type="curve" smooth="yes"/>
      <point x="145" y="381"/>
      <point x="183" y="396"/>
      <point x="231" y="396" type="curve" smooth="yes"/>
      <point x="236" y="396" type="line"/>
      <point x="309" y="361"/>
      <point x="343" y="282"/>
      <point x="343" y="197" type="curve" smooth="yes"/>
      <point x="343" y="77"/>
      <point x="287" y="26"/>
    </contour>
  </outline>
</glyph>
<glyph name="ddhadeva" format="2">
  <advance width="394"/>
  <unicode hex="0922"/>
  <outline>
    <contour>
      <point x="215" y="0" type="curve" smooth="yes"/>
      <point x="299" y="0"/>
      <point x="353" y="57"/>
      <point x="353" y="146" type="curve" smooth="yes"/>
      <point x="353" y="212"/>
      <point x="323" y="263"/>
      <point x="265" y="263" type="curve" smooth="yes"/>
      <point x="208" y="263"/>
      <point x="172" y="210"/>
      <point x="172" y="143" type="curve" smooth="yes"/>
      <point x="172" y="97"/>
      <point x="181" y="60"/>
      <point x="200" y="18" type="curve"/>
      <point x="226" y="17" type="line"/>
      <point x="213" y="46"/>
      <point x="199" y="88"/>
      <point x="199" y="137" type="curve" smooth="yes"/>
      <point x="199" y="197"/>
      <point x="223" y="237"/>
      <point x="265" y="237" type="curve" smooth="yes"/>
      <point x="304" y="237"/>
      <point x="326" y="203"/>
      <point x="326" y="145" type="curve" smooth="yes"/>
      <point x="326" y="76"/>
      <point x="289" y="25"/>
      <point x="217" y="25" type="curve" smooth="yes"/>
      <point x="202" y="25"/>
      <point x="207" y="25"/>
      <point x="203" y="25" type="curve"/>
      <point x="126" y="30"/>
      <point x="71" y="102"/>
      <point x="71" y="224" type="curve" smooth="yes"/>
      <point x="71" y="286"/>
      <point x="91" y="337"/>
      <point x="126" y="371" type="curve" smooth="yes"/>
      <point x="155" y="399"/>
      <point x="194" y="415"/>
      <point x="252" y="415" type="curve" smooth="yes"/>
      <point x="267" y="415" type="line"/>
      <point x="267" y="596" type="line"/>
      <point x="406" y="596" type="line"/>
      <point x="406" y="622" type="line"/>
      <point x="0" y="622" type="line"/>
      <point x="0" y="596" type="line"/>
      <point x="241" y="596" type="line"/>
      <point x="241" y="430" type="line"/>
      <point x="252" y="441" type="line"/>
      <point x="243" y="441" type="line"/>
      <point x="133" y="441"/>
      <point x="44" y="362"/>
      <point x="44" y="226" type="curve" smooth="yes"/>
      <point x="44" y="82"/>
      <point x="115" y="0"/>
    </contour>
  </outline>
</glyph>
<glyph name="nnadeva" format="2">
  <advance width="492"/>
  <unicode hex="0923"/>
  <outline>
    <contour>
      <point x="415" y="596" type="line"/>
      <point x="504" y="596" type="line"/>
      <point x="504" y="622" type="line"/>
      <point x="0" y="622" type="line"/>
      <point x="0" y="596" type="line"/>
      <point x="70" y="596" type="line"/>
      <point x="70" y="329" type="line" smooth="yes"/>
      <point x="70" y="278"/>
      <point x="79" y="242"/>
      <point x="98" y="219" type="curve" smooth="yes"/>
      <point x="114" y="199"/>
      <point x="139" y="186"/>
      <point x="174" y="186" type="curve" smooth="yes"/>
      <point x="202" y="186"/>
      <point x="224" y="195"/>
      <point x="240" y="208" type="curve" smooth="yes"/>
      <point x="270" y="234"/>
      <point x="279" y="271"/>
      <point x="279" y="328" type="curve" smooth="yes"/>
      <point x="279" y="596" type="line"/>
      <point x="389" y="596" type="line"/>
      <point x="389" y="0" type="line"/>
      <point x="415" y="0" type="line"/>
    </contour>
    <contour>
      <point x="173" y="212" type="curve" smooth="yes"/>
      <point x="148" y="212"/>
      <point x="131" y="220"/>
      <point x="119" y="234" type="curve" smooth="yes"/>
      <point x="104" y="252"/>
      <point x="96" y="281"/>
      <point x="96" y="332" type="curve" smooth="yes"/>
      <point x="96" y="596" type="line"/>
      <point x="253" y="596" type="line"/>
      <point x="253" y="332" type="line" smooth="yes"/>
      <point x="253" y="280"/>
      <point x="248" y="248"/>
      <point x="224" y="228" type="curve" smooth="yes"/>
      <point x="212" y="218"/>
      <point x="195" y="212"/>
    </contour>
  </outline>
</glyph>
<glyph name="tadeva" format="2">
  <advance width="388"/>
  <unicode hex="0924"/>
  <outline>
    <contour>
      <point x="311" y="596" type="line"/>
      <point x="400" y="596" type="line"/>
      <point x="400" y="622" type="line"/>
      <point x="0" y="622" type="line"/>
      <point x="0" y="596" type="line"/>
      <point x="284" y="596" type="line"/>
      <point x="284" y="388" type="line"/>
      <point x="215" y="388" type="line" smooth="yes"/>
      <point x="132" y="388"/>
      <point x="100" y="371"/>
      <point x="77" y="348" type="curve" smooth="yes"/>
      <point x="50" y="321"/>
      <point x="42" y="286"/>
      <point x="42" y="252" type="curve" smooth="yes"/>
      <point x="42" y="168"/>
      <point x="90" y="85"/>
      <point x="160" y="-6" type="curve"/>
      <point x="182" y="8" type="line"/>
      <point x="105" y="105"/>
      <point x="69" y="179"/>
      <point x="69" y="249" type="curve" smooth="yes"/>
      <point x="69" y="283"/>
      <point x="78" y="307"/>
      <point x="89" y="322" type="curve" smooth="yes"/>
      <point x="110" y="349"/>
      <point x="139" y="362"/>
      <point x="214" y="362" type="curve" smooth="yes"/>
      <point x="284" y="362" type="line"/>
      <point x="284" y="0" type="line"/>
      <point x="311" y="0" type="line"/>
    </contour>
  </outline>
</glyph>
<glyph name="padeva" format="2">
  <advance width="399"/>
  <unicode hex="092A"/>
  <outline>
    <contour>
      <point x="322" y="596" type="line"/>
      <point x="411" y="596" type="line"/>
      <point x="411" y="622" type="line"/>
      <point x="0" y="622" type="line"/>
      <point x="0" y="596" type="line"/>
      <point x="71" y="596" type="line"/>
      <point x="71" y="363" type="line" smooth="yes"/>
      <point x="71" y="289"/>
      <point x="79" y="256"/>
      <point x="100" y="228" type="curve" smooth="yes"/>
      <point x="120" y="202"/>
      <point x="151" y="186"/>
      <point x="187" y="186" type="curve" smooth="yes"/>
      <point x="245" y="186"/>
      <point x="280" y="215"/>
      <point x="302" y="248" type="curve"/>
      <point x="296" y="259" type="line"/>
      <point x="296" y="0" type="line"/>
      <point x="322" y="0" type="line"/>
    </contour>
    <contour>
      <point x="296" y="596" type="line"/>
      <point x="296" y="271" type="line"/>
      <point x="306" y="293" type="line"/>
      <point x="271" y="237"/>
      <point x="239" y="212"/>
      <point x="188" y="212" type="curve" smooth="yes"/>
      <point x="160" y="212"/>
      <point x="138" y="223"/>
      <point x="123" y="241" type="curve" smooth="yes"/>
      <point x="105" y="263"/>
      <point x="97" y="293"/>
      <point x="97" y="359" type="curve" smooth="yes"/>
      <point x="97" y="596" type="line"/>
    </contour>
  </outline>
</glyph>
<glyph name="badeva" format="2">
  <advance width="386"/>
  <unicode hex="092C"/>
  <outline>
    <contour>
      <point x="398" y="596" type="line"/>
      <point x="398" y="622" type="line"/>
      <point x="0" y="622" type="line"/>
      <point x="0" y="596" type="line"/>
      <point x="283" y="596" type="line"/>
      <point x="283" y="250" type="line"/>
      <point x="289" y="268" type="line"/>
      <point x="255" y="208"/>
      <point x="218" y="185"/>
      <point x="169" y="185" type="curve" smooth="yes"/>
      <point x="109" y="185"/>
      <point x="71" y="219"/>
      <point x="71" y="313" type="curve" smooth="yes"/>
      <point x="71" y="408"/>
      <point x="111" y="449"/>
      <point x="180" y="449" type="curve" smooth="yes"/>
      <point x="209" y="449"/>
      <point x="229" y="446"/>
      <point x="246" y="441" type="curve"/>
      <point x="250" y="467" type="line"/>
      <point x="230" y="472"/>
      <point x="213" y="475"/>
      <point x="182" y="475" type="curve" smooth="yes"/>
      <point x="98" y="475"/>
      <point x="44" y="421"/>
      <point x="44" y="313" type="curve" smooth="yes"/>
      <point x="44" y="209"/>
      <point x="93" y="159"/>
      <point x="168" y="159" type="curve" smooth="yes"/>
      <point x="233" y="159"/>
      <point x="268" y="194"/>
      <point x="293" y="232" type="curve"/>
      <point x="283" y="241" type="line"/>
      <point x="283" y="0" type="line"/>
      <point x="309" y="0" type="line"/>
      <point x="309" y="596" type="line"/>
    </contour>
    <contour>
      <point x="116" y="446" type="line"/>
      <point x="93" y="435" type="line"/>
      <point x="240" y="193" type="line"/>
      <point x="255" y="215" type="line"/>
    </contour>
  </outline>
</glyph>
<glyph name="madeva" format="2">
  <advance width="404"/>
  <unicode hex="092E"/>
  <outline>
    <contour>
      <point x="327" y="596" type="line"/>
      <point x="416" y="596" type="line"/>
      <point x="416" y="622" type="line"/>
      <point x="0" y="622" type="line"/>
      <point x="0" y="596" type="line"/>
      <point x="99" y="596" type="line"/>
      <point x="99" y="314" type="line"/>
      <point x="81" y="314" type="line" smooth="yes"/>
      <point x="55" y="314"/>
      <point x="46" y="301"/>
      <point x="46" y="283" type="curve" smooth="yes"/>
      <point x="46" y="258"/>
      <point x="71" y="215"/>
      <point x="103" y="215" type="curve" smooth="yes"/>
      <point x="116" y="215"/>
      <point x="125" y="223"/>
      <point x="125" y="246" type="curve" smooth="yes"/>
      <point x="125" y="288" type="line"/>
      <point x="301" y="288" type="line"/>
      <point x="301" y="0" type="line"/>
      <point x="327" y="0" type="line"/>
    </contour>
    <contour>
      <point x="301" y="596" type="line"/>
      <point x="301" y="314" type="line"/>
      <point x="125" y="314" type="line"/>
      <point x="125" y="596" type="line"/>
    </contour>
  </outline>
</glyph>
<glyph name="radeva" format="2">
  <advance width="284"/>
  <unicode hex="0930"/>
  <outline>
    <contour>
      <point x="191" y="596" type="line"/>
      <point x="296" y="596" type="line"/>
      <point x="296" y="622" type="line"/>
      <point x="0" y="622" type="line"/>
      <point x="0" y="596" type="line"/>
      <point x="183" y="596" type="line"/>
      <point x="165" y="607" type="line"/>
      <point x="175" y="588"/>
      <point x="191" y="551"/>
      <point x="191" y="484" type="curve" smooth="yes"/>
      <point x="191" y="397"/>
      <point x="153" y="342"/>
      <point x="103" y="317" type="curve"/>
      <point x="143" y="314" type="line"/>
      <point x="120" y="360"/>
      <point x="101" y="377"/>
      <point x="78" y="377" type="curve" smooth="yes"/>
      <point x="58" y="377"/>
      <point x="42" y="363"/>
      <point x="42" y="339" type="curve" smooth="yes"/>
      <point x="42" y="319"/>
      <point x="46" y="304"/>
      <point x="64" y="268" type="curve" smooth="yes"/>
      <point x="91" y="214"/>
      <point x="160" y="96"/>
      <point x="242" y="-12" type="curve"/>
      <point x="263" y="2" type="line"/>
      <point x="198" y="84"/>
      <point x="124" y="203"/>
      <point x="78" y="296" type="curve"/>
      <point x="86" y="272" type="line"/>
      <point x="153" y="311"/>
      <point x="217" y="364"/>
      <point x="217" y="482" type="curve" smooth="yes"/>
      <point x="217" y="527"/>
      <point x="206" y="583"/>
      <point x="193" y="608" type="curve"/>
    </contour>
  </outline>
</glyph>
<glyph name="ladeva" format="2">
  <advance width="460"/>
  <unicode hex="0932"/>
  <outline>
    <contour>
      <point x="0" y="596" type="line"/>
      <point x="357" y="596" type="line"/>
      <point x="357" y="416" type="line"/>
      <point x="375" y="412" type="line"/>
      <point x="375" y="422" type="line"/>
      <point x="369" y="425"/>
      <point x="356" y="429"/>
      <point x="340" y="429" type="curve" smooth="yes"/>
      <point x="270" y="429"/>
      <point x="222" y="373"/>
      <point x="197" y="235" type="curve"/>
      <point x="223" y="229" type="line"/>
      <point x="250" y="369"/>
      <point x="289" y="403"/>
      <point x="339" y="403" type="curve" smooth="yes"/>
      <point x="354" y="403"/>
      <point x="363" y="400"/>
      <point x="372" y="396" type="curve"/>
      <point x="357" y="410" type="line"/>
      <point x="357" y="0" type="line"/>
      <point x="383" y="0" type="line"/>
      <point x="383" y="596" type="line"/>
      <point x="472" y="596" type="line"/>
      <point x="472" y="622" type="line"/>
      <point x="0" y="622" type="line"/>
    </contour>
    <contour>
      <point x="250" y="341" type="curve"/>
      <point x="262" y="365" type="line"/>
      <point x="231" y="401"/>
      <point x="196" y="428"/>
      <point x="148" y="428" type="curve" smooth="yes"/>
      <point x="101" y="428"/>
      <point x="44" y="396"/>
      <point x="44" y="303" type="curve" smooth="yes"/>
      <point x="44" y="207"/>
      <point x="99" y="119"/>
      <point x="200" y="-6" type="curve"/>
      <point x="221" y="8" type="line"/>
      <point x="128" y="123"/>
      <point x="71" y="211"/>
      <point x="71" y="300" type="curve" smooth="yes"/>
      <point x="71" y="357"/>
      <point x="94" y="402"/>
      <point x="147" y="402" type="curve" smooth="yes"/>
      <point x="185" y="402"/>
      <point x="216" y="381"/>
    </contour>
  </outline>
</glyph>
<glyph name="lladeva" format="2">
  <advance width="535"/>
  <unicode hex="0933"/>
  <outline>
    <contour>
      <point x="0" y="596" type="line"/>
      <point x="382" y="596" type="line"/>
      <point x="382" y="434" type="line"/>
      <point x="409" y="437" type="line"/>
      <point x="409" y="596" type="line"/>
      <point x="547" y="596" type="line"/>
      <point x="547" y="622" type="line"/>
      <point x="0" y="622" type="line"/>
    </contour>
    <contour>
      <point x="286" y="339" type="curve"/>
      <point x="296" y="365" type="line"/>
      <point x="254" y="423"/>
      <point x="214" y="450"/>
      <point x="165" y="450" type="curve" smooth="yes"/>
      <point x="90" y="450"/>
      <point x="44" y="380"/>
      <point x="44" y="266" type="curve" smooth="yes"/>
      <point x="44" y="136"/>
      <point x="93" y="92"/>
      <point x="152" y="92" type="curve" smooth="yes"/>
      <point x="199" y="92"/>
      <point x="240" y="115"/>
      <point x="265" y="208" type="curve" smooth="yes"/>
      <point x="295" y="322" type="line" smooth="yes"/>
      <point x="316" y="401"/>
      <point x="345" y="424"/>
      <point x="385" y="424" type="curve" smooth="yes"/>
      <point x="430" y="424"/>
      <point x="465" y="390"/>
      <point x="465" y="277" type="curve" smooth="yes"/>
      <point x="465" y="171"/>
      <point x="427" y="118"/>
      <point x="369" y="118" type="curve" smooth="yes"/>
      <point x="323" y="118"/>
      <point x="291" y="147"/>
      <point x="250" y="203" type="curve"/>
      <point x="240" y="177" type="line"/>
      <point x="282" y="119"/>
      <point x="322" y="92"/>
      <point x="371" y="92" type="curve" smooth="yes"/>
      <point x="446" y="92"/>
      <point x="492" y="162"/>
      <point x="492" y="276" type="curve" smooth="yes"/>
      <point x="492" y="406"/>
      <point x="443" y="450"/>
      <point x="384" y="450" type="curve" smooth="yes"/>
      <point x="336" y="450"/>
      <point x="295" y="424"/>
      <point x="270" y="330" type="curve" smooth="yes"/>
      <point x="241" y="220" type="line" smooth="yes"/>
      <point x="220" y="141"/>
      <point x="191" y="118"/>
      <point x="151" y="118" type="curve" smooth="yes"/>
      <point x="106" y="118"/>
      <point x="71" y="152"/>
      <point x="71" y="266" type="curve" smooth="yes"/>
      <point x="71" y="371"/>
      <point x="109" y="424"/>
      <point x="167" y="424" type="curve" smooth="yes"/>
      <point x="213" y="424"/>
      <point x="245" y="395"/>
    </contour>
  </outline>
</glyph>
<glyph name="vadeva" format="2">
  <advance width="378"/>
  <unicode hex="0935"/>
  <outline>
    <contour>
      <point x="390" y="596" type="line"/>
      <point x="390" y="622" type="line"/>
      <point x="0" y="622" type="line"/>
      <point x="0" y="596" type="line"/>
      <point x="275" y="596" type="line"/>
      <point x="275" y="250" type="line"/>
      <point x="283" y="267" type="line"/>
      <point x="248" y="208"/>
      <point x="214" y="185"/>
      <point x="165" y="185" type="curve" smooth="yes"/>
      <point x="109" y="185"/>
      <point x="71" y="219"/>
      <point x="71" y="313" type="curve" smooth="yes"/>
      <point x="71" y="407"/>
      <point x="112" y="449"/>
      <point x="176" y="449" type="curve" smooth="yes"/>
      <point x="201" y="449"/>
      <point x="221" y="446"/>
      <point x="238" y="441" type="curve"/>
      <point x="242" y="467" type="line"/>
      <point x="222" y="472"/>
      <point x="205" y="475"/>
      <point x="178" y="475" type="curve" smooth="yes"/>
      <point x="98" y="475"/>
      <point x="44" y="421"/>
      <point x="44" y="313" type="curve" smooth="yes"/>
      <point x="44" y="209"/>
      <point x="93" y="159"/>
      <point x="164" y="159" type="curve" smooth="yes"/>
      <point x="229" y="159"/>
      <point x="265" y="197"/>
      <point x="287" y="232" type="curve"/>
      <point x="275" y="241" type="line"/>
      <point x="275" y="0" type="line"/>
      <point x="301" y="0" type="line"/>
      <point x="301" y="596" type="line"/>
    </contour>
  </outline>
</glyph>
<glyph name="shadeva" format="2">
  <advance width="458"/>
  <unicode hex="0936"/>
  <outline>
    <contour>
      <point x="381" y="596" type="line"/>
      <point x="470" y="596" type="line"/>
      <point x="470" y="622" type="line"/>
      <point x="282" y="622" type="line"/>
      <point x="282" y="596" type="line"/>
      <point x="355" y="596" type="line"/>
      <point x="355" y="0" type="line"/>
      <point x="381" y="0" type="line"/>
    </contour>
    <contour>
      <point x="88" y="206" type="curve" smooth="yes"/>
      <point x="179" y="206"/>
      <point x="249" y="316"/>
      <point x="249" y="447" type="curve" smooth="yes"/>
      <point x="249" y="571"/>
      <point x="201" y="632"/>
      <point x="138" y="632" type="curve" smooth="yes"/>
      <point x="85" y="632"/>
      <point x="50" y="590"/>
      <point x="50" y="531" type="curve" smooth="yes"/>
      <point x="50" y="449"/>
      <point x="106" y="403"/>
      <point x="186" y="400" type="curve"/>
      <point x="191" y="426" type="line"/>
      <point x="94" y="428"/>
      <point x="77" y="491"/>
      <point x="77" y="529" type="curve" smooth="yes"/>
      <point x="77" y="572"/>
      <point x="96" y="606"/>
      <point x="136" y="606" type="curve" smooth="yes"/>
      <point x="192" y="606"/>
      <point x="222" y="547"/>
      <point x="222" y="448" type="curve" smooth="yes"/>
      <point x="222" y="327"/>
      <point x="165" y="242"/>
      <point x="97" y="231" type="curve"/>
      <point x="109" y="225" type="line"/>
      <point x="152" y="173"/>
      <point x="202" y="91"/>
      <point x="254" y="-2" type="curve"/>
      <point x="276" y="10" type="line"/>
      <point x="233" y="87"/>
      <point x="174" y="181"/>
      <point x="137" y="229" type="curve"/>
      <point x="134" y="237" type="line"/>
      <point x="114" y="258"/>
      <point x="96" y="275"/>
      <point x="66" y="275" type="curve" smooth="yes"/>
      <point x="47" y="275"/>
      <point x="32" y="263"/>
      <point x="32" y="244" type="curve" smooth="yes"/>
      <point x="32" y="223"/>
      <point x="47" y="206"/>
    </contour>
  </outline>
</glyph>
<glyph name="ssadeva" format="2">
  <advance width="403"/>
  <unicode hex="0937"/>
  <outline>
    <contour>
      <point x="415" y="622" type="line"/>
      <point x="0" y="622" type="line"/>
      <point x="0" y="596" type="line"/>
      <point x="71" y="596" type="line"/>
      <point x="71" y="363" type="line" smooth="yes"/>
      <point x="71" y="289"/>
      <point x="79" y="256"/>
      <point x="100" y="228" type="curve" smooth="yes"/>
      <point x="120" y="202"/>
      <point x="151" y="186"/>
      <point x="188" y="186" type="curve" smooth="yes"/>
      <point x="244" y="186"/>
      <point x="282" y="215"/>
      <point x="304" y="249" type="curve"/>
      <point x="300" y="253" type="line"/>
      <point x="300" y="0" type="line"/>
      <point x="326" y="0" type="line"/>
      <point x="326" y="596" type="line"/>
      <point x="415" y="596" type="line"/>
    </contour>
    <contour>
      <point x="299" y="596" type="line"/>
      <point x="299" y="263" type="line"/>
      <point x="291" y="268" type="line"/>
      <point x="264" y="235"/>
      <point x="239" y="212"/>
      <point x="189" y="212" type="curve" smooth="yes"/>
      <point x="160" y="212"/>
      <point x="138" y="223"/>
      <point x="123" y="241" type="curve" smooth="yes"/>
      <point x="105" y="263"/>
      <point x="97" y="293"/>
      <point x="97" y="359" type="curve" smooth="yes"/>
      <point x="97" y="596" type="line"/>
    </contour>
    <contour>
      <point x="86" y="592" type="line"/>
      <point x="294" y="245" type="line"/>
      <point x="310" y="265" type="line"/>
      <point x="105" y="609" type="line"/>
    </contour>
  </outline>
</glyph>
<glyph name="hadeva" format="2">
  <advance width="372"/>
  <unicode hex="0939"/>
  <outline>
    <contour>
      <point x="121" y="248" type="curve"/>
      <point x="143" y="263" type="line"/>
      <point x="121" y="283"/>
      <point x="89" y="320"/>
      <point x="89" y="367" type="curve" smooth="yes"/>
      <point x="89" y="390"/>
      <point x="94" y="406"/>
      <point x="105" y="418" type="curve" smooth="yes"/>
      <point x="119" y="432"/>
      <point x="137" y="438"/>
      <point x="177" y="438" type="curve" smooth="yes"/>
      <point x="295" y="438" type="line"/>
      <point x="295" y="596" type="line"/>
      <point x="384" y="596" type="line"/>
      <point x="384" y="622" type="line"/>
      <point x="0" y="622" type="line"/>
      <point x="0" y="596" type="line"/>
      <point x="269" y="596" type="line"/>
      <point x="269" y="464" type="line"/>
      <point x="183" y="464" type="line" smooth="yes"/>
      <point x="127" y="464"/>
      <point x="103" y="454"/>
      <point x="85" y="435" type="curve" smooth="yes"/>
      <point x="69" y="418"/>
      <point x="62" y="395"/>
      <point x="62" y="369" type="curve" smooth="yes"/>
      <point x="62" y="317"/>
      <point x="95" y="275"/>
    </contour>
    <contour>
      <point x="225" y="36" type="curve"/>
      <point x="241" y="15" type="line"/>
      <point x="292" y="48"/>
      <point x="326" y="86"/>
      <point x="326" y="158" type="curve" smooth="yes"/>
      <point x="326" y="224"/>
      <point x="291" y="293"/>
      <point x="200" y="293" type="curve" smooth="yes"/>
      <point x="120" y="293"/>
      <point x="55" y="233"/>
      <point x="55" y="137" type="curve" smooth="yes"/>
      <point x="55" y="57"/>
      <point x="98" y="-18"/>
      <point x="185" y="-123" type="curve"/>
      <point x="206" y="-108" type="line"/>
      <point x="105" y="17"/>
      <point x="82" y="69"/>
      <point x="82" y="137" type="curve" smooth="yes"/>
      <point x="82" y="211"/>
      <point x="127" y="267"/>
      <point x="199" y="267" type="curve" smooth="yes"/>
      <point x="271" y="267"/>
      <point x="299" y="218"/>
      <point x="299" y="156" type="curve" smooth="yes"/>
      <point x="299" y="96"/>
      <point x="270" y="62"/>
    </contour>
  </outline>
</glyph>
<glyph name="oevowelsigndeva" format="2">
  <unicode hex="093A"/>
  <outline>
    <contour>
      <point x="-103" y="615" type="line"/>
      <point x="-77" y="615" type="line"/>
      <point x="-77" y="805" type="line"/>
      <point x="-103" y="805" type="line"/>
    </contour>
  </outline>
</glyph>
<glyph name="nuktadeva" format="2">
  <unicode hex="093C"/>
  <outline>
    <contour>
      <point x="-234" y="-134" type="curve" smooth="yes"/>
      <point x="-234" y="-160"/>
      <point x="-220" y="-171"/>
      <point x="-206" y="-171" type="curve" smooth="yes"/>
      <point x="-189" y="-171"/>
      <point x="-177" y="-161"/>
      <point x="-177" y="-134" type="curve" smooth="yes"/>
      <point x="-177" y="-110"/>
      <point x="-188" y="-97"/>
      <point x="-205" y="-97" type="curve" smooth="yes"/>
      <point x="-221" y="-97"/>
      <point x="-234" y="-109"/>
    </contour>
  </outline>
</glyph>
<glyph name="avagrahadeva" format="2">
  <advance width="325"/>
  <unicode hex="093D"/>
  <outline>
    <contour>
      <point x="283" y="162" type="curve" smooth="yes"/>
      <point x="283" y="229"/>
      <point x="258" y="284"/>
      <point x="192" y="371" type="curve" smooth="yes"/>
      <point x="137" y="444"/>
      <point x="115" y="478"/>
      <point x="115" y="525" type="curve" smooth="yes"/>
      <point x="115" y="547"/>
      <point x="119" y="562"/>
      <point x="133" y="576" type="curve" smooth="yes"/>
      <point x="149" y="591"/>
      <point x="167" y="596"/>
      <point x="196" y="596" type="curve" smooth="yes"/>
      <point x="270" y="596" type="line"/>
      <point x="270" y="622" type="line"/>
      <point x="208" y="622" type="line" smooth="yes"/>
      <point x="163" y="622"/>
      <point x="135" y="614"/>
      <point x="115" y="595" type="curve" smooth="yes"/>
      <point x="97" y="578"/>
      <point x="88" y="557"/>
      <point x="88" y="527" type="curve" smooth="yes"/>
      <point x="88" y="478"/>
      <point x="106" y="440"/>
      <point x="166" y="362" type="curve" smooth="yes"/>
      <point x="229" y="280"/>
      <point x="256" y="228"/>
      <point x="256" y="166" type="curve" smooth="yes"/>
      <point x="256" y="102"/>
      <point x="223" y="73"/>
      <point x="178" y="73" type="curve" smooth="yes"/>
      <point x="121" y="73"/>
      <point x="76" y="117"/>
      <point x="44" y="215" type="curve"/>
      <point x="18" y="207" type="line"/>
      <point x="64" y="78"/>
      <point x="119" y="47"/>
      <point x="180" y="47" type="curve" smooth="yes"/>
      <point x="235" y="47"/>
      <point x="283" y="88"/>
    </contour>
  </outline>
</glyph>
<glyph name="aavowelsigndeva" format="2">
  <advance width="179"/>
  <unicode hex="093E"/>
  <outline>
    <contour>
      <point x="102" y="596" type="line"/>
      <point x="191" y="596" type="line"/>
      <point x="191" y="622" type="line"/>
      <point x="0" y="622" type="line"/>
      <point x="0" y="596" type="line"/>
      <point x="76" y="596" type="line"/>
      <point x="76" y="0" type="line"/>
      <point x="102" y="0" type="line"/>
    </contour>
  </outline>
</glyph>
<glyph name="iivowelsigndeva" format="2">
  <advance width="179"/>
  <unicode hex="0940"/>
  <outline>
    <contour>
      <point x="-107" y="615" type="curve"/>
      <point x="-81" y="615" type="line"/>
      <point x="-100" y="666"/>
      <point x="-112" y="708"/>
      <point x="-112" y="769" type="curve" smooth="yes"/>
      <point x="-112" y="827"/>
      <point x="-93" y="870"/>
      <point x="-45" y="870" type="curve" smooth="yes"/>
      <point x="7" y="870"/>
      <point x="42" y="819"/>
      <point x="75" y="622" type="curve"/>
      <point x="0" y="622" type="line"/>
      <point x="0" y="596" type="line"/>
      <point x="76" y="596" type="line"/>
      <point x="76" y="0" type="line"/>
      <point x="102" y="0" type="line"/>
      <point x="102" y="596" type="line"/>
      <point x="191" y="596" type="line"/>
      <point x="191" y="622" type="line"/>
      <point x="101" y="622" type="line"/>
      <point x="68" y="811"/>
      <point x="36" y="896"/>
      <point x="-47" y="896" type="curve" smooth="yes"/>
      <point x="-109" y="896"/>
      <point x="-139" y="839"/>
      <point x="-139" y="771" type="curve" smooth="yes"/>
      <point x="-139" y="708"/>
      <point x="-124" y="659"/>
    </contour>
  </outline>
</glyph>
<glyph name="uvowelsigndeva" format="2">
  <unicode hex="0941"/>
  <outline>
    <contour>
      <point x="-176" y="-14" type="curve"/>
      <point x="-166" y="-38" type="line"/>
      <point x="-146" y="-28"/>
      <point x="-124" y="-23"/>
      <point x="-100" y="-23" type="curve" smooth="yes"/>
      <point x="-58" y="-23"/>
      <point x="-15" y="-50"/>
      <point x="-15" y="-124" type="curve" smooth="yes"/>
      <point x="-15" y="-190"/>
      <point x="-47" y="-229"/>
      <point x="-115" y="-229" type="curve" smooth="yes"/>
      <point x="-188" y="-229"/>
      <point x="-241" y="-174"/>
      <point x="-289" y="-88" type="curve"/>
      <point x="-312" y="-101" type="line"/>
      <point x="-258" y="-196"/>
      <point x="-200" y="-255"/>
      <point x="-112" y="-255" type="curve" smooth="yes"/>
      <point x="-30" y="-255"/>
      <point x="11" y="-199"/>
      <point x="11" y="-127" type="curve" smooth="yes"/>
      <point x="11" y="-44"/>
      <point x="-35" y="3"/>
      <point x="-101" y="3" type="curve" smooth="yes"/>
      <point x="-132" y="3"/>
      <point x="-154" y="-5"/>
    </contour>
  </outline>
</glyph>
<glyph name="uuvowelsigndeva" format="2">
  <unicode hex="0942"/>
  <outline>
    <contour>
      <point x="-29" y="-238" type="curve"/>
      <point x="-39" y="-214" type="line"/>
      <point x="-59" y="-224"/>
      <point x="-81" y="-229"/>
      <point x="-105" y="-229" type="curve" smooth="yes"/>
      <point x="-149" y="-229"/>
      <point x="-190" y="-202"/>
      <point x="-190" y="-126" type="curve" smooth="yes"/>
      <point x="-190" y="-63"/>
      <point x="-157" y="-23"/>
      <point x="-91" y="-23" type="curve" smooth="yes"/>
      <point x="-24" y="-23"/>
      <point x="24" y="-79"/>
      <point x="78" y="-201" type="curve"/>
      <point x="102" y="-191" type="line"/>
      <point x="56" y="-89"/>
      <point x="2" y="3"/>
      <point x="-94" y="3" type="curve" smooth="yes"/>
      <point x="-172" y="3"/>
      <point x="-216" y="-52"/>
      <point x="-216" y="-127" type="curve" smooth="yes"/>
      <point x="-216" y="-208"/>
      <point x="-171" y="-255"/>
      <point x="-104" y="-255" type="curve" smooth="yes"/>
      <point x="-73" y="-255"/>
      <point x="-51" y="-247"/>
    </contour>
  </outline>
</glyph>
<glyph name="rvocalicvowelsigndeva" format="2">
  <unicode hex="0943"/>
  <outline>
    <contour>
      <point x="11" y="-228" type="curve"/>
      <point x="0" y="-204" type="line"/>
      <point x="-32" y="-223"/>
      <point x="-55" y="-229"/>
      <point x="-85" y="-229" type="curve" smooth="yes"/>
      <point x="-131" y="-229"/>
      <point x="-175" y="-205"/>
      <point x="-175" y="-130" type="curve" smooth="yes"/>
      <point x="-175" y="-69"/>
      <point x="-136" y="-31"/>
      <point x="-74" y="-15" type="curve"/>
      <point x="-78" y="10" type="line"/>
      <point x="-154" y="-8"/>
      <point x="-201" y="-58"/>
      <point x="-201" y="-129" type="curve" smooth="yes"/>
      <point x="-201" y="-211"/>
      <point x="-152" y="-255"/>
      <point x="-83" y="-255" type="curve" smooth="yes"/>
      <point x="-52" y="-255"/>
      <point x="-20" y="-247"/>
    </contour>
  </outline>
</glyph>
<glyph name="rrvocalicvowelsigndeva" format="2">
  <unicode hex="0944"/>
  <outline>
    <contour>
      <point x="11" y="-189" type="curve"/>
      <point x="0" y="-165" type="line"/>
      <point x="-32" y="-184"/>
      <point x="-55" y="-190"/>
      <point x="-86" y="-190" type="curve" smooth="yes"/>
      <point x="-133" y="-190"/>
      <point x="-175" y="-175"/>
      <point x="-175" y="-115" type="curve" smooth="yes"/>
      <point x="-175" y="-61"/>
      <point x="-133" y="-28"/>
      <point x="-74" y="-15" type="curve"/>
      <point x="-78" y="10" type="line"/>
      <point x="-158" y="-6"/>
      <point x="-201" y="-54"/>
      <point x="-201" y="-114" type="curve" smooth="yes"/>
      <point x="-201" y="-180"/>
      <point x="-158" y="-216"/>
      <point x="-85" y="-216" type="curve" smooth="yes"/>
      <point x="-52" y="-216"/>
      <point x="-20" y="-208"/>
    </contour>
    <contour>
      <point x="42" y="-342" type="curve"/>
      <point x="31" y="-318" type="line"/>
      <point x="-1" y="-337"/>
      <point x="-24" y="-343"/>
      <point x="-55" y="-343" type="curve" smooth="yes"/>
      <point x="-102" y="-343"/>
      <point x="-144" y="-328"/>
      <point x="-144" y="-268" type="curve" smooth="yes"/>
      <point x="-144" y="-239"/>
      <point x="-133" y="-217"/>
      <point x="-114" y="-199" type="curve"/>
      <point x="-136" y="-186" type="line"/>
      <point x="-156" y="-208"/>
      <point x="-170" y="-233"/>
      <point x="-170" y="-267" type="curve" smooth="yes"/>
      <point x="-170" y="-333"/>
      <point x="-127" y="-369"/>
      <point x="-53" y="-369" type="curve" smooth="yes"/>
      <point x="-21" y="-369"/>
      <point x="11" y="-361"/>
    </contour>
  </outline>
</glyph>
<glyph name="ecandravowelsigndeva" format="2">
  <unicode hex="0945"/>
  <outline>
    <contour>
      <point x="37" y="872" type="curve"/>
      <point x="11" y="878" type="line"/>
      <point x="-5" y="780"/>
      <point x="-32" y="732"/>
      <point x="-93" y="732" type="curve" smooth="yes"/>
      <point x="-153" y="732"/>
      <point x="-187" y="786"/>
      <point x="-206" y="878" type="curve"/>
      <point x="-232" y="871" type="line"/>
      <point x="-209" y="766"/>
      <point x="-163" y="706"/>
      <point x="-92" y="706" type="curve" smooth="yes"/>
      <point x="-20" y="706"/>
      <point x="22" y="766"/>
    </contour>
  </outline>
</glyph>
<glyph name="eshortvowelsigndeva" format="2">
  <unicode hex="0946"/>
  <outline>
    <contour>
      <point x="-104" y="614" type="curve"/>
      <point x="-78" y="614" type="line"/>
      <point x="-102" y="769"/>
      <point x="-126" y="793"/>
      <point x="-172" y="793" type="curve" smooth="yes"/>
      <point x="-185" y="793"/>
      <point x="-202" y="789"/>
      <point x="-217" y="789" type="curve" smooth="yes"/>
      <point x="-260" y="789"/>
      <point x="-272" y="817"/>
      <point x="-289" y="896" type="curve"/>
      <point x="-314" y="891" type="line"/>
      <point x="-292" y="781"/>
      <point x="-262" y="763"/>
      <point x="-217" y="763" type="curve" smooth="yes"/>
      <point x="-202" y="763"/>
      <point x="-188" y="767"/>
      <point x="-170" y="767" type="curve" smooth="yes"/>
      <point x="-135" y="767"/>
      <point x="-124" y="731"/>
    </contour>
  </outline>
</glyph>
<glyph name="evowelsigndeva" format="2">
  <unicode hex="0947"/>
  <outline>
    <contour>
      <point x="-105" y="615" type="curve"/>
      <point x="-79" y="615" type="line"/>
      <point x="-118" y="836"/>
      <point x="-153" y="896"/>
      <point x="-231" y="896" type="curve" smooth="yes"/>
      <point x="-255" y="896"/>
      <point x="-275" y="891"/>
      <point x="-288" y="886" type="curve"/>
      <point x="-280" y="860" type="line"/>
      <point x="-265" y="866"/>
      <point x="-248" y="870"/>
      <point x="-228" y="870" type="curve" smooth="yes"/>
      <point x="-168" y="870"/>
      <point x="-139" y="803"/>
    </contour>
  </outline>
</glyph>
<glyph name="viramadeva" format="2">
  <unicode hex="094D"/>
  <outline>
    <contour>
      <point x="-110" y="-54" type="curve"/>
      <point x="-107" y="-79" type="line"/>
      <point x="-99" y="-78"/>
      <point x="-92" y="-77"/>
      <point x="-85" y="-77" type="curve" smooth="yes"/>
      <point x="-18" y="-77"/>
      <point x="25" y="-128"/>
      <point x="79" y="-250" type="curve"/>
      <point x="103" y="-240" type="line"/>
      <point x="57" y="-138"/>
      <point x="7" y="-51"/>
      <point x="-82" y="-51" type="curve" smooth="yes"/>
      <point x="-94" y="-51"/>
      <point x="-103" y="-52"/>
    </contour>
  </outline>
</glyph>
<glyph name="uni094E" format="2">
  <advance width="188"/>
  <unicode hex="094E"/>
  <outline>
    <contour>
      <point x="111" y="596" type="line"/>
      <point x="200" y="596" type="line"/>
      <point x="200" y="622" type="line"/>
      <point x="85" y="622" type="line"/>
      <point x="85" y="0" type="line"/>
      <point x="111" y="0" type="line"/>
    </contour>
  </outline>
</glyph>
<glyph name="omdeva" format="2">
  <advance width="596"/>
  <unicode hex="0950"/>
  <outline>
    <contour>
      <point x="227" y="391" type="curve"/>
      <point x="217" y="377" type="line"/>
      <point x="238" y="357"/>
      <point x="257" y="325"/>
      <point x="295" y="325" type="curve" smooth="yes"/>
      <point x="330" y="325"/>
      <point x="348" y="341"/>
      <point x="369" y="390" type="curve" smooth="yes"/>
      <point x="394" y="449" type="line" smooth="yes"/>
      <point x="415" y="498"/>
      <point x="429" y="521"/>
      <point x="463" y="521" type="curve" smooth="yes"/>
      <point x="498" y="521"/>
      <point x="524" y="480"/>
      <point x="524" y="388" type="curve" smooth="yes"/>
      <point x="524" y="292"/>
      <point x="499" y="253"/>
      <point x="448" y="253" type="curve" smooth="yes"/>
      <point x="416" y="253"/>
      <point x="386" y="275"/>
      <point x="364" y="303" type="curve"/>
      <point x="346" y="284" type="line"/>
      <point x="379" y="245"/>
      <point x="414" y="227"/>
      <point x="448" y="227" type="curve" smooth="yes"/>
      <point x="515" y="227"/>
      <point x="551" y="278"/>
      <point x="551" y="388" type="curve" smooth="yes"/>
      <point x="551" y="508"/>
      <point x="505" y="547"/>
      <point x="463" y="547" type="curve" smooth="yes"/>
      <point x="421" y="547"/>
      <point x="398" y="522"/>
      <point x="373" y="465" type="curve" smooth="yes"/>
      <point x="344" y="399" type="line" smooth="yes"/>
      <point x="329" y="365"/>
      <point x="317" y="350"/>
      <point x="291" y="350" type="curve" smooth="yes"/>
      <point x="261" y="350"/>
      <point x="249" y="363"/>
    </contour>
    <contour>
      <point x="80" y="604" type="curve"/>
      <point x="90" y="579" type="line"/>
      <point x="124" y="597"/>
      <point x="156" y="606"/>
      <point x="188" y="606" type="curve" smooth="yes"/>
      <point x="250" y="606"/>
      <point x="279" y="569"/>
      <point x="279" y="504" type="curve" smooth="yes"/>
      <point x="279" y="440"/>
      <point x="245" y="398"/>
      <point x="163" y="388" type="curve"/>
      <point x="165" y="363" type="line"/>
      <point x="254" y="374"/>
      <point x="306" y="421"/>
      <point x="306" y="503" type="curve" smooth="yes"/>
      <point x="306" y="584"/>
      <point x="260" y="632"/>
      <point x="190" y="632" type="curve" smooth="yes"/>
      <point x="151" y="632"/>
      <point x="117" y="622"/>
    </contour>
    <contour>
      <point x="308" y="201" type="curve" smooth="yes"/>
      <point x="308" y="270"/>
      <point x="283" y="322"/>
      <point x="245" y="357" type="curve"/>
      <point x="225" y="388" type="line"/>
      <point x="200" y="379" type="line"/>
      <point x="243" y="338"/>
      <point x="281" y="279"/>
      <point x="281" y="205" type="curve" smooth="yes"/>
      <point x="281" y="145"/>
      <point x="254" y="121"/>
      <point x="211" y="121" type="curve" smooth="yes"/>
      <point x="137" y="121"/>
      <point x="93" y="185"/>
      <point x="47" y="357" type="curve"/>
      <point x="21" y="350" type="line"/>
      <point x="74" y="157"/>
      <point x="125" y="95"/>
      <point x="214" y="95" type="curve" smooth="yes"/>
      <point x="262" y="95"/>
      <point x="308" y="126"/>
    </contour>
    <contour>
      <point x="328" y="818" type="curve" smooth="yes"/>
      <point x="328" y="792"/>
      <point x="341" y="781"/>
      <point x="355" y="781" type="curve" smooth="yes"/>
      <point x="372" y="781"/>
      <point x="383" y="791"/>
      <point x="383" y="818" type="curve" smooth="yes"/>
      <point x="383" y="842"/>
      <point x="373" y="855"/>
      <point x="356" y="855" type="curve" smooth="yes"/>
      <point x="340" y="855"/>
      <point x="328" y="843"/>
    </contour>
    <contour>
      <point x="487" y="832" type="curve"/>
      <point x="461" y="838" type="line"/>
      <point x="445" y="740"/>
      <point x="418" y="692"/>
      <point x="357" y="692" type="curve" smooth="yes"/>
      <point x="297" y="692"/>
      <point x="263" y="746"/>
      <point x="244" y="838" type="curve"/>
      <point x="218" y="831" type="line"/>
      <point x="241" y="726"/>
      <point x="287" y="666"/>
      <point x="358" y="666" type="curve" smooth="yes"/>
      <point x="430" y="666"/>
      <point x="472" y="726"/>
    </contour>
  </outline>
</glyph>
<glyph name="udattadeva" format="2">
  <unicode hex="0951"/>
  <outline>
    <contour>
      <point x="-77" y="672" type="line"/>
      <point x="-77" y="872" type="line"/>
      <point x="-103" y="872" type="line"/>
      <point x="-103" y="672" type="line"/>
    </contour>
  </outline>
</glyph>
<glyph name="anudattadeva" format="2">
  <unicode hex="0952"/>
  <outline>
    <contour>
      <point x="-304" y="-99" type="line"/>
      <point x="-304" y="-125" type="line"/>
      <point x="-76" y="-125" type="line"/>
      <point x="-76" y="-99" type="line"/>
    </contour>
  </outline>
</glyph>
<glyph name="uni0954" format="2">
  <unicode hex="0954"/>
  <outline>
    <contour>
      <point x="-19" y="871" type="line"/>
      <point x="-52" y="871" type="line"/>
      <point x="-119" y="683" type="line"/>
      <point x="-93" y="683" type="line"/>
    </contour>
  </outline>
</glyph>
<glyph name="candralongevowelsigndeva" format="2">
  <unicode hex="0955"/>
  <outline>
    <contour>
      <point x="-194" y="711" type="line"/>
      <point x="-194" y="685" type="line"/>
      <point x="4" y="685" type="line"/>
      <point x="4" y="711" type="line"/>
    </contour>
    <contour>
      <point x="21" y="889" type="curve"/>
      <point x="-5" y="896" type="line"/>
      <point x="-20" y="820"/>
      <point x="-47" y="789"/>
      <point x="-96" y="789" type="curve" smooth="yes"/>
      <point x="-144" y="789"/>
      <point x="-171" y="820"/>
      <point x="-194" y="896" type="curve"/>
      <point x="-219" y="888" type="line"/>
      <point x="-192" y="806"/>
      <point x="-159" y="763"/>
      <point x="-96" y="763" type="curve" smooth="yes"/>
      <point x="-32" y="763"/>
      <point x="4" y="806"/>
    </contour>
  </outline>
</glyph>
<glyph name="uevowelsigndeva" format="2">
  <unicode hex="0956"/>
  <outline>
    <contour>
      <point x="-215" y="-158" type="curve" smooth="yes"/>
      <point x="-155" y="-158"/>
      <point x="-111" y="-139"/>
      <point x="-82" y="-113" type="curve"/>
      <point x="-90" y="-88" type="line"/>
      <point x="-122" y="-117"/>
      <point x="-157" y="-132"/>
      <point x="-215" y="-132" type="curve" smooth="yes"/>
      <point x="-273" y="-132"/>
      <point x="-308" y="-117"/>
      <point x="-340" y="-88" type="curve"/>
      <point x="-348" y="-113" type="line"/>
      <point x="-319" y="-139"/>
      <point x="-275" y="-158"/>
    </contour>
  </outline>
</glyph>
<glyph name="uuevowelsigndeva" format="2">
  <unicode hex="0957"/>
  <outline>
    <contour>
      <point x="-215" y="-131" type="curve" smooth="yes"/>
      <point x="-155" y="-131"/>
      <point x="-111" y="-112"/>
      <point x="-82" y="-86" type="curve"/>
      <point x="-90" y="-61" type="line"/>
      <point x="-122" y="-90"/>
      <point x="-157" y="-105"/>
      <point x="-215" y="-105" type="curve" smooth="yes"/>
      <point x="-273" y="-105"/>
      <point x="-308" y="-90"/>
      <point x="-340" y="-61" type="curve"/>
      <point x="-348" y="-86" type="line"/>
      <point x="-319" y="-112"/>
      <point x="-275" y="-131"/>
    </contour>
    <contour>
      <point x="-215" y="-250" type="curve" smooth="yes"/>
      <point x="-155" y="-250"/>
      <point x="-111" y="-231"/>
      <point x="-82" y="-205" type="curve"/>
      <point x="-90" y="-180" type="line"/>
      <point x="-122" y="-209"/>
      <point x="-157" y="-224"/>
      <point x="-215" y="-224" type="curve" smooth="yes"/>
      <point x="-273" y="-224"/>
      <point x="-308" y="-209"/>
      <point x="-340" y="-180" type="curve"/>
      <point x="-348" y="-205" type="line"/>
      <point x="-319" y="-231"/>
      <point x="-275" y="-250"/>
    </contour>
  </outline>
</glyph>
<glyph name="rrvocalicdeva" format="2">
  <advance width="589"/>
  <unicode hex="0960"/>
  <outline>
    <contour>
      <point x="302" y="596" type="line"/>
      <point x="601" y="596" type="line"/>
      <point x="601" y="622" type="line"/>
      <point x="0" y="622" type="line"/>
      <point x="0" y="596" type="line"/>
      <point x="276" y="596" type="line"/>
      <point x="276" y="0" type="line"/>
      <point x="302" y="0" type="line"/>
    </contour>
    <contour>
      <point x="21" y="425" type="curve"/>
      <point x="33" y="402" type="line"/>
      <point x="66" y="420"/>
      <point x="91" y="429"/>
      <point x="119" y="429" type="curve" smooth="yes"/>
      <point x="171" y="429"/>
      <point x="192" y="410"/>
      <point x="269" y="284" type="curve"/>
      <point x="284" y="282" type="line"/>
      <point x="289" y="296" type="line"/>
      <point x="209" y="431"/>
      <point x="181" y="455"/>
      <point x="119" y="455" type="curve" smooth="yes"/>
      <point x="90" y="455"/>
      <point x="59" y="445"/>
    </contour>
    <contour>
      <point x="86" y="107" type="line"/>
      <point x="283" y="288" type="line"/>
      <point x="273" y="311" type="line"/>
      <point x="67" y="127" type="line"/>
    </contour>
    <contour>
      <point x="288" y="325" type="curve"/>
      <point x="296" y="299" type="line"/>
      <point x="335" y="299"/>
      <point x="386" y="307"/>
      <point x="424" y="322" type="curve"/>
      <point x="435" y="294"/>
      <point x="456" y="246"/>
      <point x="470" y="222" type="curve"/>
      <point x="483" y="220" type="line"/>
      <point x="489" y="240" type="line"/>
      <point x="474" y="268"/>
      <point x="459" y="297"/>
      <point x="447" y="330" type="curve"/>
      <point x="471" y="338"/>
      <point x="486" y="352"/>
      <point x="486" y="379" type="curve" smooth="yes"/>
      <point x="486" y="405"/>
      <point x="471" y="428"/>
      <point x="446" y="428" type="curve" smooth="yes"/>
      <point x="422" y="428"/>
      <point x="409" y="409"/>
      <point x="409" y="387" type="curve" smooth="yes"/>
      <point x="409" y="370"/>
      <point x="412" y="354"/>
      <point x="420" y="337" type="curve"/>
      <point x="427" y="352" type="line"/>
      <point x="390" y="336"/>
      <point x="338" y="325"/>
    </contour>
    <contour>
      <point x="588" y="51" type="curve"/>
      <point x="577" y="75" type="line"/>
      <point x="545" y="56"/>
      <point x="522" y="50"/>
      <point x="491" y="50" type="curve" smooth="yes"/>
      <point x="444" y="50"/>
      <point x="402" y="65"/>
      <point x="402" y="125" type="curve" smooth="yes"/>
      <point x="402" y="176"/>
      <point x="439" y="205"/>
      <point x="483" y="220" type="curve"/>
      <point x="476" y="244" type="line"/>
      <point x="411" y="224"/>
      <point x="376" y="180"/>
      <point x="376" y="126" type="curve" smooth="yes"/>
      <point x="376" y="60"/>
      <point x="419" y="24"/>
      <point x="492" y="24" type="curve" smooth="yes"/>
      <point x="525" y="24"/>
      <point x="557" y="32"/>
    </contour>
    <contour>
      <point x="619" y="-102" type="curve"/>
      <point x="608" y="-78" type="line"/>
      <point x="576" y="-97"/>
      <point x="553" y="-103"/>
      <point x="522" y="-103" type="curve" smooth="yes"/>
      <point x="475" y="-103"/>
      <point x="433" y="-88"/>
      <point x="433" y="-28" type="curve" smooth="yes"/>
      <point x="433" y="1"/>
      <point x="444" y="23"/>
      <point x="463" y="41" type="curve"/>
      <point x="441" y="54" type="line"/>
      <point x="421" y="32"/>
      <point x="407" y="7"/>
      <point x="407" y="-27" type="curve" smooth="yes"/>
      <point x="407" y="-93"/>
      <point x="450" y="-129"/>
      <point x="524" y="-129" type="curve" smooth="yes"/>
      <point x="556" y="-129"/>
      <point x="588" y="-121"/>
    </contour>
  </outline>
</glyph>
<glyph name="llvocalicdeva" format="2">
  <advance width="478"/>
  <unicode hex="0961"/>
  <outline>
    <contour>
      <point x="518" y="-125" type="curve"/>
      <point x="507" y="-101" type="line"/>
      <point x="475" y="-120"/>
      <point x="452" y="-126"/>
      <point x="421" y="-126" type="curve" smooth="yes"/>
      <point x="374" y="-126"/>
      <point x="332" y="-111"/>
      <point x="332" y="-51" type="curve" smooth="yes"/>
      <point x="332" y="-22"/>
      <point x="343" y="0"/>
      <point x="362" y="18" type="curve"/>
      <point x="340" y="31" type="line"/>
      <point x="320" y="9"/>
      <point x="306" y="-16"/>
      <point x="306" y="-50" type="curve" smooth="yes"/>
      <point x="306" y="-116"/>
      <point x="349" y="-152"/>
      <point x="423" y="-152" type="curve" smooth="yes"/>
      <point x="455" y="-152"/>
      <point x="487" y="-144"/>
    </contour>
    <contour>
      <point x="487" y="28" type="curve"/>
      <point x="476" y="52" type="line"/>
      <point x="444" y="33"/>
      <point x="421" y="27"/>
      <point x="390" y="27" type="curve" smooth="yes"/>
      <point x="343" y="27"/>
      <point x="301" y="42"/>
      <point x="301" y="102" type="curve" smooth="yes"/>
      <point x="301" y="160"/>
      <point x="348" y="194"/>
      <point x="420" y="206" type="curve"/>
      <point x="411" y="229" type="line"/>
      <point x="325" y="217"/>
      <point x="275" y="168"/>
      <point x="275" y="103" type="curve" smooth="yes"/>
      <point x="275" y="37"/>
      <point x="318" y="1"/>
      <point x="391" y="1" type="curve" smooth="yes"/>
      <point x="424" y="1"/>
      <point x="456" y="9"/>
    </contour>
    <contour>
      <point x="432" y="305" type="curve" smooth="yes"/>
      <point x="432" y="391"/>
      <point x="390" y="429"/>
      <point x="341" y="429" type="curve" smooth="yes"/>
      <point x="270" y="429"/>
      <point x="222" y="373"/>
      <point x="197" y="235" type="curve"/>
      <point x="223" y="229" type="line"/>
      <point x="250" y="369"/>
      <point x="289" y="403"/>
      <point x="340" y="403" type="curve" smooth="yes"/>
      <point x="380" y="403"/>
      <point x="406" y="372"/>
      <point x="406" y="303" type="curve" smooth="yes"/>
      <point x="406" y="271"/>
      <point x="401" y="240"/>
      <point x="395" y="213" type="curve"/>
      <point x="420" y="206" type="line"/>
      <point x="427" y="234"/>
      <point x="432" y="270"/>
    </contour>
    <contour>
      <point x="148" y="428" type="curve" smooth="yes"/>
      <point x="101" y="428"/>
      <point x="44" y="396"/>
      <point x="44" y="303" type="curve" smooth="yes"/>
      <point x="44" y="207"/>
      <point x="99" y="119"/>
      <point x="200" y="-6" type="curve"/>
      <point x="221" y="8" type="line"/>
      <point x="128" y="123"/>
      <point x="71" y="211"/>
      <point x="71" y="300" type="curve" smooth="yes"/>
      <point x="71" y="357"/>
      <point x="94" y="402"/>
      <point x="147" y="402" type="curve" smooth="yes"/>
      <point x="185" y="402"/>
      <point x="216" y="381"/>
      <point x="250" y="341" type="curve"/>
      <point x="262" y="365" type="line"/>
      <point x="231" y="401"/>
      <point x="196" y="428"/>
    </contour>
    <contour>
      <point x="333" y="596" type="line"/>
      <point x="333" y="420" type="line"/>
      <point x="359" y="408" type="line"/>
      <point x="359" y="596" type="line"/>
      <point x="490" y="596" type="line"/>
      <point x="490" y="622" type="line"/>
      <point x="0" y="622" type="line"/>
      <point x="0" y="596" type="line"/>
    </contour>
  </outline>
</glyph>
<glyph name="lvocalicvowelsigndeva" format="2">
  <unicode hex="0962"/>
  <outline>
    <contour>
      <point x="-156" y="-72" type="curve"/>
      <point x="-140" y="-51" type="line"/>
      <point x="-174" y="-16"/>
      <point x="-200" y="0"/>
      <point x="-234" y="0" type="curve" smooth="yes"/>
      <point x="-285" y="0"/>
      <point x="-321" y="-41"/>
      <point x="-321" y="-100" type="curve" smooth="yes"/>
      <point x="-321" y="-175"/>
      <point x="-280" y="-229"/>
      <point x="-209" y="-315" type="curve"/>
      <point x="-188" y="-299" type="line"/>
      <point x="-260" y="-215"/>
      <point x="-295" y="-167"/>
      <point x="-295" y="-101" type="curve" smooth="yes"/>
      <point x="-295" y="-62"/>
      <point x="-276" y="-26"/>
      <point x="-232" y="-26" type="curve" smooth="yes"/>
      <point x="-201" y="-26"/>
      <point x="-179" y="-47"/>
    </contour>
    <contour>
      <point x="-81" y="0" type="curve" smooth="yes"/>
      <point x="-138" y="0"/>
      <point x="-179" y="-49"/>
      <point x="-200" y="-152" type="curve"/>
      <point x="-174" y="-158" type="line"/>
      <point x="-153" y="-60"/>
      <point x="-124" y="-26"/>
      <point x="-82" y="-26" type="curve" smooth="yes"/>
      <point x="-55" y="-26"/>
      <point x="-34" y="-48"/>
      <point x="-34" y="-99" type="curve" smooth="yes"/>
      <point x="-34" y="-129"/>
      <point x="-40" y="-159"/>
      <point x="-51" y="-186" type="curve"/>
      <point x="-27" y="-172" type="line"/>
      <point x="-89" y="-186"/>
      <point x="-136" y="-234"/>
      <point x="-136" y="-290" type="curve" smooth="yes"/>
      <point x="-136" y="-360"/>
      <point x="-91" y="-394"/>
      <point x="-39" y="-394" type="curve" smooth="yes"/>
      <point x="-17" y="-394"/>
      <point x="6" y="-390"/>
      <point x="27" y="-378" type="curve"/>
      <point x="18" y="-353" type="line"/>
      <point x="-2" y="-364"/>
      <point x="-19" y="-368"/>
      <point x="-39" y="-368" type="curve" smooth="yes"/>
      <point x="-78" y="-368"/>
      <point x="-110" y="-344"/>
      <point x="-110" y="-292" type="curve" smooth="yes"/>
      <point x="-110" y="-241"/>
      <point x="-70" y="-211"/>
      <point x="-26" y="-195" type="curve"/>
      <point x="-16" y="-170"/>
      <point x="-8" y="-135"/>
      <point x="-8" y="-100" type="curve" smooth="yes"/>
      <point x="-8" y="-31"/>
      <point x="-42" y="0"/>
    </contour>
  </outline>
</glyph>
<glyph name="llvocalicvowelsigndeva" format="2">
  <unicode hex="0963"/>
  <outline>
    <contour>
      <point x="-10" y="-271" type="curve" smooth="yes"/>
      <point x="12" y="-271"/>
      <point x="37" y="-266"/>
      <point x="54" y="-256" type="curve"/>
      <point x="45" y="-231" type="line"/>
      <point x="29" y="-240"/>
      <point x="12" y="-245"/>
      <point x="-10" y="-245" type="curve" smooth="yes"/>
      <point x="-44" y="-245"/>
      <point x="-70" y="-228"/>
      <point x="-70" y="-184" type="curve" smooth="yes"/>
      <point x="-70" y="-149"/>
      <point x="-47" y="-121"/>
      <point x="-9" y="-114" type="curve"/>
      <point x="-8" y="-111"/>
      <point x="-8" y="-106"/>
      <point x="-8" y="-100" type="curve" smooth="yes"/>
      <point x="-8" y="-31"/>
      <point x="-42" y="0"/>
      <point x="-81" y="0" type="curve" smooth="yes"/>
      <point x="-138" y="0"/>
      <point x="-179" y="-49"/>
      <point x="-200" y="-152" type="curve"/>
      <point x="-174" y="-158" type="line"/>
      <point x="-153" y="-60"/>
      <point x="-124" y="-26"/>
      <point x="-82" y="-26" type="curve" smooth="yes"/>
      <point x="-55" y="-26"/>
      <point x="-34" y="-48"/>
      <point x="-34" y="-99" type="curve"/>
      <point x="-23" y="-92" type="line"/>
      <point x="-69" y="-104"/>
      <point x="-96" y="-142"/>
      <point x="-96" y="-184" type="curve" smooth="yes"/>
      <point x="-96" y="-239"/>
      <point x="-60" y="-271"/>
    </contour>
    <contour>
      <point x="-234" y="0" type="curve" smooth="yes"/>
      <point x="-285" y="0"/>
      <point x="-321" y="-41"/>
      <point x="-321" y="-100" type="curve" smooth="yes"/>
      <point x="-321" y="-175"/>
      <point x="-280" y="-229"/>
      <point x="-209" y="-315" type="curve"/>
      <point x="-188" y="-299" type="line"/>
      <point x="-260" y="-215"/>
      <point x="-295" y="-167"/>
      <point x="-295" y="-101" type="curve" smooth="yes"/>
      <point x="-295" y="-62"/>
      <point x="-275" y="-26"/>
      <point x="-232" y="-26" type="curve" smooth="yes"/>
      <point x="-201" y="-26"/>
      <point x="-179" y="-47"/>
      <point x="-156" y="-72" type="curve"/>
      <point x="-140" y="-51" type="line"/>
      <point x="-174" y="-16"/>
      <point x="-200" y="0"/>
    </contour>
    <contour>
      <point x="15" y="-394" type="curve" smooth="yes"/>
      <point x="37" y="-394"/>
      <point x="62" y="-389"/>
      <point x="79" y="-379" type="curve"/>
      <point x="70" y="-354" type="line"/>
      <point x="54" y="-363"/>
      <point x="37" y="-368"/>
      <point x="15" y="-368" type="curve" smooth="yes"/>
      <point x="-19" y="-368"/>
      <point x="-45" y="-351"/>
      <point x="-45" y="-307" type="curve" smooth="yes"/>
      <point x="-45" y="-288"/>
      <point x="-38" y="-272"/>
      <point x="-28" y="-261" type="curve"/>
      <point x="-52" y="-251" type="line"/>
      <point x="-63" y="-264"/>
      <point x="-71" y="-285"/>
      <point x="-71" y="-307" type="curve" smooth="yes"/>
      <point x="-71" y="-362"/>
      <point x="-35" y="-394"/>
    </contour>
  </outline>
</glyph>
<glyph name="dbldandadeva" format="2">
  <advance width="480"/>
  <unicode hex="0965"/>
  <outline>
    <contour>
      <point x="347" y="622" type="line"/>
      <point x="347" y="0" type="line"/>
      <point x="374" y="0" type="line"/>
      <point x="374" y="622" type="line"/>
    </contour>
    <contour>
      <point x="185" y="622" type="line"/>
      <point x="185" y="0" type="line"/>
      <point x="211" y="0" type="line"/>
      <point x="211" y="622" type="line"/>
    </contour>
  </outline>
</glyph>
<glyph name="zerodeva" format="2">
  <advance width="411"/>
  <unicode hex="0966"/>
  <outline>
    <contour>
      <point x="206" y="135" type="curve" smooth="yes"/>
      <point x="298" y="135"/>
      <point x="359" y="213"/>
      <point x="359" y="320" type="curve" smooth="yes"/>
      <point x="359" y="430"/>
      <point x="300" y="506"/>
      <point x="206" y="506" type="curve" smooth="yes"/>
      <point x="114" y="506"/>
      <point x="53" y="428"/>
      <point x="53" y="320" type="curve" smooth="yes"/>
      <point x="53" y="211"/>
      <point x="112" y="135"/>
    </contour>
    <contour>
      <point x="205" y="161" type="curve" smooth="yes"/>
      <point x="125" y="161"/>
      <point x="80" y="225"/>
      <point x="80" y="320" type="curve" smooth="yes"/>
      <point x="80" y="415"/>
      <point x="129" y="480"/>
      <point x="208" y="480" type="curve" smooth="yes"/>
      <point x="287" y="480"/>
      <point x="332" y="416"/>
      <point x="332" y="320" type="curve" smooth="yes"/>
      <point x="332" y="226"/>
      <point x="283" y="161"/>
    </contour>
  </outline>
</glyph>
<glyph name="onedeva" format="2">
  <advance width="411"/>
  <unicode hex="0967"/>
  <outline>
    <contour>
      <point x="203" y="632" type="curve" smooth="yes"/>
      <point x="143" y="632"/>
      <point x="99" y="585"/>
      <point x="99" y="525" type="curve" smooth="yes"/>
      <point x="99" y="463"/>
      <point x="137" y="430"/>
      <point x="192" y="402" type="curve"/>
      <point x="206" y="424" type="line"/>
      <point x="157" y="448"/>
      <point x="126" y="476"/>
      <point x="126" y="523" type="curve" smooth="yes"/>
      <point x="126" y="573"/>
      <point x="156" y="606"/>
      <point x="204" y="606" type="curve" smooth="yes"/>
      <point x="251" y="606"/>
      <point x="285" y="573"/>
      <point x="285" y="512" type="curve" smooth="yes"/>
      <point x="285" y="419"/>
      <point x="206" y="352"/>
      <point x="107" y="265" type="curve"/>
      <point x="106" y="257" type="line"/>
      <point x="234" y="128" type="line" smooth="yes"/>
      <point x="273" y="89"/>
      <point x="284" y="63"/>
      <point x="284" y="32" type="curve" smooth="yes"/>
      <point x="284" y="-2"/>
      <point x="273" y="-23"/>
      <point x="253" y="-51" type="curve"/>
      <point x="275" y="-66" type="line"/>
      <point x="301" y="-30"/>
      <point x="311" y="0"/>
      <point x="311" y="29" type="curve" smooth="yes"/>
      <point x="311" y="78"/>
      <point x="288" y="110"/>
      <point x="251" y="147" type="curve" smooth="yes"/>
      <point x="130" y="269" type="line"/>
      <point x="132" y="253" type="line"/>
      <point x="257" y="359"/>
      <point x="312" y="426"/>
      <point x="312" y="511" type="curve" smooth="yes"/>
      <point x="312" y="588"/>
      <point x="268" y="632"/>
    </contour>
  </outline>
</glyph>
<glyph name="twodeva" format="2">
  <advance width="411"/>
  <unicode hex="0968"/>
  <outline>
    <contour>
      <point x="158" y="256" type="curve"/>
      <point x="161" y="245" type="line"/>
      <point x="208" y="198"/>
      <point x="276" y="105"/>
      <point x="350" y="-13" type="curve"/>
      <point x="372" y="0" type="line"/>
      <point x="301" y="112"/>
      <point x="235" y="199"/>
      <point x="190" y="252" type="curve"/>
      <point x="187" y="260" type="line"/>
      <point x="164" y="284"/>
      <point x="146" y="298"/>
      <point x="119" y="298" type="curve" smooth="yes"/>
      <point x="100" y="298"/>
      <point x="85" y="286"/>
      <point x="85" y="267" type="curve" smooth="yes"/>
      <point x="85" y="247"/>
      <point x="100" y="229"/>
      <point x="137" y="229" type="curve" smooth="yes"/>
      <point x="247" y="229"/>
      <point x="333" y="316"/>
      <point x="333" y="452" type="curve" smooth="yes"/>
      <point x="333" y="566"/>
      <point x="268" y="632"/>
      <point x="183" y="632" type="curve" smooth="yes"/>
      <point x="142" y="632"/>
      <point x="104" y="623"/>
      <point x="63" y="602" type="curve"/>
      <point x="73" y="576" type="line"/>
      <point x="110" y="600"/>
      <point x="148" y="606"/>
      <point x="183" y="606" type="curve" smooth="yes"/>
      <point x="258" y="606"/>
      <point x="306" y="551"/>
      <point x="306" y="451" type="curve" smooth="yes"/>
      <point x="306" y="330"/>
      <point x="240" y="267"/>
    </contour>
  </outline>
</glyph>
<glyph name="threedeva" format="2">
  <advance width="411"/>
  <unicode hex="0969"/>
  <outline>
    <contour>
      <point x="173" y="119" type="curve"/>
      <point x="168" y="110" type="line"/>
      <point x="217" y="58"/>
      <point x="249" y="13"/>
      <point x="303" y="-67" type="curve"/>
      <point x="325" y="-54" type="line"/>
      <point x="277" y="16"/>
      <point x="230" y="78"/>
      <point x="197" y="113" type="curve"/>
      <point x="198" y="118" type="line"/>
      <point x="171" y="149"/>
      <point x="154" y="163"/>
      <point x="127" y="163" type="curve" smooth="yes"/>
      <point x="106" y="163"/>
      <point x="91" y="152"/>
      <point x="91" y="132" type="curve" smooth="yes"/>
      <point x="91" y="115"/>
      <point x="102" y="94"/>
      <point x="152" y="94" type="curve" smooth="yes"/>
      <point x="276" y="94"/>
      <point x="339" y="154"/>
      <point x="339" y="245" type="curve" smooth="yes"/>
      <point x="339" y="330"/>
      <point x="288" y="378"/>
      <point x="214" y="390" type="curve"/>
      <point x="197" y="371" type="line"/>
      <point x="267" y="363"/>
      <point x="312" y="319"/>
      <point x="312" y="246" type="curve" smooth="yes"/>
      <point x="312" y="179"/>
      <point x="273" y="126"/>
    </contour>
    <contour>
      <point x="61" y="603" type="curve"/>
      <point x="71" y="578" type="line"/>
      <point x="111" y="599"/>
      <point x="144" y="606"/>
      <point x="177" y="606" type="curve" smooth="yes"/>
      <point x="244" y="606"/>
      <point x="282" y="568"/>
      <point x="282" y="504" type="curve" smooth="yes"/>
      <point x="282" y="435"/>
      <point x="238" y="393"/>
      <point x="138" y="387" type="curve"/>
      <point x="140" y="361" type="line"/>
      <point x="182" y="365"/>
      <point x="201" y="372"/>
      <point x="221" y="380" type="curve"/>
      <point x="227" y="384" type="line"/>
      <point x="270" y="403"/>
      <point x="309" y="436"/>
      <point x="309" y="503" type="curve" smooth="yes"/>
      <point x="309" y="582"/>
      <point x="256" y="632"/>
      <point x="179" y="632" type="curve" smooth="yes"/>
      <point x="141" y="632"/>
      <point x="100" y="623"/>
    </contour>
  </outline>
</glyph>
<glyph name="fourdeva" format="2">
  <advance width="411"/>
  <unicode hex="096A"/>
  <outline>
    <contour>
      <point x="191" y="318" type="curve"/>
      <point x="203" y="308" type="line"/>
      <point x="282" y="216"/>
      <point x="296" y="175"/>
      <point x="296" y="122" type="curve" smooth="yes"/>
      <point x="296" y="59"/>
      <point x="264" y="24"/>
      <point x="204" y="24" type="curve" smooth="yes"/>
      <point x="147" y="24"/>
      <point x="113" y="59"/>
      <point x="113" y="126" type="curve" smooth="yes"/>
      <point x="113" y="178"/>
      <point x="132" y="220"/>
      <point x="208" y="308" type="curve"/>
      <point x="220" y="317" type="line"/>
      <point x="352" y="466"/>
      <point x="375" y="507"/>
      <point x="375" y="570" type="curve" smooth="yes"/>
      <point x="375" y="594"/>
      <point x="371" y="613"/>
      <point x="365" y="632" type="curve"/>
      <point x="338" y="627" type="line"/>
      <point x="344" y="610"/>
      <point x="348" y="588"/>
      <point x="348" y="570" type="curve" smooth="yes"/>
      <point x="348" y="517"/>
      <point x="328" y="479"/>
      <point x="201" y="335" type="curve"/>
      <point x="192" y="326" type="line"/>
      <point x="99" y="224"/>
      <point x="86" y="177"/>
      <point x="86" y="126" type="curve" smooth="yes"/>
      <point x="86" y="43"/>
      <point x="136" y="-2"/>
      <point x="205" y="-2" type="curve" smooth="yes"/>
      <point x="276" y="-2"/>
      <point x="323" y="43"/>
      <point x="323" y="122" type="curve" smooth="yes"/>
      <point x="323" y="176"/>
      <point x="313" y="221"/>
      <point x="219" y="327" type="curve"/>
      <point x="208" y="336" type="line"/>
      <point x="91" y="468"/>
      <point x="67" y="508"/>
      <point x="67" y="570" type="curve" smooth="yes"/>
      <point x="67" y="588"/>
      <point x="72" y="610"/>
      <point x="77" y="627" type="curve"/>
      <point x="50" y="632" type="line"/>
      <point x="45" y="611"/>
      <point x="40" y="595"/>
      <point x="40" y="570" type="curve" smooth="yes"/>
      <point x="40" y="511"/>
      <point x="56" y="465"/>
    </contour>
  </outline>
</glyph>
<glyph name="fivedeva" format="2">
  <advance width="411"/>
  <unicode hex="096B"/>
  <outline>
    <contour>
      <point x="385" y="-67" type="curve"/>
      <point x="410" y="-57" type="line"/>
      <point x="369" y="33"/>
      <point x="321" y="160"/>
      <point x="300" y="239" type="curve"/>
      <point x="297" y="255" type="line"/>
      <point x="274" y="247"/>
      <point x="254" y="245"/>
      <point x="239" y="245" type="curve" smooth="yes"/>
      <point x="139" y="245"/>
      <point x="81" y="311"/>
      <point x="81" y="414" type="curve" smooth="yes"/>
      <point x="81" y="489"/>
      <point x="99" y="542"/>
      <point x="136" y="623" type="curve"/>
      <point x="110" y="632" type="line"/>
      <point x="77" y="561"/>
      <point x="54" y="492"/>
      <point x="54" y="419" type="curve" smooth="yes"/>
      <point x="54" y="280"/>
      <point x="142" y="219"/>
      <point x="235" y="219" type="curve" smooth="yes"/>
      <point x="298" y="219"/>
      <point x="346" y="232"/>
      <point x="346" y="282" type="curve" smooth="yes"/>
      <point x="346" y="311"/>
      <point x="328" y="331"/>
      <point x="302" y="331" type="curve" smooth="yes"/>
      <point x="280" y="331"/>
      <point x="265" y="314"/>
      <point x="265" y="286" type="curve" smooth="yes"/>
      <point x="265" y="272"/>
      <point x="267" y="254"/>
      <point x="276" y="230" type="curve"/>
      <point x="297" y="154"/>
      <point x="344" y="31"/>
    </contour>
  </outline>
</glyph>
<glyph name="sixdeva" format="2">
  <advance width="411"/>
  <unicode hex="096C"/>
  <outline>
    <contour>
      <point x="368" y="-67" type="curve"/>
      <point x="393" y="-57" type="line"/>
      <point x="363" y="5"/>
      <point x="335" y="78"/>
      <point x="320" y="125" type="curve"/>
      <point x="328" y="145" type="line"/>
      <point x="298" y="136"/>
      <point x="279" y="132"/>
      <point x="247" y="132" type="curve" smooth="yes"/>
      <point x="162" y="132"/>
      <point x="111" y="180"/>
      <point x="111" y="260" type="curve" smooth="yes"/>
      <point x="111" y="328"/>
      <point x="148" y="372"/>
      <point x="224" y="372" type="curve" smooth="yes"/>
      <point x="239" y="372"/>
      <point x="254" y="370"/>
      <point x="266" y="368" type="curve"/>
      <point x="269" y="394" type="line"/>
      <point x="258" y="396"/>
      <point x="242" y="398"/>
      <point x="225" y="398" type="curve" smooth="yes"/>
      <point x="195" y="398"/>
      <point x="172" y="393"/>
      <point x="150" y="382" type="curve"/>
      <point x="143" y="376" type="line"/>
      <point x="115" y="360"/>
      <point x="84" y="322"/>
      <point x="84" y="260" type="curve" smooth="yes"/>
      <point x="84" y="180"/>
      <point x="135" y="106"/>
      <point x="246" y="106" type="curve" smooth="yes"/>
      <point x="324" y="106"/>
      <point x="366" y="125"/>
      <point x="366" y="169" type="curve" smooth="yes"/>
      <point x="366" y="198"/>
      <point x="348" y="218"/>
      <point x="322" y="218" type="curve" smooth="yes"/>
      <point x="298" y="218"/>
      <point x="285" y="200"/>
      <point x="285" y="173" type="curve" smooth="yes"/>
      <point x="285" y="161"/>
      <point x="289" y="139"/>
      <point x="295" y="124" type="curve"/>
      <point x="296" y="118" type="line"/>
      <point x="313" y="64"/>
      <point x="340" y="-6"/>
    </contour>
    <contour>
      <point x="157" y="363" type="curve"/>
      <point x="180" y="376" type="line"/>
      <point x="131" y="401"/>
      <point x="88" y="440"/>
      <point x="88" y="503" type="curve" smooth="yes"/>
      <point x="88" y="566"/>
      <point x="122" y="606"/>
      <point x="195" y="606" type="curve" smooth="yes"/>
      <point x="223" y="606"/>
      <point x="247" y="603"/>
      <point x="275" y="594" type="curve"/>
      <point x="278" y="621" type="line"/>
      <point x="256" y="627"/>
      <point x="223" y="632"/>
      <point x="193" y="632" type="curve" smooth="yes"/>
      <point x="116" y="632"/>
      <point x="61" y="587"/>
      <point x="61" y="503" type="curve" smooth="yes"/>
      <point x="61" y="435"/>
      <point x="105" y="389"/>
    </contour>
  </outline>
</glyph>
<glyph name="sevendeva" format="2">
  <advance width="411"/>
  <unicode hex="096D"/>
  <outline>
    <contour>
      <point x="373" y="272" type="curve" smooth="yes"/>
      <point x="373" y="415"/>
      <point x="324" y="534"/>
      <point x="239" y="534" type="curve" smooth="yes"/>
      <point x="185" y="534"/>
      <point x="151" y="492"/>
      <point x="151" y="436" type="curve" smooth="yes"/>
      <point x="151" y="359"/>
      <point x="202" y="304"/>
      <point x="298" y="298" type="curve"/>
      <point x="302" y="324" type="line"/>
      <point x="214" y="329"/>
      <point x="178" y="376"/>
      <point x="178" y="435" type="curve" smooth="yes"/>
      <point x="178" y="470"/>
      <point x="194" y="508"/>
      <point x="238" y="508" type="curve" smooth="yes"/>
      <point x="309" y="508"/>
      <point x="346" y="388"/>
      <point x="346" y="273" type="curve" smooth="yes"/>
      <point x="346" y="140"/>
      <point x="314" y="76"/>
      <point x="246" y="76" type="curve" smooth="yes"/>
      <point x="128" y="76"/>
      <point x="78" y="284"/>
      <point x="58" y="589" type="curve"/>
      <point x="31" y="585" type="line"/>
      <point x="55" y="208"/>
      <point x="125" y="50"/>
      <point x="246" y="50" type="curve" smooth="yes"/>
      <point x="315" y="50"/>
      <point x="373" y="98"/>
    </contour>
  </outline>
</glyph>
<glyph name="eightdeva" format="2">
  <advance width="411"/>
  <unicode hex="096E"/>
  <outline>
    <contour>
      <point x="208" y="0" type="curve" smooth="yes"/>
      <point x="279" y="0"/>
      <point x="333" y="22"/>
      <point x="383" y="53" type="curve"/>
      <point x="373" y="79" type="line"/>
      <point x="319" y="45"/>
      <point x="274" y="26"/>
      <point x="207" y="26" type="curve" smooth="yes"/>
      <point x="142" y="26"/>
      <point x="90" y="59"/>
      <point x="90" y="144" type="curve" smooth="yes"/>
      <point x="90" y="194"/>
      <point x="110" y="237"/>
      <point x="149" y="301" type="curve" smooth="yes"/>
      <point x="340" y="616" type="line"/>
      <point x="317" y="632" type="line"/>
      <point x="132" y="325" type="line" smooth="yes"/>
      <point x="88" y="253"/>
      <point x="63" y="205"/>
      <point x="63" y="144" type="curve" smooth="yes"/>
      <point x="63" y="47"/>
      <point x="127" y="0"/>
    </contour>
  </outline>
</glyph>
<glyph name="ninedeva" format="2">
  <advance width="411"/>
  <unicode hex="096F"/>
  <outline>
    <contour>
      <point x="52" y="479" type="curve" smooth="yes"/>
      <point x="52" y="414"/>
      <point x="69" y="379"/>
      <point x="115" y="332" type="curve" smooth="yes"/>
      <point x="315" y="128" type="line" smooth="yes"/>
      <point x="354" y="89"/>
      <point x="365" y="63"/>
      <point x="365" y="32" type="curve" smooth="yes"/>
      <point x="365" y="-2"/>
      <point x="354" y="-23"/>
      <point x="334" y="-51" type="curve"/>
      <point x="356" y="-66" type="line"/>
      <point x="382" y="-30"/>
      <point x="392" y="0"/>
      <point x="392" y="29" type="curve" smooth="yes"/>
      <point x="392" y="78"/>
      <point x="369" y="110"/>
      <point x="332" y="147" type="curve" smooth="yes"/>
      <point x="192" y="290" type="line" smooth="yes"/>
      <point x="161" y="322"/>
      <point x="131" y="347"/>
      <point x="115" y="361" type="curve"/>
      <point x="122" y="346" type="line"/>
      <point x="133" y="336"/>
      <point x="155" y="329"/>
      <point x="170" y="329" type="curve" smooth="yes"/>
      <point x="244" y="329"/>
      <point x="298" y="382"/>
      <point x="298" y="480" type="curve" smooth="yes"/>
      <point x="298" y="578"/>
      <point x="245" y="632"/>
      <point x="175" y="632" type="curve" smooth="yes"/>
      <point x="98" y="632"/>
      <point x="52" y="566"/>
    </contour>
    <contour>
      <point x="79" y="480" type="curve" smooth="yes"/>
      <point x="79" y="558"/>
      <point x="116" y="606"/>
      <point x="177" y="606" type="curve" smooth="yes"/>
      <point x="238" y="606"/>
      <point x="271" y="557"/>
      <point x="271" y="481" type="curve" smooth="yes"/>
      <point x="271" y="397"/>
      <point x="230" y="355"/>
      <point x="174" y="355" type="curve" smooth="yes"/>
      <point x="116" y="355"/>
      <point x="79" y="395"/>
    </contour>
  </outline>
</glyph>
<glyph name="abbreviationsigndeva" format="2">
  <advance width="290"/>
  <unicode hex="0970"/>
  <outline>
    <contour>
      <point x="145" y="319" type="curve" smooth="yes"/>
      <point x="208" y="319"/>
      <point x="239" y="374"/>
      <point x="239" y="439" type="curve" smooth="yes"/>
      <point x="239" y="507"/>
      <point x="206" y="558"/>
      <point x="145" y="558" type="curve" smooth="yes"/>
      <point x="81" y="558"/>
      <point x="50" y="503"/>
      <point x="50" y="439" type="curve" smooth="yes"/>
      <point x="50" y="370"/>
      <point x="83" y="319"/>
    </contour>
    <contour>
      <point x="145" y="345" type="curve" smooth="yes"/>
      <point x="99" y="345"/>
      <point x="76" y="381"/>
      <point x="76" y="439" type="curve" smooth="yes"/>
      <point x="76" y="492"/>
      <point x="96" y="532"/>
      <point x="145" y="532" type="curve" smooth="yes"/>
      <point x="190" y="532"/>
      <point x="213" y="495"/>
      <point x="213" y="439" type="curve" smooth="yes"/>
      <point x="213" y="385"/>
      <point x="193" y="345"/>
    </contour>
  </outline>
</glyph>
<glyph name="uni0971" format="2">
  <advance width="204"/>
  <unicode hex="0971"/>
  <outline>
    <contour>
      <point x="75" y="612" type="curve" smooth="yes"/>
      <point x="75" y="585"/>
      <point x="90" y="573"/>
      <point x="105" y="573" type="curve" smooth="yes"/>
      <point x="123" y="573"/>
      <point x="136" y="584"/>
      <point x="136" y="612" type="curve" smooth="yes"/>
      <point x="136" y="637"/>
      <point x="124" y="651"/>
      <point x="106" y="651" type="curve" smooth="yes"/>
      <point x="89" y="651"/>
      <point x="75" y="638"/>
    </contour>
  </outline>
</glyph>
<glyph name="marwariddadeva" format="2">
  <advance width="381"/>
  <unicode hex="0978"/>
  <outline>
    <contour>
      <point x="125" y="596" type="line"/>
      <point x="393" y="596" type="line"/>
      <point x="393" y="622" type="line"/>
      <point x="0" y="622" type="line"/>
      <point x="0" y="596" type="line"/>
      <point x="99" y="596" type="line"/>
      <point x="99" y="397" type="line"/>
      <point x="103" y="390" type="line"/>
      <point x="135" y="404"/>
      <point x="164" y="409"/>
      <point x="196" y="409" type="curve" smooth="yes"/>
      <point x="284" y="409"/>
      <point x="312" y="337"/>
      <point x="312" y="261" type="curve" smooth="yes"/>
      <point x="312" y="176"/>
      <point x="289" y="112"/>
      <point x="262" y="55" type="curve"/>
      <point x="287" y="43" type="line"/>
      <point x="315" y="105"/>
      <point x="338" y="173"/>
      <point x="338" y="264" type="curve" smooth="yes"/>
      <point x="338" y="358"/>
      <point x="294" y="435"/>
      <point x="196" y="435" type="curve" smooth="yes"/>
      <point x="174" y="435"/>
      <point x="138" y="431"/>
      <point x="117" y="423" type="curve"/>
      <point x="110" y="422" type="line"/>
      <point x="52" y="404"/>
      <point x="46" y="392"/>
      <point x="46" y="369" type="curve" smooth="yes"/>
      <point x="46" y="336"/>
      <point x="74" y="295"/>
      <point x="103" y="295" type="curve" smooth="yes"/>
      <point x="116" y="295"/>
      <point x="125" y="303"/>
      <point x="125" y="326" type="curve" smooth="yes"/>
    </contour>
  </outline>
</glyph>
<glyph name="zhadeva" format="2">
  <advance width="501"/>
  <unicode hex="0979"/>
  <outline>
    <contour>
      <point x="424" y="596" type="line"/>
      <point x="506" y="596" type="line"/>
      <point x="506" y="622" type="line"/>
      <point x="0" y="622" type="line"/>
      <point x="0" y="596" type="line"/>
      <point x="398" y="596" type="line"/>
      <point x="398" y="457" type="line"/>
      <point x="186" y="457" type="line"/>
      <point x="173" y="435" type="line"/>
      <point x="229" y="381"/>
      <point x="274" y="314"/>
      <point x="274" y="235" type="curve" smooth="yes"/>
      <point x="274" y="183"/>
      <point x="252" y="158"/>
      <point x="210" y="158" type="curve" smooth="yes"/>
      <point x="141" y="158"/>
      <point x="94" y="227"/>
      <point x="47" y="422" type="curve"/>
      <point x="21" y="415" type="line"/>
      <point x="78" y="185"/>
      <point x="135" y="132"/>
      <point x="214" y="132" type="curve" smooth="yes"/>
      <point x="257" y="132"/>
      <point x="300" y="160"/>
      <point x="300" y="232" type="curve" smooth="yes"/>
      <point x="300" y="314"/>
      <point x="262" y="379"/>
      <point x="203" y="438" type="curve"/>
      <point x="198" y="433" type="line"/>
      <point x="215" y="431"/>
      <point x="239" y="431"/>
      <point x="262" y="431" type="curve" smooth="yes"/>
      <point x="398" y="431" type="line"/>
      <point x="398" y="0" type="line"/>
      <point x="424" y="0" type="line"/>
    </contour>
    <contour>
      <point x="174" y="-33" type="curve" smooth="yes"/>
      <point x="174" y="-55"/>
      <point x="186" y="-66"/>
      <point x="199" y="-66" type="curve" smooth="yes"/>
      <point x="213" y="-66"/>
      <point x="224" y="-57"/>
      <point x="224" y="-33" type="curve" smooth="yes"/>
      <point x="224" y="-12"/>
      <point x="215" y="0"/>
      <point x="200" y="0" type="curve" smooth="yes"/>
      <point x="185" y="0"/>
      <point x="174" y="-11"/>
    </contour>
    <contour>
      <point x="235" y="57" type="curve" smooth="yes"/>
      <point x="235" y="35"/>
      <point x="247" y="24"/>
      <point x="260" y="24" type="curve" smooth="yes"/>
      <point x="274" y="24"/>
      <point x="285" y="33"/>
      <point x="285" y="57" type="curve" smooth="yes"/>
      <point x="285" y="78"/>
      <point x="276" y="90"/>
      <point x="261" y="90" type="curve" smooth="yes"/>
      <point x="246" y="90"/>
      <point x="235" y="79"/>
    </contour>
    <contour>
      <point x="113" y="57" type="curve" smooth="yes"/>
      <point x="113" y="35"/>
      <point x="125" y="24"/>
      <point x="138" y="24" type="curve" smooth="yes"/>
      <point x="152" y="24"/>
      <point x="163" y="33"/>
      <point x="163" y="57" type="curve" smooth="yes"/>
      <point x="163" y="78"/>
      <point x="154" y="90"/>
      <point x="139" y="90" type="curve" smooth="yes"/>
      <point x="124" y="90"/>
      <point x="113" y="79"/>
    </contour>
  </outline>
</glyph>
<glyph name="heavyyadeva" format="2">
  <advance width="399"/>
  <unicode hex="097A"/>
  <outline>
    <contour>
      <point x="322" y="596" type="line"/>
      <point x="411" y="596" type="line"/>
      <point x="411" y="622" type="line"/>
      <point x="0" y="622" type="line"/>
      <point x="0" y="596" type="line"/>
      <point x="101" y="596" type="line"/>
      <point x="84" y="603" type="line"/>
      <point x="108" y="567"/>
      <point x="126" y="528"/>
      <point x="126" y="477" type="curve" smooth="yes"/>
      <point x="126" y="408"/>
      <point x="100" y="369"/>
      <point x="39" y="349" type="curve"/>
      <point x="61" y="215"/>
      <point x="107" y="163"/>
      <point x="186" y="163" type="curve" smooth="yes"/>
      <point x="251" y="163"/>
      <point x="286" y="200"/>
      <point x="309" y="236" type="curve"/>
      <point x="296" y="229" type="line"/>
      <point x="296" y="0" type="line"/>
      <point x="322" y="0" type="line"/>
    </contour>
    <contour>
      <point x="110" y="596" type="line"/>
      <point x="296" y="596" type="line"/>
      <point x="296" y="240" type="line"/>
      <point x="290" y="244" type="line"/>
      <point x="261" y="206"/>
      <point x="229" y="189"/>
      <point x="185" y="189" type="curve" smooth="yes"/>
      <point x="120" y="189"/>
      <point x="86" y="243"/>
      <point x="70" y="335" type="curve"/>
      <point x="65" y="328" type="line"/>
      <point x="120" y="353"/>
      <point x="151" y="393"/>
      <point x="152" y="476" type="curve"/>
      <point x="151" y="492" type="line"/>
      <point x="149" y="533"/>
      <point x="134" y="572"/>
      <point x="115" y="603" type="curve"/>
    </contour>
    <contour>
      <point x="309" y="244" type="line"/>
      <point x="139" y="529" type="line"/>
      <point x="128" y="508" type="line"/>
      <point x="144" y="477"/>
      <point x="160" y="444"/>
      <point x="183" y="407" type="curve" smooth="yes"/>
      <point x="294" y="222" type="line"/>
    </contour>
  </outline>
</glyph>
<glyph name="gabardeva" format="2">
  <advance width="385"/>
  <unicode hex="097B"/>
  <outline>
    <contour>
      <point x="125" y="596" type="line"/>
      <point x="282" y="596" type="line"/>
      <point x="282" y="0" type="line"/>
      <point x="308" y="0" type="line"/>
      <point x="308" y="596" type="line"/>
      <point x="397" y="596" type="line"/>
      <point x="397" y="622" type="line"/>
      <point x="0" y="622" type="line"/>
      <point x="0" y="596" type="line"/>
      <point x="99" y="596" type="line"/>
      <point x="99" y="352" type="line"/>
      <point x="81" y="352" type="line" smooth="yes"/>
      <point x="55" y="352"/>
      <point x="46" y="340"/>
      <point x="46" y="321" type="curve" smooth="yes"/>
      <point x="46" y="286"/>
      <point x="74" y="245"/>
      <point x="103" y="245" type="curve" smooth="yes"/>
      <point x="116" y="245"/>
      <point x="125" y="253"/>
      <point x="125" y="276" type="curve" smooth="yes"/>
    </contour>
    <contour>
      <point x="69" y="26" type="line"/>
      <point x="69" y="0" type="line"/>
      <point x="296" y="0" type="line"/>
      <point x="296" y="26" type="line"/>
    </contour>
  </outline>
</glyph>
<glyph name="jabardeva" format="2">
  <advance width="492"/>
  <unicode hex="097C"/>
  <outline>
    <contour>
      <point x="415" y="596" type="line"/>
      <point x="497" y="596" type="line"/>
      <point x="497" y="622" type="line"/>
      <point x="6" y="622" type="line"/>
      <point x="6" y="596" type="line"/>
      <point x="389" y="596" type="line"/>
      <point x="389" y="457" type="line"/>
      <point x="186" y="457" type="line"/>
      <point x="173" y="435" type="line"/>
      <point x="229" y="381"/>
      <point x="274" y="314"/>
      <point x="274" y="235" type="curve" smooth="yes"/>
      <point x="274" y="183"/>
      <point x="252" y="158"/>
      <point x="210" y="158" type="curve" smooth="yes"/>
      <point x="141" y="158"/>
      <point x="94" y="227"/>
      <point x="47" y="422" type="curve"/>
      <point x="21" y="415" type="line"/>
      <point x="78" y="185"/>
      <point x="135" y="132"/>
      <point x="214" y="132" type="curve" smooth="yes"/>
      <point x="257" y="132"/>
      <point x="300" y="160"/>
      <point x="300" y="232" type="curve" smooth="yes"/>
      <point x="300" y="314"/>
      <point x="262" y="379"/>
      <point x="203" y="438" type="curve"/>
      <point x="198" y="433" type="line"/>
      <point x="215" y="431"/>
      <point x="239" y="431"/>
      <point x="262" y="431" type="curve" smooth="yes"/>
      <point x="389" y="431" type="line"/>
      <point x="389" y="0" type="line"/>
      <point x="415" y="0" type="line"/>
    </contour>
    <contour>
      <point x="69" y="26" type="line"/>
      <point x="69" y="0" type="line"/>
      <point x="396" y="0" type="line"/>
      <point x="396" y="26" type="line"/>
    </contour>
  </outline>
</glyph>
<glyph name="uni097D" format="2">
  <advance width="319"/>
  <unicode hex="097D"/>
  <outline>
    <contour>
      <point x="146" y="632" type="curve" smooth="yes"/>
      <point x="102" y="632"/>
      <point x="68" y="619"/>
      <point x="34" y="604" type="curve"/>
      <point x="43" y="579" type="line"/>
      <point x="82" y="597"/>
      <point x="105" y="606"/>
      <point x="143" y="606" type="curve" smooth="yes"/>
      <point x="219" y="606"/>
      <point x="251" y="547"/>
      <point x="251" y="467" type="curve" smooth="yes"/>
      <point x="251" y="393"/>
      <point x="217" y="335"/>
      <point x="139" y="325" type="curve"/>
      <point x="139" y="0" type="line"/>
      <point x="165" y="0" type="line"/>
      <point x="165" y="302" type="line"/>
      <point x="234" y="321"/>
      <point x="278" y="373"/>
      <point x="278" y="467" type="curve" smooth="yes"/>
      <point x="278" y="568"/>
      <point x="231" y="632"/>
    </contour>
  </outline>
</glyph>
<glyph name="ddabardeva" format="2">
  <advance width="412"/>
  <unicode hex="097E"/>
  <outline>
    <contour>
      <point x="248" y="283" type="curve" smooth="yes"/>
      <point x="303" y="283"/>
      <point x="344" y="256"/>
      <point x="344" y="186" type="curve" smooth="yes"/>
      <point x="344" y="122"/>
      <point x="308" y="86"/>
      <point x="233" y="86" type="curve" smooth="yes"/>
      <point x="150" y="86"/>
      <point x="91" y="131"/>
      <point x="41" y="211" type="curve"/>
      <point x="18" y="197" type="line"/>
      <point x="76" y="108"/>
      <point x="140" y="60"/>
      <point x="234" y="60" type="curve" smooth="yes"/>
      <point x="327" y="60"/>
      <point x="371" y="110"/>
      <point x="371" y="186" type="curve" smooth="yes"/>
      <point x="371" y="259"/>
      <point x="326" y="309"/>
      <point x="247" y="309" type="curve" smooth="yes"/>
      <point x="219" y="309"/>
      <point x="196" y="304"/>
      <point x="172" y="296" type="curve"/>
      <point x="152" y="318"/>
      <point x="129" y="349"/>
      <point x="129" y="391" type="curve" smooth="yes"/>
      <point x="129" y="438"/>
      <point x="158" y="454"/>
      <point x="208" y="454" type="curve" smooth="yes"/>
      <point x="329" y="454" type="line"/>
      <point x="329" y="596" type="line"/>
      <point x="424" y="596" type="line"/>
      <point x="424" y="622" type="line"/>
      <point x="0" y="622" type="line"/>
      <point x="0" y="596" type="line"/>
      <point x="303" y="596" type="line"/>
      <point x="303" y="480" type="line"/>
      <point x="218" y="480" type="line" smooth="yes"/>
      <point x="166" y="480"/>
      <point x="141" y="471"/>
      <point x="121" y="448" type="curve" smooth="yes"/>
      <point x="107" y="431"/>
      <point x="102" y="412"/>
      <point x="102" y="394" type="curve" smooth="yes"/>
      <point x="102" y="339"/>
      <point x="135" y="299"/>
      <point x="165" y="267" type="curve"/>
      <point x="190" y="277"/>
      <point x="216" y="283"/>
    </contour>
    <contour>
      <point x="55" y="26" type="line"/>
      <point x="55" y="0" type="line"/>
      <point x="367" y="0" type="line"/>
      <point x="367" y="26" type="line"/>
    </contour>
  </outline>
</glyph>
<glyph name="babardeva" format="2">
  <advance width="386"/>
  <unicode hex="097F"/>
  <outline>
    <contour>
      <point x="398" y="596" type="line"/>
      <point x="398" y="622" type="line"/>
      <point x="0" y="622" type="line"/>
      <point x="0" y="596" type="line"/>
      <point x="283" y="596" type="line"/>
      <point x="283" y="259" type="line"/>
      <point x="289" y="277" type="line"/>
      <point x="255" y="217"/>
      <point x="218" y="194"/>
      <point x="169" y="194" type="curve" smooth="yes"/>
      <point x="109" y="194"/>
      <point x="71" y="228"/>
      <point x="71" y="322" type="curve" smooth="yes"/>
      <point x="71" y="417"/>
      <point x="111" y="458"/>
      <point x="180" y="458" type="curve" smooth="yes"/>
      <point x="209" y="458"/>
      <point x="229" y="455"/>
      <point x="246" y="450" type="curve"/>
      <point x="250" y="476" type="line"/>
      <point x="230" y="481"/>
      <point x="213" y="484"/>
      <point x="182" y="484" type="curve" smooth="yes"/>
      <point x="98" y="484"/>
      <point x="44" y="430"/>
      <point x="44" y="322" type="curve" smooth="yes"/>
      <point x="44" y="218"/>
      <point x="93" y="168"/>
      <point x="168" y="168" type="curve" smooth="yes"/>
      <point x="233" y="168"/>
      <point x="268" y="203"/>
      <point x="293" y="241" type="curve"/>
      <point x="283" y="250" type="line"/>
      <point x="283" y="0" type="line"/>
      <point x="309" y="0" type="line"/>
      <point x="309" y="596" type="line"/>
    </contour>
    <contour>
      <point x="116" y="455" type="line"/>
      <point x="93" y="444" type="line"/>
      <point x="240" y="202" type="line"/>
      <point x="255" y="224" type="line"/>
    </contour>
    <contour>
      <point x="69" y="26" type="line"/>
      <point x="69" y="0" type="line"/>
      <point x="292" y="0" type="line"/>
      <point x="292" y="26" type="line"/>
    </contour>
  </outline>
</glyph>
<glyph name="uni1CD0" format="2">
  <unicode hex="1CD0"/>
  <outline>
    <contour>
      <point x="-223" y="967" type="line"/>
      <point x="-199" y="958" type="line"/>
      <point x="-116" y="1188" type="line"/>
      <point x="-29" y="958" type="line"/>
      <point x="-6" y="967" type="line"/>
      <point x="-104" y="1222" type="line"/>
      <point x="-127" y="1222" type="line"/>
    </contour>
  </outline>
</glyph>
<glyph name="uni1CD1" format="2">
  <unicode hex="1CD1"/>
  <outline>
    <contour>
      <point x="-223" y="983" type="line"/>
      <point x="-199" y="974" type="line"/>
      <point x="-116" y="1204" type="line"/>
      <point x="-29" y="974" type="line"/>
      <point x="-6" y="983" type="line"/>
      <point x="-104" y="1238" type="line"/>
      <point x="-127" y="1238" type="line"/>
    </contour>
    <contour>
      <point x="-128" y="1110" type="line"/>
      <point x="-128" y="909" type="line"/>
      <point x="-102" y="909" type="line"/>
      <point x="-102" y="1110" type="line"/>
    </contour>
  </outline>
</glyph>
<glyph name="uni1CD2" format="2">
  <unicode hex="1CD2"/>
  <outline>
    <contour>
      <point x="-228" y="1038" type="line"/>
      <point x="-228" y="1012" type="line"/>
      <point x="0" y="1012" type="line"/>
      <point x="0" y="1038" type="line"/>
    </contour>
  </outline>
</glyph>
<glyph name="uni1CD3" format="2">
  <advance width="231"/>
  <unicode hex="1CD3"/>
  <outline>
    <contour>
      <point x="175" y="896" type="line"/>
      <point x="146" y="659" type="line"/>
      <point x="172" y="659" type="line"/>
      <point x="201" y="896" type="line"/>
    </contour>
    <contour>
      <point x="80" y="896" type="line"/>
      <point x="51" y="659" type="line"/>
      <point x="77" y="659" type="line"/>
      <point x="106" y="896" type="line"/>
    </contour>
  </outline>
</glyph>
<glyph name="uni1CD4" format="2">
  <unicode hex="1CD4"/>
  <outline>
    <contour>
      <point x="-183" y="322" type="line"/>
      <point x="-183" y="297" type="line"/>
      <point x="0" y="297" type="line"/>
      <point x="0" y="322" type="line"/>
    </contour>
  </outline>
</glyph>
<glyph name="uni1CD5" format="2">
  <unicode hex="1CD5"/>
  <outline>
    <contour>
      <point x="-162" y="-65" type="curve"/>
      <point x="-185" y="-65" type="line"/>
      <point x="-187" y="-148"/>
      <point x="-202" y="-183"/>
      <point x="-239" y="-183" type="curve" smooth="yes"/>
      <point x="-271" y="-183"/>
      <point x="-291" y="-158"/>
      <point x="-293" y="-64" type="curve"/>
      <point x="-319" y="-65" type="line"/>
      <point x="-316" y="-172"/>
      <point x="-288" y="-209"/>
      <point x="-240" y="-209" type="curve" smooth="yes"/>
      <point x="-195" y="-209"/>
      <point x="-170" y="-179"/>
    </contour>
    <contour>
      <point x="-160" y="-65" type="curve"/>
      <point x="-184" y="-65" type="line"/>
      <point x="-177" y="-178"/>
      <point x="-151" y="-209"/>
      <point x="-105" y="-209" type="curve" smooth="yes"/>
      <point x="-59" y="-209"/>
      <point x="-29" y="-176"/>
      <point x="-28" y="-65" type="curve"/>
      <point x="-54" y="-64" type="line"/>
      <point x="-56" y="-159"/>
      <point x="-75" y="-183"/>
      <point x="-106" y="-183" type="curve" smooth="yes"/>
      <point x="-144" y="-183"/>
      <point x="-159" y="-146"/>
    </contour>
  </outline>
</glyph>
<glyph name="uni1CD7" format="2">
  <unicode hex="1CD7"/>
  <outline>
    <contour>
      <point x="-313" y="-130" type="curve" smooth="yes"/>
      <point x="-313" y="-161"/>
      <point x="-302" y="-183"/>
      <point x="-282" y="-198" type="curve" smooth="yes"/>
      <point x="-262" y="-213"/>
      <point x="-234" y="-220"/>
      <point x="-187" y="-220" type="curve" smooth="yes"/>
      <point x="-68" y="-220" type="line"/>
      <point x="-68" y="-194" type="line"/>
      <point x="-186" y="-194" type="line" smooth="yes"/>
      <point x="-228" y="-194"/>
      <point x="-251" y="-189"/>
      <point x="-267" y="-177" type="curve" smooth="yes"/>
      <point x="-280" y="-167"/>
      <point x="-286" y="-152"/>
      <point x="-286" y="-132" type="curve" smooth="yes"/>
      <point x="-286" y="-87"/>
      <point x="-251" y="-70"/>
      <point x="-205" y="-70" type="curve" smooth="yes"/>
      <point x="-197" y="-70" type="line"/>
      <point x="-199" y="-44" type="line"/>
      <point x="-271" y="-44"/>
      <point x="-313" y="-76"/>
    </contour>
  </outline>
</glyph>
<glyph name="uni1CD9" format="2">
  <unicode hex="1CD9"/>
  <outline>
    <contour>
      <point x="-89" y="-68" type="line"/>
      <point x="63" y="-224" type="line"/>
      <point x="82" y="-205" type="line"/>
      <point x="-83" y="-40" type="line"/>
      <point x="-102" y="-40" type="line"/>
      <point x="-196" y="-212" type="line"/>
      <point x="-173" y="-224" type="line"/>
    </contour>
  </outline>
</glyph>
<glyph name="uni1CDA" format="2">
  <unicode hex="1CDA"/>
  <outline>
    <contour>
      <point x="-65" y="872" type="line"/>
      <point x="-65" y="672" type="line"/>
      <point x="-39" y="672" type="line"/>
      <point x="-39" y="872" type="line"/>
    </contour>
    <contour>
      <point x="-140" y="872" type="line"/>
      <point x="-140" y="672" type="line"/>
      <point x="-114" y="672" type="line"/>
      <point x="-114" y="872" type="line"/>
    </contour>
  </outline>
</glyph>
<glyph name="uni1CDB" format="2">
  <unicode hex="1CDB"/>
  <outline>
    <contour>
      <point x="-170" y="872" type="line"/>
      <point x="-170" y="672" type="line"/>
      <point x="-144" y="672" type="line"/>
      <point x="-144" y="872" type="line"/>
    </contour>
    <contour>
      <point x="-103" y="872" type="line"/>
      <point x="-103" y="672" type="line"/>
      <point x="-77" y="672" type="line"/>
      <point x="-77" y="872" type="line"/>
    </contour>
    <contour>
      <point x="-36" y="872" type="line"/>
      <point x="-36" y="672" type="line"/>
      <point x="-10" y="672" type="line"/>
      <point x="-10" y="872" type="line"/>
    </contour>
  </outline>
</glyph>
<glyph name="uni1CDD" format="2">
  <unicode hex="1CDD"/>
  <outline>
    <contour>
      <point x="-39" y="-166" type="line"/>
      <point x="-90" y="-114" type="line"/>
      <point x="-141" y="-166" type="line"/>
      <point x="-90" y="-218" type="line"/>
    </contour>
  </outline>
</glyph>
<glyph name="uni1CDE" format="2">
  <unicode hex="1CDE"/>
  <outline>
    <contour>
      <point x="-116" y="-125" type="curve" smooth="yes"/>
      <point x="-116" y="-149"/>
      <point x="-106" y="-159"/>
      <point x="-91" y="-159" type="curve" smooth="yes"/>
      <point x="-76" y="-159"/>
      <point x="-65" y="-150"/>
      <point x="-65" y="-125" type="curve" smooth="yes"/>
      <point x="-65" y="-102"/>
      <point x="-75" y="-91"/>
      <point x="-90" y="-91" type="curve" smooth="yes"/>
      <point x="-105" y="-91"/>
      <point x="-116" y="-100"/>
    </contour>
    <contour>
      <point x="-212" y="-125" type="curve" smooth="yes"/>
      <point x="-212" y="-149"/>
      <point x="-202" y="-159"/>
      <point x="-187" y="-159" type="curve" smooth="yes"/>
      <point x="-172" y="-159"/>
      <point x="-161" y="-150"/>
      <point x="-161" y="-125" type="curve" smooth="yes"/>
      <point x="-161" y="-102"/>
      <point x="-171" y="-91"/>
      <point x="-186" y="-91" type="curve" smooth="yes"/>
      <point x="-203" y="-91"/>
      <point x="-212" y="-102"/>
    </contour>
  </outline>
</glyph>
<glyph name="uni1CDF" format="2">
  <unicode hex="1CDF"/>
  <outline>
    <contour>
      <point x="-116" y="-125" type="curve" smooth="yes"/>
      <point x="-116" y="-149"/>
      <point x="-106" y="-159"/>
      <point x="-91" y="-159" type="curve" smooth="yes"/>
      <point x="-76" y="-159"/>
      <point x="-65" y="-150"/>
      <point x="-65" y="-125" type="curve" smooth="yes"/>
      <point x="-65" y="-102"/>
      <point x="-75" y="-91"/>
      <point x="-90" y="-91" type="curve" smooth="yes"/>
      <point x="-105" y="-91"/>
      <point x="-116" y="-100"/>
    </contour>
    <contour>
      <point x="-208" y="-125" type="curve" smooth="yes"/>
      <point x="-208" y="-149"/>
      <point x="-198" y="-159"/>
      <point x="-183" y="-159" type="curve" smooth="yes"/>
      <point x="-168" y="-159"/>
      <point x="-157" y="-150"/>
      <point x="-157" y="-125" type="curve" smooth="yes"/>
      <point x="-157" y="-102"/>
      <point x="-167" y="-91"/>
      <point x="-182" y="-91" type="curve" smooth="yes"/>
      <point x="-199" y="-91"/>
      <point x="-208" y="-102"/>
    </contour>
    <contour>
      <point x="-300" y="-125" type="curve" smooth="yes"/>
      <point x="-300" y="-149"/>
      <point x="-290" y="-159"/>
      <point x="-275" y="-159" type="curve" smooth="yes"/>
      <point x="-260" y="-159"/>
      <point x="-249" y="-150"/>
      <point x="-249" y="-125" type="curve" smooth="yes"/>
      <point x="-249" y="-102"/>
      <point x="-259" y="-91"/>
      <point x="-274" y="-91" type="curve" smooth="yes"/>
      <point x="-291" y="-91"/>
      <point x="-300" y="-102"/>
    </contour>
  </outline>
</glyph>
<glyph name="uni1CE0" format="2">
  <unicode hex="1CE0"/>
  <outline>
    <contour>
      <point x="35" y="691" type="curve" smooth="yes"/>
      <point x="35" y="630"/>
      <point x="83" y="596"/>
      <point x="151" y="596" type="curve" smooth="yes"/>
      <point x="166" y="596" type="line"/>
      <point x="166" y="622" type="line"/>
      <point x="152" y="622" type="line" smooth="yes"/>
      <point x="100" y="622"/>
      <point x="62" y="639"/>
      <point x="62" y="689" type="curve" smooth="yes"/>
      <point x="62" y="716"/>
      <point x="73" y="735"/>
      <point x="87" y="745" type="curve" smooth="yes"/>
      <point x="107" y="760"/>
      <point x="132" y="763"/>
      <point x="187" y="763" type="curve" smooth="yes"/>
      <point x="324" y="763" type="line"/>
      <point x="324" y="789" type="line"/>
      <point x="183" y="789" type="line" smooth="yes"/>
      <point x="119" y="789"/>
      <point x="94" y="782"/>
      <point x="69" y="764" type="curve" smooth="yes"/>
      <point x="49" y="749"/>
      <point x="35" y="724"/>
    </contour>
  </outline>
</glyph>
<glyph name="uni1CE1" format="2">
  <advance width="289"/>
  <unicode hex="1CE1"/>
  <outline>
    <contour>
      <point x="289" y="770" type="curve"/>
      <point x="311" y="783" type="line"/>
      <point x="288" y="822"/>
      <point x="255" y="846"/>
      <point x="217" y="846" type="curve" smooth="yes"/>
      <point x="151" y="846"/>
      <point x="114" y="792"/>
      <point x="114" y="693" type="curve" smooth="yes"/>
      <point x="114" y="527"/>
      <point x="154" y="297"/>
      <point x="154" y="75" type="curve" smooth="yes"/>
      <point x="154" y="-37"/>
      <point x="123" y="-102"/>
      <point x="18" y="-102" type="curve" smooth="yes"/>
      <point x="7" y="-102"/>
      <point x="-10" y="-101"/>
      <point x="-19" y="-99" type="curve"/>
      <point x="-20" y="-125" type="line"/>
      <point x="-13" y="-127"/>
      <point x="6" y="-128"/>
      <point x="18" y="-128" type="curve" smooth="yes"/>
      <point x="138" y="-128"/>
      <point x="181" y="-49"/>
      <point x="181" y="73" type="curve" smooth="yes"/>
      <point x="181" y="310"/>
      <point x="141" y="531"/>
      <point x="141" y="689" type="curve" smooth="yes"/>
      <point x="141" y="791"/>
      <point x="174" y="820"/>
      <point x="216" y="820" type="curve" smooth="yes"/>
      <point x="249" y="820"/>
      <point x="270" y="799"/>
    </contour>
  </outline>
</glyph>
<glyph name="uni1CE2" format="2">
  <unicode hex="1CE2"/>
  <outline>
    <contour>
      <point x="-191" y="289" type="line"/>
      <point x="-191" y="263" type="line"/>
      <point x="-4" y="263" type="line"/>
      <point x="-4" y="289" type="line"/>
    </contour>
  </outline>
</glyph>
<glyph name="uni1CE3" format="2">
  <unicode hex="1CE3"/>
  <outline>
    <contour>
      <point x="-12" y="574" type="curve"/>
      <point x="-32" y="558" type="line"/>
      <point x="-4" y="521"/>
      <point x="13" y="503"/>
      <point x="40" y="465" type="curve" smooth="yes"/>
      <point x="72" y="419"/>
      <point x="94" y="388"/>
      <point x="94" y="346" type="curve" smooth="yes"/>
      <point x="94" y="325"/>
      <point x="87" y="312"/>
      <point x="79" y="304" type="curve" smooth="yes"/>
      <point x="65" y="291"/>
      <point x="50" y="289"/>
      <point x="21" y="289" type="curve" smooth="yes"/>
      <point x="-85" y="289" type="line"/>
      <point x="-85" y="263" type="line"/>
      <point x="18" y="263" type="line" smooth="yes"/>
      <point x="62" y="263"/>
      <point x="84" y="271"/>
      <point x="102" y="290" type="curve" smooth="yes"/>
      <point x="114" y="303"/>
      <point x="121" y="321"/>
      <point x="121" y="345" type="curve" smooth="yes"/>
      <point x="121" y="389"/>
      <point x="102" y="423"/>
      <point x="61" y="479" type="curve" smooth="yes"/>
      <point x="30" y="521"/>
      <point x="8" y="549"/>
    </contour>
  </outline>
</glyph>
<glyph name="uni1CE5" format="2">
  <unicode hex="1CE5"/>
  <outline>
    <contour>
      <point x="169" y="-22" type="curve"/>
      <point x="189" y="-6" type="line"/>
      <point x="161" y="31"/>
      <point x="144" y="49"/>
      <point x="117" y="87" type="curve" smooth="yes"/>
      <point x="85" y="133"/>
      <point x="63" y="164"/>
      <point x="63" y="206" type="curve" smooth="yes"/>
      <point x="63" y="227"/>
      <point x="70" y="240"/>
      <point x="78" y="248" type="curve" smooth="yes"/>
      <point x="92" y="261"/>
      <point x="107" y="263"/>
      <point x="136" y="263" type="curve" smooth="yes"/>
      <point x="242" y="263" type="line"/>
      <point x="242" y="289" type="line"/>
      <point x="139" y="289" type="line" smooth="yes"/>
      <point x="95" y="289"/>
      <point x="73" y="281"/>
      <point x="55" y="262" type="curve" smooth="yes"/>
      <point x="43" y="249"/>
      <point x="36" y="231"/>
      <point x="36" y="207" type="curve" smooth="yes"/>
      <point x="36" y="163"/>
      <point x="55" y="129"/>
      <point x="96" y="73" type="curve" smooth="yes"/>
      <point x="127" y="31"/>
      <point x="149" y="3"/>
    </contour>
  </outline>
</glyph>
<glyph name="uni1CE6" format="2">
  <unicode hex="1CE6"/>
  <outline>
    <contour>
      <point x="-32" y="-6" type="curve"/>
      <point x="-12" y="-22" type="line"/>
      <point x="8" y="3"/>
      <point x="30" y="31"/>
      <point x="61" y="73" type="curve" smooth="yes"/>
      <point x="102" y="129"/>
      <point x="121" y="163"/>
      <point x="121" y="207" type="curve" smooth="yes"/>
      <point x="121" y="231"/>
      <point x="114" y="249"/>
      <point x="102" y="262" type="curve" smooth="yes"/>
      <point x="84" y="281"/>
      <point x="62" y="289"/>
      <point x="18" y="289" type="curve" smooth="yes"/>
      <point x="-85" y="289" type="line"/>
      <point x="-85" y="263" type="line"/>
      <point x="21" y="263" type="line" smooth="yes"/>
      <point x="50" y="263"/>
      <point x="65" y="261"/>
      <point x="79" y="248" type="curve" smooth="yes"/>
      <point x="87" y="240"/>
      <point x="94" y="227"/>
      <point x="94" y="206" type="curve" smooth="yes"/>
      <point x="94" y="164"/>
      <point x="72" y="133"/>
      <point x="40" y="87" type="curve" smooth="yes"/>
      <point x="13" y="49"/>
      <point x="-4" y="31"/>
    </contour>
  </outline>
</glyph>
<glyph name="uni1CE7" format="2">
  <unicode hex="1CE7"/>
  <outline>
    <contour>
      <point x="-86" y="291" type="line"/>
      <point x="-86" y="265" type="line"/>
      <point x="17" y="265" type="line" smooth="yes"/>
      <point x="61" y="265"/>
      <point x="83" y="273"/>
      <point x="101" y="292" type="curve" smooth="yes"/>
      <point x="113" y="305"/>
      <point x="120" y="323"/>
      <point x="120" y="347" type="curve" smooth="yes"/>
      <point x="120" y="391"/>
      <point x="98" y="426"/>
      <point x="49" y="491" type="curve" smooth="yes"/>
      <point x="-6" y="564"/>
      <point x="-20" y="598"/>
      <point x="-20" y="645" type="curve" smooth="yes"/>
      <point x="-20" y="697"/>
      <point x="5" y="720"/>
      <point x="42" y="720" type="curve" smooth="yes"/>
      <point x="88" y="720"/>
      <point x="120" y="687"/>
      <point x="148" y="619" type="curve"/>
      <point x="172" y="629" type="line"/>
      <point x="134" y="719"/>
      <point x="93" y="746"/>
      <point x="40" y="746" type="curve" smooth="yes"/>
      <point x="-9" y="746"/>
      <point x="-47" y="710"/>
      <point x="-47" y="646" type="curve" smooth="yes"/>
      <point x="-47" y="593"/>
      <point x="-30" y="554"/>
      <point x="30" y="473" type="curve" smooth="yes"/>
      <point x="74" y="413"/>
      <point x="93" y="383"/>
      <point x="93" y="348" type="curve" smooth="yes"/>
      <point x="93" y="327"/>
      <point x="86" y="314"/>
      <point x="78" y="306" type="curve" smooth="yes"/>
      <point x="64" y="293"/>
      <point x="49" y="291"/>
      <point x="20" y="291" type="curve" smooth="yes"/>
    </contour>
  </outline>
</glyph>
<glyph name="uni1CE8" format="2">
  <unicode hex="1CE8"/>
  <outline>
    <contour>
      <point x="247" y="263" type="line"/>
      <point x="247" y="289" type="line"/>
      <point x="144" y="289" type="line" smooth="yes"/>
      <point x="100" y="289"/>
      <point x="78" y="281"/>
      <point x="60" y="262" type="curve" smooth="yes"/>
      <point x="48" y="249"/>
      <point x="41" y="231"/>
      <point x="41" y="207" type="curve" smooth="yes"/>
      <point x="41" y="163"/>
      <point x="63" y="128"/>
      <point x="112" y="63" type="curve" smooth="yes"/>
      <point x="167" y="-10"/>
      <point x="181" y="-44"/>
      <point x="181" y="-91" type="curve" smooth="yes"/>
      <point x="181" y="-143"/>
      <point x="156" y="-166"/>
      <point x="119" y="-166" type="curve" smooth="yes"/>
      <point x="73" y="-166"/>
      <point x="41" y="-133"/>
      <point x="13" y="-65" type="curve"/>
      <point x="-11" y="-75" type="line"/>
      <point x="27" y="-165"/>
      <point x="68" y="-192"/>
      <point x="121" y="-192" type="curve" smooth="yes"/>
      <point x="170" y="-192"/>
      <point x="208" y="-156"/>
      <point x="208" y="-92" type="curve" smooth="yes"/>
      <point x="208" y="-39"/>
      <point x="191" y="0"/>
      <point x="131" y="81" type="curve" smooth="yes"/>
      <point x="87" y="141"/>
      <point x="68" y="171"/>
      <point x="68" y="206" type="curve" smooth="yes"/>
      <point x="68" y="227"/>
      <point x="75" y="240"/>
      <point x="83" y="248" type="curve" smooth="yes"/>
      <point x="97" y="261"/>
      <point x="112" y="263"/>
      <point x="141" y="263" type="curve" smooth="yes"/>
    </contour>
  </outline>
</glyph>
<glyph name="uni1CE9" format="2">
  <advance width="572"/>
  <unicode hex="1CE9"/>
  <outline>
    <contour>
      <point x="286" y="0" type="curve" smooth="yes"/>
      <point x="437" y="0"/>
      <point x="519" y="115"/>
      <point x="519" y="357" type="curve" smooth="yes"/>
      <point x="519" y="536"/>
      <point x="473" y="632"/>
      <point x="396" y="632" type="curve" smooth="yes"/>
      <point x="344" y="632"/>
      <point x="309" y="587"/>
      <point x="309" y="522" type="curve" smooth="yes"/>
      <point x="309" y="458"/>
      <point x="341" y="405"/>
      <point x="419" y="405" type="curve" smooth="yes"/>
      <point x="433" y="405"/>
      <point x="448" y="407"/>
      <point x="460" y="410" type="curve"/>
      <point x="457" y="436" type="line"/>
      <point x="447" y="433"/>
      <point x="435" y="431"/>
      <point x="417" y="431" type="curve" smooth="yes"/>
      <point x="362" y="431"/>
      <point x="336" y="464"/>
      <point x="336" y="522" type="curve" smooth="yes"/>
      <point x="336" y="568"/>
      <point x="356" y="606"/>
      <point x="396" y="606" type="curve" smooth="yes"/>
      <point x="452" y="606"/>
      <point x="492" y="526"/>
      <point x="492" y="368" type="curve" smooth="yes"/>
      <point x="492" y="349" type="line" smooth="yes"/>
      <point x="492" y="155"/>
      <point x="433" y="26"/>
      <point x="286" y="26" type="curve" smooth="yes"/>
      <point x="148" y="26"/>
      <point x="82" y="141"/>
      <point x="82" y="346" type="curve" smooth="yes"/>
      <point x="82" y="365" type="line" smooth="yes"/>
      <point x="82" y="533"/>
      <point x="123" y="606"/>
      <point x="180" y="606" type="curve" smooth="yes"/>
      <point x="220" y="606"/>
      <point x="238" y="566"/>
      <point x="238" y="524" type="curve" smooth="yes"/>
      <point x="238" y="464"/>
      <point x="212" y="431"/>
      <point x="157" y="431" type="curve" smooth="yes"/>
      <point x="139" y="431"/>
      <point x="128" y="433"/>
      <point x="117" y="436" type="curve"/>
      <point x="114" y="410" type="line"/>
      <point x="124" y="407"/>
      <point x="138" y="405"/>
      <point x="156" y="405" type="curve" smooth="yes"/>
      <point x="232" y="405"/>
      <point x="265" y="458"/>
      <point x="265" y="523" type="curve" smooth="yes"/>
      <point x="265" y="581"/>
      <point x="236" y="632"/>
      <point x="178" y="632" type="curve" smooth="yes"/>
      <point x="109" y="632"/>
      <point x="55" y="554"/>
      <point x="55" y="357" type="curve" smooth="yes"/>
      <point x="55" y="134"/>
      <point x="127" y="0"/>
    </contour>
  </outline>
</glyph>
<glyph name="uni1CEA" format="2">
  <advance width="512"/>
  <unicode hex="1CEA"/>
  <outline>
    <contour>
      <point x="258" y="0" type="curve"/>
      <point x="388" y="0"/>
      <point x="441" y="91"/>
      <point x="441" y="181" type="curve" smooth="yes"/>
      <point x="441" y="252"/>
      <point x="415" y="294"/>
      <point x="378" y="355" type="curve" smooth="yes"/>
      <point x="349" y="403"/>
      <point x="327" y="444"/>
      <point x="327" y="508" type="curve" smooth="yes"/>
      <point x="327" y="573"/>
      <point x="355" y="606"/>
      <point x="397" y="606" type="curve" smooth="yes"/>
      <point x="432" y="606"/>
      <point x="457" y="580"/>
      <point x="457" y="537" type="curve" smooth="yes"/>
      <point x="457" y="487"/>
      <point x="429" y="461"/>
      <point x="375" y="451" type="curve"/>
      <point x="380" y="425" type="line"/>
      <point x="454" y="438"/>
      <point x="484" y="486"/>
      <point x="484" y="537" type="curve" smooth="yes"/>
      <point x="484" y="594"/>
      <point x="445" y="632"/>
      <point x="396" y="632" type="curve" smooth="yes"/>
      <point x="329" y="632"/>
      <point x="300" y="571"/>
      <point x="300" y="506" type="curve" smooth="yes"/>
      <point x="300" y="441"/>
      <point x="320" y="399"/>
      <point x="361" y="334" type="curve" smooth="yes"/>
      <point x="391" y="286"/>
      <point x="414" y="243"/>
      <point x="414" y="178" type="curve" smooth="yes"/>
      <point x="414" y="115"/>
      <point x="382" y="26"/>
      <point x="259" y="26" type="curve" smooth="yes"/>
      <point x="139" y="26"/>
      <point x="107" y="115"/>
      <point x="107" y="178" type="curve" smooth="yes"/>
      <point x="107" y="243"/>
      <point x="130" y="286"/>
      <point x="160" y="334" type="curve" smooth="yes"/>
      <point x="201" y="399"/>
      <point x="221" y="441"/>
      <point x="221" y="506" type="curve" smooth="yes"/>
      <point x="221" y="571"/>
      <point x="192" y="632"/>
      <point x="125" y="632" type="curve" smooth="yes"/>
      <point x="76" y="632"/>
      <point x="37" y="593"/>
      <point x="37" y="537" type="curve" smooth="yes"/>
      <point x="37" y="486"/>
      <point x="67" y="438"/>
      <point x="141" y="425" type="curve"/>
      <point x="146" y="451" type="line"/>
      <point x="92" y="461"/>
      <point x="64" y="487"/>
      <point x="64" y="537" type="curve" smooth="yes"/>
      <point x="64" y="579"/>
      <point x="89" y="606"/>
      <point x="124" y="606" type="curve" smooth="yes"/>
      <point x="166" y="606"/>
      <point x="194" y="573"/>
      <point x="194" y="508" type="curve" smooth="yes"/>
      <point x="194" y="444"/>
      <point x="171" y="403"/>
      <point x="142" y="355" type="curve" smooth="yes"/>
      <point x="105" y="294"/>
      <point x="80" y="252"/>
      <point x="80" y="181" type="curve" smooth="yes"/>
      <point x="80" y="91"/>
      <point x="133" y="0"/>
    </contour>
  </outline>
</glyph>
<glyph name="uni1CEB" format="2">
  <advance width="528"/>
  <unicode hex="1CEB"/>
  <outline>
    <contour>
      <point x="260" y="0" type="curve" smooth="yes"/>
      <point x="395" y="0"/>
      <point x="478" y="99"/>
      <point x="478" y="326" type="curve" smooth="yes"/>
      <point x="478" y="463"/>
      <point x="440" y="566"/>
      <point x="359" y="566" type="curve" smooth="yes"/>
      <point x="304" y="566"/>
      <point x="268" y="521"/>
      <point x="268" y="456" type="curve" smooth="yes"/>
      <point x="268" y="392"/>
      <point x="300" y="339"/>
      <point x="378" y="339" type="curve" smooth="yes"/>
      <point x="392" y="339"/>
      <point x="407" y="341"/>
      <point x="419" y="344" type="curve"/>
      <point x="416" y="370" type="line"/>
      <point x="406" y="367"/>
      <point x="394" y="365"/>
      <point x="376" y="365" type="curve" smooth="yes"/>
      <point x="321" y="365"/>
      <point x="295" y="398"/>
      <point x="295" y="456" type="curve" smooth="yes"/>
      <point x="295" y="502"/>
      <point x="315" y="540"/>
      <point x="358" y="540" type="curve" smooth="yes"/>
      <point x="422" y="540"/>
      <point x="451" y="450"/>
      <point x="451" y="324" type="curve" smooth="yes"/>
      <point x="451" y="121"/>
      <point x="384" y="26"/>
      <point x="259" y="26" type="curve" smooth="yes"/>
      <point x="139" y="26"/>
      <point x="107" y="115"/>
      <point x="107" y="178" type="curve" smooth="yes"/>
      <point x="107" y="243"/>
      <point x="130" y="286"/>
      <point x="160" y="334" type="curve" smooth="yes"/>
      <point x="201" y="399"/>
      <point x="221" y="441"/>
      <point x="221" y="506" type="curve" smooth="yes"/>
      <point x="221" y="571"/>
      <point x="192" y="632"/>
      <point x="125" y="632" type="curve" smooth="yes"/>
      <point x="76" y="632"/>
      <point x="37" y="593"/>
      <point x="37" y="537" type="curve" smooth="yes"/>
      <point x="37" y="486"/>
      <point x="67" y="438"/>
      <point x="141" y="425" type="curve"/>
      <point x="146" y="451" type="line"/>
      <point x="92" y="461"/>
      <point x="64" y="487"/>
      <point x="64" y="537" type="curve" smooth="yes"/>
      <point x="64" y="579"/>
      <point x="89" y="606"/>
      <point x="124" y="606" type="curve" smooth="yes"/>
      <point x="166" y="606"/>
      <point x="194" y="573"/>
      <point x="194" y="508" type="curve" smooth="yes"/>
      <point x="194" y="444"/>
      <point x="171" y="403"/>
      <point x="142" y="355" type="curve" smooth="yes"/>
      <point x="105" y="294"/>
      <point x="80" y="252"/>
      <point x="80" y="181" type="curve" smooth="yes"/>
      <point x="80" y="91"/>
      <point x="132" y="0"/>
    </contour>
  </outline>
</glyph>
<glyph name="uni1CEC" format="2">
  <advance width="577"/>
  <unicode hex="1CEC"/>
  <outline>
    <contour>
      <point x="429" y="343" type="curve" smooth="yes"/>
      <point x="429" y="172"/>
      <point x="390" y="26"/>
      <point x="253" y="26" type="curve" smooth="yes"/>
      <point x="139" y="26"/>
      <point x="107" y="115"/>
      <point x="107" y="178" type="curve" smooth="yes"/>
      <point x="107" y="243"/>
      <point x="130" y="286"/>
      <point x="160" y="334" type="curve" smooth="yes"/>
      <point x="201" y="399"/>
      <point x="221" y="441"/>
      <point x="221" y="506" type="curve" smooth="yes"/>
      <point x="221" y="571"/>
      <point x="192" y="632"/>
      <point x="125" y="632" type="curve" smooth="yes"/>
      <point x="76" y="632"/>
      <point x="37" y="593"/>
      <point x="37" y="537" type="curve" smooth="yes"/>
      <point x="37" y="486"/>
      <point x="67" y="438"/>
      <point x="141" y="425" type="curve"/>
      <point x="146" y="451" type="line"/>
      <point x="92" y="461"/>
      <point x="64" y="487"/>
      <point x="64" y="537" type="curve" smooth="yes"/>
      <point x="64" y="579"/>
      <point x="89" y="606"/>
      <point x="124" y="606" type="curve" smooth="yes"/>
      <point x="166" y="606"/>
      <point x="194" y="573"/>
      <point x="194" y="508" type="curve" smooth="yes"/>
      <point x="194" y="444"/>
      <point x="171" y="403"/>
      <point x="142" y="355" type="curve" smooth="yes"/>
      <point x="105" y="294"/>
      <point x="80" y="252"/>
      <point x="80" y="181" type="curve" smooth="yes"/>
      <point x="80" y="91"/>
      <point x="133" y="0"/>
      <point x="253" y="0" type="curve" smooth="yes"/>
      <point x="398" y="0"/>
      <point x="455" y="138"/>
      <point x="455" y="341" type="curve" smooth="yes"/>
      <point x="455" y="503"/>
      <point x="410" y="566"/>
      <point x="345" y="566" type="curve" smooth="yes"/>
      <point x="284" y="566"/>
      <point x="255" y="513"/>
      <point x="255" y="460" type="curve" smooth="yes"/>
      <point x="255" y="386"/>
      <point x="294" y="330"/>
      <point x="438" y="299" type="curve"/>
      <point x="511" y="284"/>
      <point x="528" y="241"/>
      <point x="528" y="194" type="curve" smooth="yes"/>
      <point x="528" y="147"/>
      <point x="517" y="112"/>
      <point x="495" y="73" type="curve"/>
      <point x="518" y="60" type="line"/>
      <point x="542" y="103"/>
      <point x="555" y="144"/>
      <point x="555" y="195" type="curve" smooth="yes"/>
      <point x="555" y="250"/>
      <point x="535" y="305"/>
      <point x="440" y="324" type="curve"/>
      <point x="323" y="352"/>
      <point x="282" y="390"/>
      <point x="282" y="460" type="curve" smooth="yes"/>
      <point x="282" y="501"/>
      <point x="302" y="540"/>
      <point x="343" y="540" type="curve" smooth="yes"/>
      <point x="403" y="540"/>
      <point x="429" y="463"/>
    </contour>
  </outline>
</glyph>
<glyph name="uni1CED" format="2">
  <unicode hex="1CED"/>
  <outline>
    <contour>
      <point x="-108" y="-68" type="line"/>
      <point x="48" y="-227" type="line"/>
      <point x="66" y="-210" type="line"/>
      <point x="-89" y="-51" type="line"/>
    </contour>
  </outline>
</glyph>
<glyph name="uni1CEE" format="2">
  <advance width="375"/>
  <unicode hex="1CEE"/>
  <outline>
    <contour>
      <point x="229" y="0" type="curve" smooth="yes"/>
      <point x="291" y="0"/>
      <point x="333" y="21"/>
      <point x="333" y="63" type="curve" smooth="yes"/>
      <point x="333" y="83"/>
      <point x="325" y="100"/>
      <point x="305" y="100" type="curve" smooth="yes"/>
      <point x="289" y="100"/>
      <point x="276" y="88"/>
      <point x="276" y="63" type="curve" smooth="yes"/>
      <point x="276" y="50"/>
      <point x="279" y="40"/>
      <point x="284" y="31" type="curve"/>
      <point x="290" y="39" type="line"/>
      <point x="274" y="29"/>
      <point x="247" y="26"/>
      <point x="230" y="26" type="curve" smooth="yes"/>
      <point x="161" y="26"/>
      <point x="110" y="75"/>
      <point x="110" y="180" type="curve" smooth="yes"/>
      <point x="110" y="282"/>
      <point x="164" y="331"/>
      <point x="222" y="331" type="curve" smooth="yes"/>
      <point x="236" y="331"/>
      <point x="245" y="330"/>
      <point x="250" y="329" type="curve"/>
      <point x="252" y="355" type="line"/>
      <point x="245" y="356"/>
      <point x="235" y="357"/>
      <point x="226" y="357" type="curve" smooth="yes"/>
      <point x="143" y="357"/>
      <point x="83" y="288"/>
      <point x="83" y="180" type="curve" smooth="yes"/>
      <point x="83" y="73"/>
      <point x="138" y="0"/>
    </contour>
    <contour>
      <point x="173" y="329" type="curve"/>
      <point x="194" y="346" type="line"/>
      <point x="120" y="382"/>
      <point x="77" y="427"/>
      <point x="77" y="497" type="curve" smooth="yes"/>
      <point x="77" y="550"/>
      <point x="102" y="606"/>
      <point x="179" y="606" type="curve" smooth="yes"/>
      <point x="205" y="606"/>
      <point x="225" y="603"/>
      <point x="245" y="597" type="curve"/>
      <point x="250" y="623" type="line"/>
      <point x="230" y="628"/>
      <point x="208" y="632"/>
      <point x="179" y="632" type="curve" smooth="yes"/>
      <point x="84" y="632"/>
      <point x="50" y="559"/>
      <point x="50" y="498" type="curve" smooth="yes"/>
      <point x="50" y="417"/>
      <point x="101" y="365"/>
    </contour>
    <contour>
      <point x="319" y="303" type="curve" smooth="yes"/>
      <point x="336" y="303"/>
      <point x="348" y="313"/>
      <point x="348" y="340" type="curve" smooth="yes"/>
      <point x="348" y="364"/>
      <point x="337" y="377"/>
      <point x="320" y="377" type="curve" smooth="yes"/>
      <point x="304" y="377"/>
      <point x="291" y="365"/>
      <point x="291" y="340" type="curve" smooth="yes"/>
      <point x="291" y="314"/>
      <point x="305" y="303"/>
    </contour>
  </outline>
</glyph>
<glyph name="uni1CEF" format="2">
  <advance width="328"/>
  <unicode hex="1CEF"/>
  <outline>
    <contour>
      <point x="296" y="308" type="curve"/>
      <point x="288" y="333" type="line"/>
      <point x="259" y="318"/>
      <point x="227" y="312"/>
      <point x="199" y="312" type="curve" smooth="yes"/>
      <point x="127" y="312"/>
      <point x="77" y="355"/>
      <point x="77" y="460" type="curve" smooth="yes"/>
      <point x="77" y="555"/>
      <point x="127" y="606"/>
      <point x="210" y="606" type="curve" smooth="yes"/>
      <point x="238" y="606"/>
      <point x="259" y="603"/>
      <point x="276" y="598" type="curve"/>
      <point x="279" y="624" type="line"/>
      <point x="267" y="628"/>
      <point x="237" y="632"/>
      <point x="207" y="632" type="curve" smooth="yes"/>
      <point x="114" y="632"/>
      <point x="50" y="567"/>
      <point x="50" y="461" type="curve" smooth="yes"/>
      <point x="50" y="361"/>
      <point x="97" y="292"/>
      <point x="188" y="287" type="curve" smooth="yes"/>
      <point x="195" y="286"/>
      <point x="192" y="287"/>
      <point x="202" y="287" type="curve" smooth="yes"/>
      <point x="222" y="287"/>
      <point x="264" y="293"/>
    </contour>
    <contour>
      <point x="255" y="310" type="line"/>
      <point x="220" y="304" type="line"/>
      <point x="141" y="282"/>
      <point x="73" y="222"/>
      <point x="73" y="116" type="curve" smooth="yes"/>
      <point x="73" y="36"/>
      <point x="121" y="-12"/>
      <point x="177" y="-12" type="curve" smooth="yes"/>
      <point x="232" y="-12"/>
      <point x="265" y="25"/>
      <point x="265" y="79" type="curve" smooth="yes"/>
      <point x="265" y="137"/>
      <point x="230" y="174"/>
      <point x="174" y="184" type="curve"/>
      <point x="167" y="159" type="line"/>
      <point x="217" y="150"/>
      <point x="238" y="123"/>
      <point x="238" y="78" type="curve" smooth="yes"/>
      <point x="238" y="40"/>
      <point x="220" y="14"/>
      <point x="176" y="14" type="curve" smooth="yes"/>
      <point x="131" y="14"/>
      <point x="100" y="56"/>
      <point x="100" y="118" type="curve" smooth="yes"/>
      <point x="100" y="206"/>
      <point x="157" y="271"/>
      <point x="264" y="298" type="curve"/>
    </contour>
    <contour>
      <point x="171" y="456" type="curve" smooth="yes"/>
      <point x="171" y="430"/>
      <point x="185" y="419"/>
      <point x="199" y="419" type="curve" smooth="yes"/>
      <point x="216" y="419"/>
      <point x="228" y="429"/>
      <point x="228" y="456" type="curve" smooth="yes"/>
      <point x="228" y="480"/>
      <point x="217" y="493"/>
      <point x="200" y="493" type="curve" smooth="yes"/>
      <point x="184" y="493"/>
      <point x="171" y="481"/>
    </contour>
  </outline>
</glyph>
<glyph name="uni1CF0" format="2">
  <advance width="378"/>
  <unicode hex="1CF0"/>
  <outline>
    <contour>
      <point x="199" y="310" type="curve" smooth="yes"/>
      <point x="208" y="310" type="line"/>
      <point x="212" y="324"/>
      <point x="215" y="338"/>
      <point x="215" y="347" type="curve" smooth="yes"/>
      <point x="215" y="374"/>
      <point x="207" y="396"/>
      <point x="176" y="438" type="curve" smooth="yes"/>
      <point x="142" y="485"/>
      <point x="125" y="508"/>
      <point x="125" y="551" type="curve" smooth="yes"/>
      <point x="125" y="583"/>
      <point x="141" y="606"/>
      <point x="172" y="606" type="curve" smooth="yes"/>
      <point x="208" y="606"/>
      <point x="228" y="581"/>
      <point x="252" y="533" type="curve"/>
      <point x="275" y="543" type="line"/>
      <point x="251" y="599"/>
      <point x="217" y="632"/>
      <point x="174" y="632" type="curve" smooth="yes"/>
      <point x="123" y="632"/>
      <point x="98" y="593"/>
      <point x="98" y="550" type="curve" smooth="yes"/>
      <point x="98" y="507"/>
      <point x="117" y="476"/>
      <point x="148" y="433" type="curve" smooth="yes"/>
      <point x="181" y="388"/>
      <point x="189" y="368"/>
      <point x="189" y="346" type="curve" smooth="yes"/>
      <point x="189" y="341"/>
      <point x="188" y="329"/>
      <point x="185" y="322" type="curve"/>
      <point x="202" y="336" type="line"/>
      <point x="108" y="336"/>
      <point x="38" y="276"/>
      <point x="38" y="164" type="curve" smooth="yes"/>
      <point x="38" y="64"/>
      <point x="99" y="0"/>
      <point x="189" y="0" type="curve" smooth="yes"/>
      <point x="270" y="0"/>
      <point x="337" y="50"/>
      <point x="337" y="159" type="curve" smooth="yes"/>
      <point x="337" y="230"/>
      <point x="296" y="303"/>
      <point x="209" y="335" type="curve"/>
      <point x="204" y="324" type="line"/>
      <point x="202" y="310" type="line"/>
      <point x="266" y="292"/>
      <point x="310" y="225"/>
      <point x="310" y="159" type="curve" smooth="yes"/>
      <point x="310" y="67"/>
      <point x="262" y="26"/>
      <point x="188" y="26" type="curve" smooth="yes"/>
      <point x="117" y="26"/>
      <point x="65" y="74"/>
      <point x="65" y="163" type="curve" smooth="yes"/>
      <point x="65" y="264"/>
      <point x="125" y="310"/>
    </contour>
    <contour>
      <point x="281" y="409" type="curve" smooth="yes"/>
      <point x="281" y="383"/>
      <point x="295" y="372"/>
      <point x="309" y="372" type="curve" smooth="yes"/>
      <point x="326" y="372"/>
      <point x="338" y="382"/>
      <point x="338" y="409" type="curve" smooth="yes"/>
      <point x="338" y="433"/>
      <point x="327" y="446"/>
      <point x="310" y="446" type="curve" smooth="yes"/>
      <point x="294" y="446"/>
      <point x="281" y="434"/>
    </contour>
  </outline>
</glyph>
<glyph name="uni1CF1" format="2">
  <advance width="378"/>
  <unicode hex="1CF1"/>
  <outline>
    <contour>
      <point x="189" y="-6" type="curve"/>
      <point x="209" y="-22" type="line"/>
      <point x="229" y="3"/>
      <point x="251" y="31"/>
      <point x="282" y="73" type="curve" smooth="yes"/>
      <point x="323" y="129"/>
      <point x="342" y="163"/>
      <point x="342" y="207" type="curve" smooth="yes"/>
      <point x="342" y="231"/>
      <point x="335" y="249"/>
      <point x="323" y="262" type="curve" smooth="yes"/>
      <point x="305" y="281"/>
      <point x="283" y="289"/>
      <point x="239" y="289" type="curve" smooth="yes"/>
      <point x="176" y="289" type="line"/>
      <point x="176" y="263" type="line"/>
      <point x="242" y="263" type="line" smooth="yes"/>
      <point x="271" y="263"/>
      <point x="286" y="261"/>
      <point x="300" y="248" type="curve" smooth="yes"/>
      <point x="308" y="240"/>
      <point x="315" y="227"/>
      <point x="315" y="206" type="curve" smooth="yes"/>
      <point x="315" y="164"/>
      <point x="293" y="133"/>
      <point x="261" y="87" type="curve" smooth="yes"/>
      <point x="234" y="49"/>
      <point x="217" y="31"/>
    </contour>
    <contour>
      <point x="95" y="118" type="curve" smooth="yes"/>
      <point x="95" y="90"/>
      <point x="110" y="78"/>
      <point x="126" y="78" type="curve" smooth="yes"/>
      <point x="145" y="78"/>
      <point x="158" y="89"/>
      <point x="158" y="118" type="curve" smooth="yes"/>
      <point x="158" y="144"/>
      <point x="146" y="158"/>
      <point x="127" y="158" type="curve" smooth="yes"/>
      <point x="109" y="158"/>
      <point x="95" y="145"/>
    </contour>
    <contour>
      <point x="189" y="558" type="curve"/>
      <point x="169" y="574" type="line"/>
      <point x="149" y="549"/>
      <point x="127" y="521"/>
      <point x="96" y="479" type="curve" smooth="yes"/>
      <point x="55" y="423"/>
      <point x="36" y="389"/>
      <point x="36" y="345" type="curve" smooth="yes"/>
      <point x="36" y="321"/>
      <point x="43" y="303"/>
      <point x="55" y="290" type="curve" smooth="yes"/>
      <point x="73" y="271"/>
      <point x="95" y="263"/>
      <point x="139" y="263" type="curve" smooth="yes"/>
      <point x="202" y="263" type="line"/>
      <point x="202" y="289" type="line"/>
      <point x="136" y="289" type="line" smooth="yes"/>
      <point x="107" y="289"/>
      <point x="92" y="291"/>
      <point x="78" y="304" type="curve" smooth="yes"/>
      <point x="70" y="312"/>
      <point x="63" y="325"/>
      <point x="63" y="346" type="curve" smooth="yes"/>
      <point x="63" y="388"/>
      <point x="85" y="419"/>
      <point x="117" y="465" type="curve" smooth="yes"/>
      <point x="144" y="503"/>
      <point x="161" y="521"/>
    </contour>
    <contour>
      <point x="220" y="434" type="curve" smooth="yes"/>
      <point x="220" y="406"/>
      <point x="235" y="394"/>
      <point x="251" y="394" type="curve" smooth="yes"/>
      <point x="270" y="394"/>
      <point x="283" y="405"/>
      <point x="283" y="434" type="curve" smooth="yes"/>
      <point x="283" y="460"/>
      <point x="271" y="474"/>
      <point x="252" y="474" type="curve" smooth="yes"/>
      <point x="234" y="474"/>
      <point x="220" y="461"/>
    </contour>
  </outline>
</glyph>
<glyph name="uni1CF2" format="2">
  <advance width="351"/>
  <unicode hex="1CF2"/>
  <outline>
    <contour>
      <point x="181" y="298" type="curve" smooth="yes"/>
      <point x="257" y="298"/>
      <point x="302" y="361"/>
      <point x="317" y="473" type="curve"/>
      <point x="291" y="479" type="line"/>
      <point x="273" y="372"/>
      <point x="245" y="324"/>
      <point x="180" y="324" type="curve" smooth="yes"/>
      <point x="116" y="324"/>
      <point x="80" y="383"/>
      <point x="60" y="479" type="curve"/>
      <point x="34" y="472" type="line"/>
      <point x="58" y="362"/>
      <point x="107" y="298"/>
    </contour>
    <contour>
      <point x="170" y="267" type="curve" smooth="yes"/>
      <point x="94" y="267"/>
      <point x="49" y="204"/>
      <point x="34" y="92" type="curve"/>
      <point x="60" y="86" type="line"/>
      <point x="78" y="193"/>
      <point x="106" y="241"/>
      <point x="171" y="241" type="curve" smooth="yes"/>
      <point x="235" y="241"/>
      <point x="271" y="182"/>
      <point x="291" y="86" type="curve"/>
      <point x="317" y="93" type="line"/>
      <point x="293" y="203"/>
      <point x="244" y="267"/>
    </contour>
  </outline>
</glyph>
<glyph name="uni1CF3" format="2">
  <advance width="451"/>
  <unicode hex="1CF3"/>
  <outline>
    <contour>
      <point x="30" y="166" type="curve"/>
      <point x="35" y="141" type="line"/>
      <point x="149" y="158"/>
      <point x="210" y="197"/>
      <point x="210" y="277" type="curve" smooth="yes"/>
      <point x="210" y="355"/>
      <point x="147" y="399"/>
      <point x="36" y="424" type="curve"/>
      <point x="30" y="399" type="line"/>
      <point x="129" y="380"/>
      <point x="183" y="342"/>
      <point x="183" y="278" type="curve" smooth="yes"/>
      <point x="183" y="213"/>
      <point x="140" y="183"/>
    </contour>
    <contour>
      <point x="421" y="399" type="curve"/>
      <point x="416" y="424" type="line"/>
      <point x="302" y="407"/>
      <point x="241" y="368"/>
      <point x="241" y="288" type="curve" smooth="yes"/>
      <point x="241" y="210"/>
      <point x="304" y="166"/>
      <point x="415" y="141" type="curve"/>
      <point x="421" y="166" type="line"/>
      <point x="324" y="183"/>
      <point x="268" y="223"/>
      <point x="268" y="287" type="curve" smooth="yes"/>
      <point x="268" y="352"/>
      <point x="313" y="384"/>
    </contour>
  </outline>
</glyph>
<glyph name="uni1CF4" format="2">
  <unicode hex="1CF4"/>
  <outline>
    <contour>
      <point x="37" y="1131" type="curve"/>
      <point x="11" y="1137" type="line"/>
      <point x="-5" y="1039"/>
      <point x="-32" y="991"/>
      <point x="-93" y="991" type="curve" smooth="yes"/>
      <point x="-153" y="991"/>
      <point x="-187" y="1045"/>
      <point x="-206" y="1137" type="curve"/>
      <point x="-232" y="1130" type="line"/>
      <point x="-209" y="1025"/>
      <point x="-163" y="965"/>
      <point x="-92" y="965" type="curve" smooth="yes"/>
      <point x="-20" y="965"/>
      <point x="22" y="1025"/>
    </contour>
  </outline>
</glyph>
<glyph name="uni1CF6" format="2">
  <advance width="379"/>
  <unicode hex="1CF6"/>
  <outline>
    <contour>
      <point x="122" y="297" type="curve" smooth="yes"/>
      <point x="167" y="297"/>
      <point x="196" y="341"/>
      <point x="201" y="449" type="curve"/>
      <point x="179" y="449" type="line"/>
      <point x="177" y="360"/>
      <point x="159" y="323"/>
      <point x="124" y="323" type="curve" smooth="yes"/>
      <point x="92" y="323"/>
      <point x="71" y="350"/>
      <point x="69" y="450" type="curve"/>
      <point x="43" y="449" type="line"/>
      <point x="46" y="336"/>
      <point x="77" y="297"/>
    </contour>
    <contour>
      <point x="260" y="297" type="curve" smooth="yes"/>
      <point x="304" y="297"/>
      <point x="336" y="334"/>
      <point x="338" y="449" type="curve"/>
      <point x="312" y="450" type="line"/>
      <point x="311" y="349"/>
      <point x="291" y="323"/>
      <point x="259" y="323" type="curve" smooth="yes"/>
      <point x="222" y="323"/>
      <point x="206" y="362"/>
      <point x="204" y="449" type="curve"/>
      <point x="182" y="449" type="line"/>
      <point x="184" y="338"/>
      <point x="217" y="297"/>
    </contour>
    <contour>
      <point x="121" y="255" type="curve" smooth="yes"/>
      <point x="77" y="255"/>
      <point x="45" y="218"/>
      <point x="43" y="103" type="curve"/>
      <point x="69" y="102" type="line"/>
      <point x="70" y="203"/>
      <point x="90" y="229"/>
      <point x="122" y="229" type="curve" smooth="yes"/>
      <point x="159" y="229"/>
      <point x="175" y="190"/>
      <point x="177" y="103" type="curve"/>
      <point x="199" y="103" type="line"/>
      <point x="197" y="214"/>
      <point x="164" y="255"/>
    </contour>
    <contour>
      <point x="259" y="255" type="curve" smooth="yes"/>
      <point x="214" y="255"/>
      <point x="185" y="211"/>
      <point x="180" y="103" type="curve"/>
      <point x="202" y="103" type="line"/>
      <point x="204" y="192"/>
      <point x="222" y="229"/>
      <point x="257" y="229" type="curve" smooth="yes"/>
      <point x="289" y="229"/>
      <point x="310" y="202"/>
      <point x="312" y="102" type="curve"/>
      <point x="338" y="103" type="line"/>
      <point x="335" y="216"/>
      <point x="304" y="255"/>
    </contour>
  </outline>
</glyph>
<glyph name="endash.deva" format="2">
  <advance width="500"/>
  <unicode hex="2013"/>
  <outline>
    <contour>
      <point x="35" y="310" type="line"/>
      <point x="35" y="284" type="line"/>
      <point x="465" y="284" type="line"/>
      <point x="465" y="310" type="line"/>
    </contour>
  </outline>
</glyph>
<glyph name="uni20B9.deva" format="2">
  <advance width="411"/>
  <unicode hex="20B9"/>
  <outline>
    <contour>
      <point x="367" y="596" type="line"/>
      <point x="367" y="622" type="line"/>
      <point x="53" y="622" type="line"/>
      <point x="53" y="596" type="line"/>
      <point x="84" y="596" type="line" smooth="yes"/>
      <point x="148" y="596"/>
      <point x="178" y="581"/>
      <point x="197" y="555" type="curve" smooth="yes"/>
      <point x="214" y="532"/>
      <point x="220" y="501"/>
      <point x="220" y="463" type="curve" smooth="yes"/>
      <point x="220" y="416"/>
      <point x="213" y="383"/>
      <point x="194" y="359" type="curve" smooth="yes"/>
      <point x="174" y="335"/>
      <point x="146" y="323"/>
      <point x="86" y="323" type="curve" smooth="yes"/>
      <point x="69" y="323" type="line"/>
      <point x="63" y="296" type="line"/>
      <point x="240" y="0" type="line"/>
      <point x="271" y="0" type="line"/>
      <point x="83" y="314" type="line"/>
      <point x="89" y="298" type="line"/>
      <point x="203" y="299"/>
      <point x="246" y="353"/>
      <point x="246" y="462" type="curve" smooth="yes"/>
      <point x="246" y="539"/>
      <point x="217" y="580"/>
      <point x="181" y="596" type="curve"/>
    </contour>
    <contour>
      <point x="53" y="473" type="line"/>
      <point x="53" y="447" type="line"/>
      <point x="367" y="447" type="line"/>
      <point x="367" y="473" type="line"/>
    </contour>
  </outline>
</glyph>
<glyph name="minus.deva" format="2">
  <advance width="411"/>
  <unicode hex="2212"/>
  <outline>
    <contour>
      <point x="38" y="335" type="line"/>
      <point x="38" y="309" type="line"/>
      <point x="373" y="309" type="line"/>
      <point x="373" y="335" type="line"/>
    </contour>
  </outline>
</glyph>
<glyph name="uniA833" format="2">
  <advance width="470"/>
  <unicode hex="A833"/>
  <outline>
    <contour>
      <point x="419" y="608" type="line"/>
      <point x="42" y="477" type="line"/>
      <point x="49" y="452" type="line"/>
      <point x="427" y="583" type="line"/>
    </contour>
  </outline>
</glyph>
<glyph name="uniA8E0" format="2">
  <unicode hex="A8E0"/>
  <outline>
    <contour>
      <point x="-182" y="1095" type="curve" smooth="yes"/>
      <point x="-182" y="1039"/>
      <point x="-149" y="1000"/>
      <point x="-99" y="1000" type="curve" smooth="yes"/>
      <point x="-51" y="1000"/>
      <point x="-16" y="1039"/>
      <point x="-16" y="1095" type="curve" smooth="yes"/>
      <point x="-16" y="1154"/>
      <point x="-50" y="1191"/>
      <point x="-99" y="1191" type="curve" smooth="yes"/>
      <point x="-148" y="1191"/>
      <point x="-182" y="1151"/>
    </contour>
    <contour>
      <point x="-159" y="1095" type="curve" smooth="yes"/>
      <point x="-159" y="1139"/>
      <point x="-136" y="1169"/>
      <point x="-99" y="1169" type="curve" smooth="yes"/>
      <point x="-62" y="1169"/>
      <point x="-39" y="1142"/>
      <point x="-39" y="1095" type="curve" smooth="yes"/>
      <point x="-39" y="1050"/>
      <point x="-63" y="1022"/>
      <point x="-100" y="1022" type="curve" smooth="yes"/>
      <point x="-137" y="1022"/>
      <point x="-159" y="1051"/>
    </contour>
  </outline>
</glyph>
<glyph name="uniA8E1" format="2">
  <unicode hex="A8E1"/>
  <outline>
    <contour>
      <point x="-107" y="1243" type="curve" smooth="yes"/>
      <point x="-147" y="1243"/>
      <point x="-165" y="1214"/>
      <point x="-165" y="1191" type="curve" smooth="yes"/>
      <point x="-165" y="1159"/>
      <point x="-146" y="1143"/>
      <point x="-117" y="1128" type="curve"/>
      <point x="-106" y="1147" type="line"/>
      <point x="-127" y="1156"/>
      <point x="-142" y="1167"/>
      <point x="-142" y="1189" type="curve" smooth="yes"/>
      <point x="-142" y="1208"/>
      <point x="-130" y="1221"/>
      <point x="-108" y="1221" type="curve" smooth="yes"/>
      <point x="-87" y="1221"/>
      <point x="-70" y="1208"/>
      <point x="-70" y="1182" type="curve" smooth="yes"/>
      <point x="-70" y="1156"/>
      <point x="-77" y="1143"/>
      <point x="-103" y="1117" type="curve" smooth="yes"/>
      <point x="-113" y="1107"/>
      <point x="-136" y="1089"/>
      <point x="-162" y="1073" type="curve"/>
      <point x="-162" y="1066" type="line"/>
      <point x="-88" y="1001" type="line" smooth="yes"/>
      <point x="-70" y="985"/>
      <point x="-66" y="974"/>
      <point x="-66" y="959" type="curve" smooth="yes"/>
      <point x="-66" y="945"/>
      <point x="-74" y="932"/>
      <point x="-82" y="921" type="curve"/>
      <point x="-64" y="908" type="line"/>
      <point x="-53" y="922"/>
      <point x="-43" y="939"/>
      <point x="-43" y="959" type="curve" smooth="yes"/>
      <point x="-43" y="979"/>
      <point x="-49" y="996"/>
      <point x="-71" y="1016" type="curve" smooth="yes"/>
      <point x="-139" y="1075" type="line"/>
      <point x="-138" y="1062" type="line"/>
      <point x="-72" y="1109"/>
      <point x="-47" y="1141"/>
      <point x="-47" y="1179" type="curve" smooth="yes"/>
      <point x="-47" y="1217"/>
      <point x="-70" y="1243"/>
    </contour>
  </outline>
</glyph>
<glyph name="uniA8E2" format="2">
  <unicode hex="A8E2"/>
  <outline>
    <contour>
      <point x="-155" y="1079" type="curve"/>
      <point x="-113" y="1058" type="line"/>
      <point x="-87" y="1031"/>
      <point x="-60" y="998"/>
      <point x="-21" y="939" type="curve"/>
      <point x="-3" y="952" type="line"/>
      <point x="-28" y="989"/>
      <point x="-65" y="1039"/>
      <point x="-92" y="1065" type="curve"/>
      <point x="-93" y="1066"/>
      <point x="-93" y="1068"/>
      <point x="-97" y="1070" type="curve"/>
      <point x="-117" y="1092"/>
      <point x="-133" y="1098"/>
      <point x="-145" y="1098" type="curve" smooth="yes"/>
      <point x="-160" y="1098"/>
      <point x="-170" y="1091"/>
      <point x="-170" y="1077" type="curve" smooth="yes"/>
      <point x="-170" y="1057"/>
      <point x="-154" y="1050"/>
      <point x="-129" y="1050" type="curve" smooth="yes"/>
      <point x="-73" y="1050"/>
      <point x="-28" y="1090"/>
      <point x="-28" y="1154" type="curve" smooth="yes"/>
      <point x="-28" y="1215"/>
      <point x="-64" y="1243"/>
      <point x="-109" y="1243" type="curve" smooth="yes"/>
      <point x="-133" y="1243"/>
      <point x="-157" y="1237"/>
      <point x="-177" y="1227" type="curve"/>
      <point x="-169" y="1206" type="line"/>
      <point x="-148" y="1217"/>
      <point x="-127" y="1221"/>
      <point x="-110" y="1221" type="curve" smooth="yes"/>
      <point x="-73" y="1221"/>
      <point x="-51" y="1197"/>
      <point x="-51" y="1154" type="curve" smooth="yes"/>
      <point x="-51" y="1107"/>
      <point x="-80" y="1071"/>
      <point x="-129" y="1071" type="curve"/>
      <point x="-137" y="1071"/>
      <point x="-142" y="1077"/>
    </contour>
  </outline>
</glyph>
<glyph name="uniA8E3" format="2">
  <unicode hex="A8E3"/>
  <outline>
    <contour>
      <point x="-50" y="919" type="curve"/>
      <point x="-32" y="931" type="line"/>
      <point x="-51" y="957"/>
      <point x="-76" y="990"/>
      <point x="-98" y="1011" type="curve"/>
      <point x="-98" y="1013"/>
      <point x="-99" y="1012"/>
      <point x="-99" y="1014" type="curve"/>
      <point x="-117" y="1033"/>
      <point x="-133" y="1040"/>
      <point x="-147" y="1040" type="curve" smooth="yes"/>
      <point x="-161" y="1040"/>
      <point x="-171" y="1033"/>
      <point x="-171" y="1019" type="curve" smooth="yes"/>
      <point x="-171" y="999"/>
      <point x="-155" y="992"/>
      <point x="-132" y="992" type="curve" smooth="yes"/>
      <point x="-68" y="992"/>
      <point x="-31" y="1018"/>
      <point x="-31" y="1067" type="curve" smooth="yes"/>
      <point x="-31" y="1099"/>
      <point x="-49" y="1126"/>
      <point x="-96" y="1134" type="curve"/>
      <point x="-108" y="1120" type="line"/>
      <point x="-72" y="1114"/>
      <point x="-54" y="1095"/>
      <point x="-54" y="1068" type="curve" smooth="yes"/>
      <point x="-54" y="1036"/>
      <point x="-76" y="1013"/>
      <point x="-120" y="1013" type="curve"/>
      <point x="-120" y="1007" type="line"/>
      <point x="-98" y="984"/>
      <point x="-77" y="957"/>
    </contour>
    <contour>
      <point x="-142" y="1135" type="curve"/>
      <point x="-141" y="1113" type="line"/>
      <point x="-118" y="1113"/>
      <point x="-102" y="1117"/>
      <point x="-87" y="1121" type="curve" smooth="yes"/>
      <point x="-87" y="1122"/>
      <point x="-84" y="1124"/>
      <point x="-82" y="1125" type="curve" smooth="yes"/>
      <point x="-58" y="1136"/>
      <point x="-45" y="1155"/>
      <point x="-45" y="1181" type="curve" smooth="yes"/>
      <point x="-45" y="1221"/>
      <point x="-73" y="1243"/>
      <point x="-112" y="1243" type="curve" smooth="yes"/>
      <point x="-143" y="1243"/>
      <point x="-169" y="1233"/>
      <point x="-183" y="1226" type="curve"/>
      <point x="-175" y="1205" type="line"/>
      <point x="-154" y="1216"/>
      <point x="-133" y="1221"/>
      <point x="-112" y="1221" type="curve" smooth="yes"/>
      <point x="-86" y="1221"/>
      <point x="-68" y="1207"/>
      <point x="-68" y="1180" type="curve" smooth="yes"/>
      <point x="-68" y="1158"/>
      <point x="-77" y="1135"/>
    </contour>
  </outline>
</glyph>
<glyph name="uniA8E4" format="2">
  <unicode hex="A8E4"/>
  <outline>
    <contour>
      <point x="-96" y="942" type="curve" smooth="yes"/>
      <point x="-58" y="942"/>
      <point x="-36" y="967"/>
      <point x="-36" y="1002" type="curve" smooth="yes"/>
      <point x="-36" y="1024"/>
      <point x="-40" y="1051"/>
      <point x="-87" y="1100" type="curve"/>
      <point x="-92" y="1105" type="line"/>
      <point x="-156" y="1173"/>
      <point x="-162" y="1191"/>
      <point x="-162" y="1216" type="curve" smooth="yes"/>
      <point x="-162" y="1223"/>
      <point x="-160" y="1233"/>
      <point x="-158" y="1239" type="curve"/>
      <point x="-181" y="1243" type="line"/>
      <point x="-183" y="1237"/>
      <point x="-185" y="1226"/>
      <point x="-185" y="1217" type="curve" smooth="yes"/>
      <point x="-185" y="1187"/>
      <point x="-178" y="1169"/>
      <point x="-107" y="1090" type="curve"/>
      <point x="-103" y="1086" type="line"/>
      <point x="-68" y="1049"/>
      <point x="-59" y="1030"/>
      <point x="-59" y="1004" type="curve" smooth="yes"/>
      <point x="-59" y="979"/>
      <point x="-72" y="964"/>
      <point x="-98" y="964" type="curve" smooth="yes"/>
      <point x="-121" y="964"/>
      <point x="-135" y="980"/>
      <point x="-135" y="1006" type="curve" smooth="yes"/>
      <point x="-135" y="1027"/>
      <point x="-130" y="1047"/>
      <point x="-91" y="1087" type="curve"/>
      <point x="-88" y="1089" type="line"/>
      <point x="-16" y="1167"/>
      <point x="-9" y="1184"/>
      <point x="-9" y="1218" type="curve" smooth="yes"/>
      <point x="-9" y="1226"/>
      <point x="-11" y="1236"/>
      <point x="-13" y="1243" type="curve"/>
      <point x="-35" y="1239" type="line"/>
      <point x="-33" y="1231"/>
      <point x="-32" y="1222"/>
      <point x="-32" y="1217" type="curve" smooth="yes"/>
      <point x="-32" y="1194"/>
      <point x="-36" y="1173"/>
      <point x="-103" y="1103" type="curve"/>
      <point x="-106" y="1101" type="line"/>
      <point x="-154" y="1051"/>
      <point x="-158" y="1029"/>
      <point x="-158" y="1004" type="curve" smooth="yes"/>
      <point x="-158" y="961"/>
      <point x="-128" y="942"/>
    </contour>
  </outline>
</glyph>
<glyph name="uniA8E5" format="2">
  <unicode hex="A8E5"/>
  <outline>
    <contour>
      <point x="-23" y="911" type="curve"/>
      <point x="-3" y="921" type="line"/>
      <point x="-25" y="961"/>
      <point x="-54" y="1030"/>
      <point x="-65" y="1060" type="curve"/>
      <point x="-70" y="1073" type="line"/>
      <point x="-79" y="1070"/>
      <point x="-94" y="1069"/>
      <point x="-103" y="1069" type="curve" smooth="yes"/>
      <point x="-145" y="1069"/>
      <point x="-168" y="1099"/>
      <point x="-168" y="1143" type="curve" smooth="yes"/>
      <point x="-168" y="1175"/>
      <point x="-160" y="1200"/>
      <point x="-142" y="1234" type="curve"/>
      <point x="-161" y="1243" type="line"/>
      <point x="-178" y="1214"/>
      <point x="-190" y="1178"/>
      <point x="-190" y="1145" type="curve" smooth="yes"/>
      <point x="-190" y="1071"/>
      <point x="-145" y="1047"/>
      <point x="-102" y="1047" type="curve" smooth="yes"/>
      <point x="-74" y="1047"/>
      <point x="-36" y="1052"/>
      <point x="-36" y="1086" type="curve" smooth="yes"/>
      <point x="-36" y="1102"/>
      <point x="-47" y="1121"/>
      <point x="-69" y="1121" type="curve" smooth="yes"/>
      <point x="-86" y="1121"/>
      <point x="-94" y="1107"/>
      <point x="-94" y="1092" type="curve" smooth="yes"/>
      <point x="-94" y="1084"/>
      <point x="-92" y="1071"/>
      <point x="-84" y="1051" type="curve"/>
      <point x="-72" y="1018"/>
      <point x="-42" y="947"/>
    </contour>
  </outline>
</glyph>
<glyph name="uniA8E6" format="2">
  <unicode hex="A8E6"/>
  <outline>
    <contour>
      <point x="-25" y="917" type="curve"/>
      <point x="-5" y="928" type="line"/>
      <point x="-17" y="945"/>
      <point x="-38" y="985"/>
      <point x="-47" y="1006" type="curve"/>
      <point x="-47" y="1002" type="line"/>
      <point x="-33" y="1005"/>
      <point x="-20" y="1017"/>
      <point x="-20" y="1036" type="curve" smooth="yes"/>
      <point x="-20" y="1052"/>
      <point x="-31" y="1071"/>
      <point x="-54" y="1071" type="curve" smooth="yes"/>
      <point x="-70" y="1071"/>
      <point x="-78" y="1057"/>
      <point x="-78" y="1042" type="curve" smooth="yes"/>
      <point x="-78" y="1034"/>
      <point x="-76" y="1024"/>
      <point x="-73" y="1017" type="curve"/>
      <point x="-64" y="1022" type="line"/>
      <point x="-69" y="1020"/>
      <point x="-82" y="1019"/>
      <point x="-90" y="1019" type="curve" smooth="yes"/>
      <point x="-129" y="1019"/>
      <point x="-152" y="1038"/>
      <point x="-152" y="1069" type="curve" smooth="yes"/>
      <point x="-152" y="1101"/>
      <point x="-130" y="1116"/>
      <point x="-95" y="1116" type="curve" smooth="yes"/>
      <point x="-86" y="1116"/>
      <point x="-74" y="1115"/>
      <point x="-70" y="1114" type="curve"/>
      <point x="-68" y="1136" type="line"/>
      <point x="-74" y="1137"/>
      <point x="-82" y="1138"/>
      <point x="-94" y="1138" type="curve" smooth="yes"/>
      <point x="-112" y="1138"/>
      <point x="-129" y="1134"/>
      <point x="-141" y="1127" type="curve" smooth="yes"/>
      <point x="-142" y="1127"/>
      <point x="-142" y="1126"/>
      <point x="-144" y="1124" type="curve"/>
      <point x="-166" y="1111"/>
      <point x="-175" y="1091"/>
      <point x="-175" y="1070" type="curve" smooth="yes"/>
      <point x="-175" y="1027"/>
      <point x="-144" y="997"/>
      <point x="-90" y="997" type="curve" smooth="yes"/>
      <point x="-76" y="997"/>
      <point x="-67" y="998"/>
      <point x="-59" y="1000" type="curve"/>
      <point x="-67" y="1001" type="line"/>
      <point x="-59" y="981"/>
      <point x="-39" y="940"/>
    </contour>
    <contour>
      <point x="-129" y="1114" type="curve"/>
      <point x="-119" y="1131" type="line"/>
      <point x="-143" y="1137"/>
      <point x="-164" y="1153"/>
      <point x="-164" y="1179" type="curve" smooth="yes"/>
      <point x="-164" y="1207"/>
      <point x="-146" y="1221"/>
      <point x="-109" y="1221" type="curve" smooth="yes"/>
      <point x="-94" y="1221"/>
      <point x="-77" y="1218"/>
      <point x="-67" y="1215" type="curve"/>
      <point x="-65" y="1237" type="line"/>
      <point x="-76" y="1240"/>
      <point x="-94" y="1243"/>
      <point x="-113" y="1243" type="curve" smooth="yes"/>
      <point x="-154" y="1243"/>
      <point x="-187" y="1222"/>
      <point x="-187" y="1182" type="curve" smooth="yes"/>
      <point x="-187" y="1147"/>
      <point x="-166" y="1126"/>
    </contour>
  </outline>
</glyph>
<glyph name="uniA8E7" format="2">
  <unicode hex="A8E7"/>
  <outline>
    <contour>
      <point x="-18" y="1072" type="curve" smooth="yes"/>
      <point x="-18" y="1153"/>
      <point x="-50" y="1201"/>
      <point x="-95" y="1201" type="curve" smooth="yes"/>
      <point x="-131" y="1201"/>
      <point x="-149" y="1176"/>
      <point x="-149" y="1145" type="curve" smooth="yes"/>
      <point x="-149" y="1110"/>
      <point x="-129" y="1079"/>
      <point x="-66" y="1074" type="curve"/>
      <point x="-63" y="1097" type="line"/>
      <point x="-119" y="1100"/>
      <point x="-127" y="1124"/>
      <point x="-127" y="1143" type="curve" smooth="yes"/>
      <point x="-127" y="1167"/>
      <point x="-114" y="1179"/>
      <point x="-96" y="1179" type="curve" smooth="yes"/>
      <point x="-60" y="1179"/>
      <point x="-41" y="1131"/>
      <point x="-41" y="1074" type="curve" smooth="yes"/>
      <point x="-41" y="1013"/>
      <point x="-55" y="988"/>
      <point x="-90" y="988" type="curve" smooth="yes"/>
      <point x="-158" y="988"/>
      <point x="-180" y="1088"/>
      <point x="-192" y="1220" type="curve"/>
      <point x="-215" y="1216" type="line"/>
      <point x="-198" y="1034"/>
      <point x="-158" y="966"/>
      <point x="-89" y="966" type="curve" smooth="yes"/>
      <point x="-45" y="966"/>
      <point x="-18" y="998"/>
    </contour>
  </outline>
</glyph>
<glyph name="uniA8E8" format="2">
  <unicode hex="A8E8"/>
  <outline>
    <contour>
      <point x="-106" y="943" type="curve" smooth="yes"/>
      <point x="-66" y="943"/>
      <point x="-33" y="960"/>
      <point x="-8" y="976" type="curve"/>
      <point x="-19" y="997" type="line"/>
      <point x="-48" y="977"/>
      <point x="-72" y="965"/>
      <point x="-106" y="965" type="curve" smooth="yes"/>
      <point x="-140" y="965"/>
      <point x="-166" y="982"/>
      <point x="-166" y="1021" type="curve" smooth="yes"/>
      <point x="-166" y="1042"/>
      <point x="-161" y="1061"/>
      <point x="-138" y="1092" type="curve" smooth="yes"/>
      <point x="-35" y="1228" type="line"/>
      <point x="-53" y="1243" type="line"/>
      <point x="-153" y="1110" type="line" smooth="yes"/>
      <point x="-175" y="1080"/>
      <point x="-189" y="1055"/>
      <point x="-189" y="1023" type="curve" smooth="yes"/>
      <point x="-189" y="965"/>
      <point x="-148" y="943"/>
    </contour>
  </outline>
</glyph>
<glyph name="uniA8E9" format="2">
  <unicode hex="A8E9"/>
  <outline>
    <contour>
      <point x="-46" y="921" type="curve"/>
      <point x="-28" y="908" type="line"/>
      <point x="-17" y="922"/>
      <point x="-7" y="939"/>
      <point x="-7" y="959" type="curve" smooth="yes"/>
      <point x="-7" y="979"/>
      <point x="-13" y="996"/>
      <point x="-35" y="1016" type="curve" smooth="yes"/>
      <point x="-101" y="1073" type="line" smooth="yes"/>
      <point x="-114" y="1084"/>
      <point x="-129" y="1096"/>
      <point x="-146" y="1108" type="curve"/>
      <point x="-132" y="1097" type="line"/>
      <point x="-92" y="1097"/>
      <point x="-65" y="1121"/>
      <point x="-65" y="1168" type="curve" smooth="yes"/>
      <point x="-65" y="1211"/>
      <point x="-91" y="1243"/>
      <point x="-132" y="1243" type="curve" smooth="yes"/>
      <point x="-171" y="1243"/>
      <point x="-197" y="1212"/>
      <point x="-197" y="1171" type="curve" smooth="yes"/>
      <point x="-197" y="1145"/>
      <point x="-189" y="1121"/>
      <point x="-155" y="1092" type="curve" smooth="yes"/>
      <point x="-52" y="1001" type="line" smooth="yes"/>
      <point x="-34" y="985"/>
      <point x="-30" y="974"/>
      <point x="-30" y="959" type="curve" smooth="yes"/>
      <point x="-30" y="945"/>
      <point x="-38" y="932"/>
    </contour>
    <contour>
      <point x="-132" y="1117" type="curve" smooth="yes"/>
      <point x="-161" y="1117"/>
      <point x="-174" y="1141"/>
      <point x="-174" y="1169" type="curve" smooth="yes"/>
      <point x="-174" y="1201"/>
      <point x="-158" y="1221"/>
      <point x="-132" y="1221" type="curve" smooth="yes"/>
      <point x="-106" y="1221"/>
      <point x="-88" y="1201"/>
      <point x="-88" y="1169" type="curve" smooth="yes"/>
      <point x="-88" y="1140"/>
      <point x="-102" y="1117"/>
    </contour>
  </outline>
</glyph>
